M48
; DRILL file {KiCad 9.0.4} date 2026-03-23T18:58:02+0100
; FORMAT={-:-/ absolute / inch / decimal}
; #@! TF.CreationDate,2026-03-23T18:58:02+01:00
; #@! TF.GenerationSoftware,Kicad,Pcbnew,9.0.4
; #@! TF.FileFunction,Plated,1,4,PTH
FMAT,2
INCH
; #@! TA.AperFunction,Plated,PTH,ViaDrill
T1C0.0157
; #@! TA.AperFunction,Plated,PTH,ComponentDrill
T2C0.0394
; #@! TA.AperFunction,Plated,PTH,ComponentDrill
T3C0.0402
; #@! TA.AperFunction,Plated,PTH,ComponentDrill
T4C0.1063
%
G90
G05
T1
X5.1181Y-2.3622
X5.1181Y-2.5591
X5.1181Y-2.7559
X5.1181Y-2.9528
X5.1181Y-3.1496
X5.1181Y-3.3465
X5.1181Y-3.5433
X5.1181Y-3.7402
X5.1181Y-3.937
X5.1929Y-1.9783
X5.1929Y-2.1752
X5.315Y-2.3622
X5.3898Y-1.7815
X5.3898Y-2.1752
X5.4528Y-2.0413
X5.5118Y-2.3622
X5.5118Y-2.5591
X5.5118Y-3.1496
X5.5118Y-3.3465
X5.5118Y-4.1339
X5.5118Y-4.3307
X5.5866Y-1.7815
X5.5866Y-2.1752
X5.7087Y-2.3622
X5.7087Y-2.9528
X5.7087Y-3.1496
X5.7087Y-3.3465
X5.7087Y-3.7402
X5.7087Y-4.1339
X5.7087Y-4.3307
X5.7835Y-1.7815
X5.7835Y-1.9783
X5.7835Y-2.1752
X5.9055Y-2.5591
X5.9055Y-2.7559
X5.9055Y-2.9528
X5.9055Y-3.1496
X5.9055Y-3.3465
X5.9055Y-3.7402
X5.9803Y-1.7815
X5.9803Y-2.1752
X6.0276Y-2.0413
X6.1024Y-2.3622
X6.1024Y-2.5591
X6.1024Y-2.7559
X6.1024Y-2.9528
X6.1024Y-3.1496
X6.1024Y-3.3465
X6.1024Y-3.7402
X6.1754Y-1.8604
X6.2992Y-2.3622
X6.4488Y-2.3661
X6.4724Y-2.874
X6.4803Y-4.252
X6.4961Y-3.7402
X6.4962Y-4.3416
X6.5318Y-2.9354
X6.5984Y-2.622
X6.6063Y-1.8956
X6.6496Y-2.7106
X6.6929Y-3.1496
X6.6929Y-3.3465
X6.6929Y-3.7402
X6.6929Y-4.1339
X6.7087Y-2.1083
X6.7441Y-2.3661
X6.7677Y-1.7815
X6.8071Y-4.4528
X6.8189Y-3.0236
X6.8898Y-3.1496
X6.8898Y-3.3465
T2
X5.3406Y-1.9354
X5.3406Y-2.0338
X7.0591Y-1.9555
X7.0591Y-2.0555
X7.0591Y-2.1555
X7.0591Y-2.2555
X7.0591Y-2.3555
X7.0591Y-2.4555
X7.0591Y-2.6
X7.0591Y-2.7
X7.0591Y-2.8
X7.0591Y-2.9
X7.0591Y-3.0
X7.0591Y-3.1
X7.0591Y-3.2417
X7.0591Y-3.3417
X7.0591Y-3.4417
X7.0591Y-3.5417
X7.0591Y-3.6417
X7.0591Y-3.7417
X7.0591Y-3.8827
X7.0591Y-3.9827
X7.0591Y-4.0827
X7.0591Y-4.1827
X7.0591Y-4.2827
X7.0591Y-4.3827
T3
X5.3071Y-2.7803
X5.3071Y-3.1803
X5.3071Y-3.2803
X5.3071Y-3.6803
X5.3071Y-4.0803
X5.3071Y-2.5803
X5.3071Y-2.6803
X5.3071Y-2.8803
X5.3071Y-2.9803
X5.3071Y-3.0803
X5.3071Y-3.3803
X5.3071Y-3.4803
X5.3071Y-3.5803
X5.3071Y-3.7803
X5.3071Y-3.8803
X5.3071Y-3.9803
X5.3071Y-4.1803
X5.3071Y-4.2803
X5.3071Y-4.3803
X6.3071Y-2.5803
X6.3071Y-2.6803
X6.3071Y-2.8803
X6.3071Y-2.9803
X6.3071Y-3.0803
X6.3071Y-3.3803
X6.3071Y-3.4803
X6.3071Y-3.5803
X6.3071Y-3.7803
X6.3071Y-3.8803
X6.3071Y-3.9803
X6.3071Y-4.1803
X6.3071Y-4.2803
X6.3071Y-4.3803
X6.3071Y-2.7803
X6.3071Y-3.1803
X6.3071Y-3.2803
X6.3071Y-3.6803
X6.3071Y-4.0803
T4
X5.1181Y-1.8504
X5.1181Y-4.252
X6.0039Y-4.252
X6.811Y-1.8504
M30
