%TF.GenerationSoftware,KiCad,Pcbnew,9.0.4*%
%TF.CreationDate,2026-03-23T18:57:01+01:00*%
%TF.ProjectId,Traveler,54726176-656c-4657-922e-6b696361645f,rev?*%
%TF.SameCoordinates,Original*%
%TF.FileFunction,Copper,L4,Bot*%
%TF.FilePolarity,Positive*%
%FSLAX46Y46*%
G04 Gerber Fmt 4.6, Leading zero omitted, Abs format (unit mm)*
G04 Created by KiCad (PCBNEW 9.0.4) date 2026-03-23 18:57:01*
%MOMM*%
%LPD*%
G01*
G04 APERTURE LIST*
G04 Aperture macros list*
%AMRoundRect*
0 Rectangle with rounded corners*
0 $1 Rounding radius*
0 $2 $3 $4 $5 $6 $7 $8 $9 X,Y pos of 4 corners*
0 Add a 4 corners polygon primitive as box body*
4,1,4,$2,$3,$4,$5,$6,$7,$8,$9,$2,$3,0*
0 Add four circle primitives for the rounded corners*
1,1,$1+$1,$2,$3*
1,1,$1+$1,$4,$5*
1,1,$1+$1,$6,$7*
1,1,$1+$1,$8,$9*
0 Add four rect primitives between the rounded corners*
20,1,$1+$1,$2,$3,$4,$5,0*
20,1,$1+$1,$4,$5,$6,$7,0*
20,1,$1+$1,$6,$7,$8,$9,0*
20,1,$1+$1,$8,$9,$2,$3,0*%
G04 Aperture macros list end*
%TA.AperFunction,ComponentPad*%
%ADD10C,3.100000*%
%TD*%
%TA.AperFunction,ConnectorPad*%
%ADD11C,5.400000*%
%TD*%
%TA.AperFunction,ComponentPad*%
%ADD12C,1.700000*%
%TD*%
%TA.AperFunction,ComponentPad*%
%ADD13R,1.700000X1.700000*%
%TD*%
%TA.AperFunction,ComponentPad*%
%ADD14C,1.530000*%
%TD*%
%TA.AperFunction,ComponentPad*%
%ADD15R,1.530000X1.530000*%
%TD*%
%TA.AperFunction,ComponentPad*%
%ADD16O,2.000000X1.700000*%
%TD*%
%TA.AperFunction,ComponentPad*%
%ADD17RoundRect,0.250000X-0.750000X0.600000X-0.750000X-0.600000X0.750000X-0.600000X0.750000X0.600000X0*%
%TD*%
%TA.AperFunction,ViaPad*%
%ADD18C,0.800000*%
%TD*%
%TA.AperFunction,Conductor*%
%ADD19C,0.300000*%
%TD*%
G04 APERTURE END LIST*
D10*
%TO.P,H4,1,1*%
%TO.N,GND*%
X130000000Y-108000000D03*
D11*
X130000000Y-108000000D03*
%TD*%
D12*
%TO.P,J1,6,Pin_6*%
%TO.N,/A1OUT1*%
X179300000Y-78740000D03*
%TO.P,J1,5,Pin_5*%
%TO.N,5V*%
X179300000Y-76200000D03*
%TO.P,J1,4,Pin_4*%
%TO.N,/Enc_A1_B*%
X179300000Y-73660000D03*
%TO.P,J1,3,Pin_3*%
%TO.N,/Enc_A1_A*%
X179300000Y-71119999D03*
%TO.P,J1,2,Pin_2*%
%TO.N,GND*%
X179300000Y-68580000D03*
D13*
%TO.P,J1,1,Pin_1*%
%TO.N,/A1OUT2*%
X179300000Y-66040000D03*
%TD*%
D11*
%TO.P,H1,1,1*%
%TO.N,GND*%
X173000000Y-47000000D03*
D10*
X173000000Y-47000000D03*
%TD*%
D11*
%TO.P,H3,1,1*%
%TO.N,GND*%
X152500000Y-108000000D03*
D10*
X152500000Y-108000000D03*
%TD*%
D12*
%TO.P,J3,6,Pin_6*%
%TO.N,/A2OUT1*%
X179300000Y-111320001D03*
%TO.P,J3,5,Pin_5*%
%TO.N,5V*%
X179300000Y-108780001D03*
%TO.P,J3,4,Pin_4*%
%TO.N,/Enc_A2_B*%
X179300000Y-106240001D03*
%TO.P,J3,3,Pin_3*%
%TO.N,/Enc_A2_A*%
X179300000Y-103700000D03*
%TO.P,J3,2,Pin_2*%
%TO.N,GND*%
X179300000Y-101160001D03*
D13*
%TO.P,J3,1,Pin_1*%
%TO.N,/A2OUT2*%
X179300000Y-98620001D03*
%TD*%
D12*
%TO.P,J2,6,Pin_6*%
%TO.N,/B1OUT2*%
X179300000Y-62370001D03*
%TO.P,J2,5,Pin_5*%
%TO.N,5V*%
X179300000Y-59830001D03*
%TO.P,J2,4,Pin_4*%
%TO.N,/Enc_B1_B*%
X179300000Y-57290001D03*
%TO.P,J2,3,Pin_3*%
%TO.N,/Enc_B1_A*%
X179300000Y-54750000D03*
%TO.P,J2,2,Pin_2*%
%TO.N,GND*%
X179300000Y-52210001D03*
D13*
%TO.P,J2,1,Pin_1*%
%TO.N,/B1OUT1*%
X179300000Y-49670001D03*
%TD*%
D14*
%TO.P,U1,38,GND3*%
%TO.N,GND*%
X160200000Y-65540000D03*
%TO.P,U1,37,IO23*%
%TO.N,unconnected-(U1-IO23-Pad37)*%
X160200000Y-68080000D03*
%TO.P,U1,36,IO22*%
%TO.N,LED_conn_bt*%
X160200001Y-70620000D03*
%TO.P,U1,35,TXD0*%
%TO.N,unconnected-(U1-TXD0-Pad35)*%
X160200000Y-73160000D03*
%TO.P,U1,34,RXD0*%
%TO.N,unconnected-(U1-RXD0-Pad34)*%
X160200000Y-75700000D03*
%TO.P,U1,33,IO21*%
%TO.N,LED_spare1*%
X160200000Y-78240000D03*
%TO.P,U1,32,GND2*%
%TO.N,GND*%
X160200001Y-80780000D03*
%TO.P,U1,31,IO19*%
%TO.N,LED_spare2*%
X160200001Y-83320000D03*
%TO.P,U1,30,IO18*%
%TO.N,B1IN1*%
X160200000Y-85860000D03*
%TO.P,U1,29,IO5*%
%TO.N,B1IN2*%
X160200000Y-88400000D03*
%TO.P,U1,28,IO17*%
%TO.N,A1IN2*%
X160200000Y-90940000D03*
%TO.P,U1,27,IO16*%
%TO.N,A1IN1*%
X160200001Y-93480000D03*
%TO.P,U1,26,IO4*%
%TO.N,B2IN1*%
X160200000Y-96020000D03*
%TO.P,U1,25,IO0*%
%TO.N,B2IN2*%
X160200000Y-98560000D03*
%TO.P,U1,24,IO2*%
%TO.N,A2IN2*%
X160200000Y-101100000D03*
%TO.P,U1,23,IO15*%
%TO.N,A2IN1*%
X160200001Y-103640000D03*
%TO.P,U1,22,SD1*%
%TO.N,unconnected-(U1-SD1-Pad22)*%
X160200000Y-106180001D03*
%TO.P,U1,21,SD0*%
%TO.N,unconnected-(U1-SD0-Pad21)*%
X160200000Y-108720000D03*
%TO.P,U1,20,CLK*%
%TO.N,unconnected-(U1-CLK-Pad20)*%
X160200000Y-111260000D03*
%TO.P,U1,19,EXT_5V*%
%TO.N,5V*%
X134800000Y-111260000D03*
%TO.P,U1,18,CMD*%
%TO.N,unconnected-(U1-CMD-Pad18)*%
X134800000Y-108720000D03*
%TO.P,U1,17,SD3*%
%TO.N,unconnected-(U1-SD3-Pad17)*%
X134800000Y-106180001D03*
%TO.P,U1,16,SD2*%
%TO.N,unconnected-(U1-SD2-Pad16)*%
X134799999Y-103640000D03*
%TO.P,U1,15,IO13*%
%TO.N,unconnected-(U1-IO13-Pad15)*%
X134800000Y-101100000D03*
%TO.P,U1,14,GND1*%
%TO.N,GND*%
X134800000Y-98560000D03*
%TO.P,U1,13,IO12*%
%TO.N,unconnected-(U1-IO12-Pad13)*%
X134800000Y-96020000D03*
%TO.P,U1,12,IO14*%
%TO.N,/Enc_A2_B*%
X134799999Y-93480000D03*
%TO.P,U1,11,IO27*%
%TO.N,/Enc_A2_A*%
X134800000Y-90940000D03*
%TO.P,U1,10,IO26*%
%TO.N,/Enc_B2_B*%
X134800000Y-88400000D03*
%TO.P,U1,9,IO25*%
%TO.N,/Enc_B2_A*%
X134800000Y-85860000D03*
%TO.P,U1,8,IO33*%
%TO.N,/Enc_A1_B*%
X134799999Y-83320000D03*
%TO.P,U1,7,IO32*%
%TO.N,/Enc_A1_A*%
X134799999Y-80780000D03*
%TO.P,U1,6,IO35*%
%TO.N,/Enc_B1_B*%
X134800000Y-78240000D03*
%TO.P,U1,5,IO34*%
%TO.N,/Enc_B1_A*%
X134800000Y-75700000D03*
%TO.P,U1,4,SENSOR_VN*%
%TO.N,unconnected-(U1-SENSOR_VN-Pad4)*%
X134800000Y-73160000D03*
%TO.P,U1,3,SENSOR_VP*%
%TO.N,unconnected-(U1-SENSOR_VP-Pad3)*%
X134799999Y-70620000D03*
%TO.P,U1,2,EN*%
%TO.N,unconnected-(U1-EN-Pad2)*%
X134800000Y-68080000D03*
D15*
%TO.P,U1,1,3V3*%
%TO.N,unconnected-(U1-3V3-Pad1)*%
X134800000Y-65540000D03*
%TD*%
D12*
%TO.P,J4,6,Pin_6*%
%TO.N,/B2OUT2*%
X179300000Y-95040000D03*
%TO.P,J4,5,Pin_5*%
%TO.N,5V*%
X179300000Y-92500000D03*
%TO.P,J4,4,Pin_4*%
%TO.N,/Enc_B2_B*%
X179300000Y-89960000D03*
%TO.P,J4,3,Pin_3*%
%TO.N,/Enc_B2_A*%
X179300000Y-87419999D03*
%TO.P,J4,2,Pin_2*%
%TO.N,GND*%
X179300000Y-84880000D03*
D13*
%TO.P,J4,1,Pin_1*%
%TO.N,/B2OUT1*%
X179300000Y-82340000D03*
%TD*%
D16*
%TO.P,J5,2,Pin_2*%
%TO.N,GND*%
X135650000Y-51658250D03*
D17*
%TO.P,J5,1,Pin_1*%
%TO.N,Net-(J5-Pin_1)*%
X135650000Y-49158250D03*
%TD*%
D10*
%TO.P,H2,1,1*%
%TO.N,GND*%
X130000000Y-47000000D03*
D11*
X130000000Y-47000000D03*
%TD*%
D18*
%TO.N,GND*%
X140000000Y-85000000D03*
X145000000Y-85000000D03*
X150000000Y-85000000D03*
X155000000Y-85000000D03*
X167798959Y-48148959D03*
X160000000Y-60000000D03*
X155000000Y-60000000D03*
X140000000Y-65000000D03*
X170000000Y-105000000D03*
X165000000Y-95000000D03*
X170000000Y-95000000D03*
X170000000Y-80000000D03*
X170000000Y-85000000D03*
X175000000Y-80000000D03*
X175000000Y-85000000D03*
X171900000Y-45250000D03*
X151900000Y-45250000D03*
X131900000Y-50250000D03*
X136900000Y-45250000D03*
X141900000Y-45250000D03*
X146900000Y-45250000D03*
X146900000Y-50250000D03*
X145000000Y-60000000D03*
X140000000Y-60000000D03*
X151900000Y-55250000D03*
X146900000Y-55250000D03*
X135000000Y-60000000D03*
X131900000Y-55250000D03*
X136900000Y-55250000D03*
X141900000Y-55250000D03*
X130000000Y-60000000D03*
X130000000Y-65000000D03*
X130000000Y-70000000D03*
X130000000Y-75000000D03*
X130000000Y-80000000D03*
X130000000Y-85000000D03*
X130000000Y-90000000D03*
X130000000Y-95000000D03*
X130000000Y-100000000D03*
X140000000Y-110000000D03*
X145000000Y-110000000D03*
X145000000Y-105000000D03*
X140000000Y-105000000D03*
X145000000Y-95000000D03*
X150000000Y-95000000D03*
X155000000Y-95000000D03*
X140000000Y-80000000D03*
X145000000Y-75000000D03*
X145000000Y-80000000D03*
X155000000Y-80000000D03*
X150000000Y-80000000D03*
X150000000Y-75000000D03*
X155000000Y-75000000D03*
X150000000Y-65000000D03*
X155000000Y-65000000D03*
X155000000Y-70000000D03*
X150000000Y-70000000D03*
X171300000Y-60100000D03*
X163800000Y-60100000D03*
%TO.N,6V*%
X168900000Y-68850000D03*
%TO.N,5V*%
X167600000Y-66600000D03*
X172900000Y-113100000D03*
%TO.N,GND*%
X165003498Y-110276000D03*
%TO.N,6V*%
X164600000Y-108000000D03*
%TO.N,5V*%
X173200000Y-76800000D03*
%TO.N,GND*%
X165907498Y-74558461D03*
%TO.N,6V*%
X164400000Y-73000000D03*
%TO.N,5V*%
X170400000Y-53550000D03*
%TO.N,6V*%
X156854759Y-47253322D03*
%TO.N,GND*%
X138500000Y-51850000D03*
X153100000Y-51850000D03*
%TD*%
D19*
%TO.N,GND*%
X164800000Y-78300000D02*
X162320000Y-80780000D01*
X164800000Y-75511816D02*
X164800000Y-78300000D01*
X165753355Y-74558461D02*
X164800000Y-75511816D01*
X165907498Y-74558461D02*
X165753355Y-74558461D01*
X162320000Y-80780000D02*
X160200001Y-80780000D01*
%TO.N,/Enc_A1_A*%
X178583999Y-71836000D02*
X179300000Y-71119999D01*
X143743999Y-71836000D02*
X178583999Y-71836000D01*
X134799999Y-80780000D02*
X143743999Y-71836000D01*
%TO.N,/Enc_A2_B*%
X175375999Y-102316000D02*
X143636000Y-102316000D01*
X143636000Y-102316000D02*
X134799999Y-93480000D01*
X179300000Y-106240001D02*
X175375999Y-102316000D01*
%TO.N,/Enc_A2_A*%
X179300000Y-103700000D02*
X175376000Y-99776000D01*
X175376000Y-99776000D02*
X143636000Y-99776000D01*
X143636000Y-99776000D02*
X134800000Y-90940000D01*
%TO.N,/Enc_B2_B*%
X136124000Y-89724000D02*
X134800000Y-88400000D01*
X179064000Y-89724000D02*
X136124000Y-89724000D01*
X179300000Y-89960000D02*
X179064000Y-89724000D01*
%TO.N,/Enc_B2_A*%
X136124000Y-87184000D02*
X134800000Y-85860000D01*
X179300000Y-87419999D02*
X179064001Y-87184000D01*
X179064001Y-87184000D02*
X136124000Y-87184000D01*
%TO.N,/Enc_B1_A*%
X155700000Y-54800000D02*
X134800000Y-75700000D01*
X179250000Y-54800000D02*
X155700000Y-54800000D01*
X179300000Y-54750000D02*
X179250000Y-54800000D01*
%TO.N,/Enc_B1_B*%
X155749999Y-57290001D02*
X134800000Y-78240000D01*
X179300000Y-57290001D02*
X155749999Y-57290001D01*
%TO.N,/Enc_A1_B*%
X179300000Y-73660000D02*
X170964000Y-81996000D01*
X136123999Y-81996000D02*
X134799999Y-83320000D01*
X170964000Y-81996000D02*
X136123999Y-81996000D01*
%TD*%
%TA.AperFunction,Conductor*%
%TO.N,GND*%
G36*
X158909435Y-90382425D02*
G01*
X158937157Y-90387223D01*
X158942511Y-90392137D01*
X158949484Y-90394185D01*
X158967903Y-90415442D01*
X158988632Y-90434467D01*
X158990479Y-90441496D01*
X158995239Y-90446989D01*
X158999242Y-90474835D01*
X159006394Y-90502041D01*
X159004624Y-90512264D01*
X159005183Y-90516147D01*
X159000376Y-90536818D01*
X158965661Y-90643656D01*
X158965661Y-90643659D01*
X158934500Y-90840403D01*
X158934500Y-91039596D01*
X158965661Y-91236340D01*
X158965661Y-91236343D01*
X159027213Y-91425780D01*
X159117647Y-91603266D01*
X159234731Y-91764418D01*
X159375582Y-91905269D01*
X159536734Y-92022353D01*
X159670368Y-92090443D01*
X159688173Y-92099515D01*
X159738969Y-92147490D01*
X159755764Y-92215311D01*
X159733227Y-92281446D01*
X159688173Y-92320485D01*
X159536734Y-92397647D01*
X159444791Y-92464447D01*
X159375583Y-92514731D01*
X159375581Y-92514733D01*
X159375580Y-92514733D01*
X159234734Y-92655579D01*
X159234734Y-92655580D01*
X159234732Y-92655582D01*
X159184448Y-92724790D01*
X159117648Y-92816733D01*
X159027214Y-92994219D01*
X158965662Y-93183656D01*
X158965662Y-93183659D01*
X158934501Y-93380403D01*
X158934501Y-93579596D01*
X158965662Y-93776340D01*
X158965662Y-93776343D01*
X159027214Y-93965780D01*
X159117648Y-94143266D01*
X159234732Y-94304418D01*
X159375583Y-94445269D01*
X159536735Y-94562353D01*
X159688173Y-94639514D01*
X159738969Y-94687488D01*
X159755764Y-94755309D01*
X159733227Y-94821444D01*
X159688173Y-94860483D01*
X159536738Y-94937643D01*
X159429299Y-95015703D01*
X159375582Y-95054731D01*
X159375580Y-95054733D01*
X159375579Y-95054733D01*
X159234733Y-95195579D01*
X159234733Y-95195580D01*
X159234731Y-95195582D01*
X159184447Y-95264790D01*
X159117647Y-95356733D01*
X159027213Y-95534219D01*
X158965661Y-95723656D01*
X158965661Y-95723659D01*
X158934500Y-95920403D01*
X158934500Y-96119596D01*
X158965661Y-96316340D01*
X158965661Y-96316343D01*
X159027213Y-96505780D01*
X159027215Y-96505783D01*
X159117647Y-96683266D01*
X159234731Y-96844418D01*
X159375582Y-96985269D01*
X159536734Y-97102353D01*
X159606453Y-97137877D01*
X159688172Y-97179515D01*
X159738968Y-97227490D01*
X159755763Y-97295311D01*
X159733225Y-97361446D01*
X159688172Y-97400485D01*
X159536733Y-97477647D01*
X159444790Y-97544447D01*
X159375582Y-97594731D01*
X159375580Y-97594733D01*
X159375579Y-97594733D01*
X159234733Y-97735579D01*
X159234733Y-97735580D01*
X159234731Y-97735582D01*
X159193964Y-97791693D01*
X159117647Y-97896733D01*
X159027213Y-98074219D01*
X158965661Y-98263656D01*
X158965661Y-98263659D01*
X158934500Y-98460403D01*
X158934500Y-98659596D01*
X158965661Y-98856340D01*
X158965661Y-98856343D01*
X159000376Y-98963182D01*
X159002371Y-99033023D01*
X158966291Y-99092856D01*
X158903590Y-99123684D01*
X158882445Y-99125500D01*
X143956808Y-99125500D01*
X143889769Y-99105815D01*
X143869127Y-99089181D01*
X136434111Y-91654165D01*
X136406006Y-91610864D01*
X136351973Y-91469896D01*
X136030247Y-90630531D01*
X136028103Y-90624471D01*
X135999623Y-90536818D01*
X135997628Y-90466977D01*
X136033708Y-90407144D01*
X136096409Y-90376316D01*
X136117554Y-90374500D01*
X158882445Y-90374500D01*
X158909435Y-90382425D01*
G37*
%TD.AperFunction*%
%TA.AperFunction,Conductor*%
G36*
X158987552Y-82666185D02*
G01*
X159033307Y-82718989D01*
X159043251Y-82788147D01*
X159030996Y-82826798D01*
X159027214Y-82834218D01*
X158965662Y-83023656D01*
X158965662Y-83023659D01*
X158965662Y-83023661D01*
X158934501Y-83220403D01*
X158934501Y-83419597D01*
X158936518Y-83432331D01*
X158965662Y-83616340D01*
X158965662Y-83616343D01*
X159027214Y-83805780D01*
X159027216Y-83805783D01*
X159117648Y-83983266D01*
X159234732Y-84144418D01*
X159375583Y-84285269D01*
X159536735Y-84402353D01*
X159688173Y-84479514D01*
X159738969Y-84527488D01*
X159755764Y-84595309D01*
X159733227Y-84661444D01*
X159688173Y-84700483D01*
X159536738Y-84777643D01*
X159429299Y-84855703D01*
X159375582Y-84894731D01*
X159375580Y-84894733D01*
X159375579Y-84894733D01*
X159234733Y-85035579D01*
X159234733Y-85035580D01*
X159234731Y-85035582D01*
X159184447Y-85104790D01*
X159117647Y-85196733D01*
X159027213Y-85374219D01*
X158965661Y-85563656D01*
X158965661Y-85563659D01*
X158934500Y-85760403D01*
X158934500Y-85959596D01*
X158965661Y-86156340D01*
X158965661Y-86156343D01*
X159027213Y-86345781D01*
X159030995Y-86353202D01*
X159043893Y-86421871D01*
X159017619Y-86486612D01*
X158960514Y-86526871D01*
X158920512Y-86533500D01*
X136492285Y-86533500D01*
X136425246Y-86513815D01*
X136379491Y-86461011D01*
X136376499Y-86453880D01*
X136030248Y-85550533D01*
X136028103Y-85544470D01*
X135972787Y-85374222D01*
X135972785Y-85374216D01*
X135924830Y-85280099D01*
X135882353Y-85196734D01*
X135765269Y-85035582D01*
X135624418Y-84894731D01*
X135463266Y-84777647D01*
X135455624Y-84773753D01*
X135311826Y-84700484D01*
X135261030Y-84652509D01*
X135244235Y-84584688D01*
X135266773Y-84518553D01*
X135311825Y-84479515D01*
X135463265Y-84402353D01*
X135624417Y-84285269D01*
X135765268Y-84144418D01*
X135882352Y-83983266D01*
X135972784Y-83805783D01*
X136028107Y-83635510D01*
X136030236Y-83629493D01*
X136376497Y-82726118D01*
X136418872Y-82670566D01*
X136484554Y-82646741D01*
X136492283Y-82646500D01*
X158920513Y-82646500D01*
X158987552Y-82666185D01*
G37*
%TD.AperFunction*%
%TA.AperFunction,Conductor*%
G36*
X158987551Y-72506185D02*
G01*
X159033306Y-72558989D01*
X159043250Y-72628147D01*
X159030995Y-72666798D01*
X159027213Y-72674218D01*
X158965661Y-72863656D01*
X158965661Y-72863659D01*
X158934500Y-73060403D01*
X158934500Y-73259596D01*
X158965661Y-73456340D01*
X158965661Y-73456343D01*
X159027213Y-73645780D01*
X159088614Y-73766286D01*
X159117647Y-73823266D01*
X159234731Y-73984418D01*
X159375582Y-74125269D01*
X159536734Y-74242353D01*
X159606453Y-74277877D01*
X159688172Y-74319515D01*
X159738968Y-74367490D01*
X159755763Y-74435311D01*
X159733225Y-74501446D01*
X159688172Y-74540485D01*
X159536733Y-74617647D01*
X159444790Y-74684447D01*
X159375582Y-74734731D01*
X159375580Y-74734733D01*
X159375579Y-74734733D01*
X159234733Y-74875579D01*
X159234733Y-74875580D01*
X159234731Y-74875582D01*
X159195194Y-74930000D01*
X159117647Y-75036733D01*
X159027213Y-75214219D01*
X158965661Y-75403656D01*
X158965661Y-75403659D01*
X158934500Y-75600403D01*
X158934500Y-75799596D01*
X158965661Y-75996340D01*
X158965661Y-75996343D01*
X159027213Y-76185780D01*
X159049646Y-76229807D01*
X159117647Y-76363266D01*
X159234731Y-76524418D01*
X159375582Y-76665269D01*
X159536734Y-76782353D01*
X159606453Y-76817877D01*
X159688172Y-76859515D01*
X159738968Y-76907490D01*
X159755763Y-76975311D01*
X159733225Y-77041446D01*
X159688172Y-77080485D01*
X159536733Y-77157647D01*
X159444790Y-77224447D01*
X159375582Y-77274731D01*
X159375580Y-77274733D01*
X159375579Y-77274733D01*
X159234733Y-77415579D01*
X159234733Y-77415580D01*
X159234731Y-77415582D01*
X159195194Y-77470000D01*
X159117647Y-77576733D01*
X159027213Y-77754219D01*
X158965661Y-77943656D01*
X158965661Y-77943659D01*
X158934500Y-78140403D01*
X158934500Y-78339596D01*
X158965661Y-78536340D01*
X158965661Y-78536343D01*
X159027213Y-78725780D01*
X159027215Y-78725783D01*
X159117647Y-78903266D01*
X159234731Y-79064418D01*
X159375582Y-79205269D01*
X159536734Y-79322353D01*
X159688721Y-79399794D01*
X159688723Y-79399795D01*
X159739519Y-79447769D01*
X159756314Y-79515590D01*
X159733777Y-79581725D01*
X159688724Y-79620764D01*
X159536994Y-79698075D01*
X159499136Y-79725580D01*
X159499136Y-79725581D01*
X160062426Y-80288871D01*
X160003148Y-80304755D01*
X159886854Y-80371898D01*
X159791899Y-80466853D01*
X159724756Y-80583147D01*
X159708872Y-80642425D01*
X159145582Y-80079135D01*
X159145581Y-80079135D01*
X159118078Y-80116990D01*
X159027680Y-80294405D01*
X158966148Y-80483777D01*
X158935001Y-80680436D01*
X158935001Y-80879563D01*
X158966149Y-81076223D01*
X159000902Y-81183182D01*
X159002897Y-81253023D01*
X158966817Y-81312856D01*
X158904116Y-81343684D01*
X158882971Y-81345500D01*
X136117553Y-81345500D01*
X136090564Y-81337575D01*
X136062843Y-81332778D01*
X136057486Y-81327862D01*
X136050514Y-81325815D01*
X136032097Y-81304561D01*
X136011366Y-81285535D01*
X136009517Y-81278502D01*
X136004759Y-81273011D01*
X136000755Y-81245168D01*
X135993604Y-81217961D01*
X135995373Y-81207736D01*
X135994815Y-81203853D01*
X135999622Y-81183183D01*
X136028102Y-81095527D01*
X136030240Y-81089481D01*
X136406005Y-80109132D01*
X136434107Y-80065836D01*
X143977126Y-72522819D01*
X144038449Y-72489334D01*
X144064807Y-72486500D01*
X158920512Y-72486500D01*
X158987551Y-72506185D01*
G37*
%TD.AperFunction*%
%TA.AperFunction,Conductor*%
G36*
X163519465Y-72506185D02*
G01*
X163565220Y-72558989D01*
X163575164Y-72628147D01*
X163566987Y-72657952D01*
X163534106Y-72737332D01*
X163534103Y-72737341D01*
X163499500Y-72911304D01*
X163499500Y-73088695D01*
X163534103Y-73262658D01*
X163534106Y-73262667D01*
X163601983Y-73426540D01*
X163601990Y-73426553D01*
X163700535Y-73574034D01*
X163700538Y-73574038D01*
X163825961Y-73699461D01*
X163825965Y-73699464D01*
X163973446Y-73798009D01*
X163973459Y-73798016D01*
X164096363Y-73848923D01*
X164137334Y-73865894D01*
X164137336Y-73865894D01*
X164137341Y-73865896D01*
X164311304Y-73900499D01*
X164311307Y-73900500D01*
X164311309Y-73900500D01*
X164488693Y-73900500D01*
X164488694Y-73900499D01*
X164546682Y-73888964D01*
X164662658Y-73865896D01*
X164662661Y-73865894D01*
X164662666Y-73865894D01*
X164826547Y-73798013D01*
X164974035Y-73699464D01*
X165099464Y-73574035D01*
X165198013Y-73426547D01*
X165265894Y-73262666D01*
X165266505Y-73259597D01*
X165300499Y-73088695D01*
X165300500Y-73088693D01*
X165300500Y-72911306D01*
X165300499Y-72911304D01*
X165265896Y-72737341D01*
X165265893Y-72737332D01*
X165233013Y-72657952D01*
X165225544Y-72588483D01*
X165256819Y-72526004D01*
X165316908Y-72490352D01*
X165347574Y-72486500D01*
X177889945Y-72486500D01*
X177905030Y-72487421D01*
X177910170Y-72488050D01*
X177935377Y-72491141D01*
X178156976Y-72486526D01*
X178159557Y-72486500D01*
X178264242Y-72486500D01*
X178331281Y-72506185D01*
X178377036Y-72558989D01*
X178386980Y-72628147D01*
X178357955Y-72691703D01*
X178351923Y-72698181D01*
X178269894Y-72780209D01*
X178269890Y-72780213D01*
X178144951Y-72952179D01*
X178048444Y-73141583D01*
X177981858Y-73346514D01*
X177980212Y-73351250D01*
X177573017Y-74451013D01*
X177544413Y-74495639D01*
X170730873Y-81309181D01*
X170669550Y-81342666D01*
X170643192Y-81345500D01*
X161517031Y-81345500D01*
X161449992Y-81325815D01*
X161404237Y-81273011D01*
X161394293Y-81203853D01*
X161399100Y-81183182D01*
X161433852Y-81076223D01*
X161465001Y-80879563D01*
X161465001Y-80680436D01*
X161433853Y-80483777D01*
X161372321Y-80294405D01*
X161281925Y-80116994D01*
X161254418Y-80079135D01*
X161254418Y-80079134D01*
X160691128Y-80642423D01*
X160675246Y-80583147D01*
X160608103Y-80466853D01*
X160513148Y-80371898D01*
X160396854Y-80304755D01*
X160337575Y-80288871D01*
X160900865Y-79725581D01*
X160900864Y-79725580D01*
X160863007Y-79698075D01*
X160711276Y-79620763D01*
X160660481Y-79572789D01*
X160643686Y-79504968D01*
X160666224Y-79438833D01*
X160711276Y-79399795D01*
X160863266Y-79322353D01*
X161024418Y-79205269D01*
X161165269Y-79064418D01*
X161282353Y-78903266D01*
X161372785Y-78725783D01*
X161434339Y-78536339D01*
X161465500Y-78339597D01*
X161465500Y-78140403D01*
X161434339Y-77943661D01*
X161434338Y-77943657D01*
X161434338Y-77943656D01*
X161372786Y-77754219D01*
X161327782Y-77665894D01*
X161282353Y-77576734D01*
X161165269Y-77415582D01*
X161024418Y-77274731D01*
X160863266Y-77157647D01*
X160711827Y-77080485D01*
X160661031Y-77032510D01*
X160644236Y-76964689D01*
X160666773Y-76898554D01*
X160711827Y-76859515D01*
X160721116Y-76854781D01*
X160863266Y-76782353D01*
X160961056Y-76711304D01*
X172299500Y-76711304D01*
X172299500Y-76888695D01*
X172334103Y-77062658D01*
X172334106Y-77062667D01*
X172401983Y-77226540D01*
X172401990Y-77226553D01*
X172500535Y-77374034D01*
X172500538Y-77374038D01*
X172625961Y-77499461D01*
X172625965Y-77499464D01*
X172773446Y-77598009D01*
X172773459Y-77598016D01*
X172896363Y-77648923D01*
X172937334Y-77665894D01*
X172937336Y-77665894D01*
X172937341Y-77665896D01*
X173111304Y-77700499D01*
X173111307Y-77700500D01*
X173111309Y-77700500D01*
X173288693Y-77700500D01*
X173288694Y-77700499D01*
X173346682Y-77688964D01*
X173462658Y-77665896D01*
X173462661Y-77665894D01*
X173462666Y-77665894D01*
X173626547Y-77598013D01*
X173774035Y-77499464D01*
X173899464Y-77374035D01*
X173998013Y-77226547D01*
X174065894Y-77062666D01*
X174071893Y-77032510D01*
X174096696Y-76907816D01*
X174100500Y-76888691D01*
X174100500Y-76711309D01*
X174100500Y-76711306D01*
X174100499Y-76711304D01*
X174065896Y-76537341D01*
X174065893Y-76537332D01*
X173998016Y-76373459D01*
X173998009Y-76373446D01*
X173899464Y-76225965D01*
X173899461Y-76225961D01*
X173774038Y-76100538D01*
X173774034Y-76100535D01*
X173626553Y-76001990D01*
X173626540Y-76001983D01*
X173462667Y-75934106D01*
X173462658Y-75934103D01*
X173288694Y-75899500D01*
X173288691Y-75899500D01*
X173111309Y-75899500D01*
X173111306Y-75899500D01*
X172937341Y-75934103D01*
X172937332Y-75934106D01*
X172773459Y-76001983D01*
X172773446Y-76001990D01*
X172625965Y-76100535D01*
X172625961Y-76100538D01*
X172500538Y-76225961D01*
X172500535Y-76225965D01*
X172401990Y-76373446D01*
X172401983Y-76373459D01*
X172334106Y-76537332D01*
X172334103Y-76537341D01*
X172299500Y-76711304D01*
X160961056Y-76711304D01*
X161024418Y-76665269D01*
X161165269Y-76524418D01*
X161282353Y-76363266D01*
X161372785Y-76185783D01*
X161400483Y-76100538D01*
X161434338Y-75996343D01*
X161434338Y-75996342D01*
X161434339Y-75996339D01*
X161465500Y-75799597D01*
X161465500Y-75600403D01*
X161434339Y-75403661D01*
X161434338Y-75403657D01*
X161434338Y-75403656D01*
X161372786Y-75214219D01*
X161350199Y-75169890D01*
X161282353Y-75036734D01*
X161165269Y-74875582D01*
X161024418Y-74734731D01*
X160863266Y-74617647D01*
X160711827Y-74540485D01*
X160661031Y-74492510D01*
X160644236Y-74424689D01*
X160666773Y-74358554D01*
X160711827Y-74319515D01*
X160721116Y-74314781D01*
X160863266Y-74242353D01*
X161024418Y-74125269D01*
X161165269Y-73984418D01*
X161282353Y-73823266D01*
X161372785Y-73645783D01*
X161434339Y-73456339D01*
X161465500Y-73259597D01*
X161465500Y-73060403D01*
X161434339Y-72863661D01*
X161434338Y-72863657D01*
X161434338Y-72863656D01*
X161372786Y-72674218D01*
X161369005Y-72666798D01*
X161356107Y-72598129D01*
X161382381Y-72533388D01*
X161439486Y-72493129D01*
X161479488Y-72486500D01*
X163452426Y-72486500D01*
X163519465Y-72506185D01*
G37*
%TD.AperFunction*%
%TA.AperFunction,Conductor*%
G36*
X177502702Y-43000617D02*
G01*
X177886771Y-43017386D01*
X177897506Y-43018326D01*
X178275971Y-43068152D01*
X178286597Y-43070025D01*
X178659284Y-43152648D01*
X178669710Y-43155442D01*
X179033765Y-43270227D01*
X179043911Y-43273920D01*
X179396578Y-43420000D01*
X179406369Y-43424566D01*
X179744942Y-43600816D01*
X179754310Y-43606224D01*
X180076244Y-43811318D01*
X180085105Y-43817523D01*
X180387930Y-44049889D01*
X180396217Y-44056843D01*
X180677635Y-44314715D01*
X180685284Y-44322364D01*
X180943156Y-44603782D01*
X180950110Y-44612069D01*
X181182476Y-44914894D01*
X181188681Y-44923755D01*
X181393775Y-45245689D01*
X181399183Y-45255057D01*
X181575430Y-45593623D01*
X181580002Y-45603427D01*
X181726075Y-45956078D01*
X181729775Y-45966244D01*
X181844554Y-46330278D01*
X181847354Y-46340727D01*
X181929971Y-46713389D01*
X181931849Y-46724042D01*
X181981671Y-47102473D01*
X181982614Y-47113249D01*
X181999382Y-47497297D01*
X181999500Y-47502706D01*
X181999500Y-109997293D01*
X181999382Y-110002702D01*
X181982614Y-110386750D01*
X181981671Y-110397526D01*
X181931849Y-110775957D01*
X181929971Y-110786610D01*
X181847354Y-111159272D01*
X181844554Y-111169721D01*
X181729775Y-111533755D01*
X181726075Y-111543921D01*
X181580002Y-111896572D01*
X181575430Y-111906376D01*
X181399183Y-112244942D01*
X181393775Y-112254310D01*
X181188681Y-112576244D01*
X181182476Y-112585105D01*
X180950110Y-112887930D01*
X180943156Y-112896217D01*
X180685284Y-113177635D01*
X180677635Y-113185284D01*
X180396217Y-113443156D01*
X180387930Y-113450110D01*
X180085105Y-113682476D01*
X180076244Y-113688681D01*
X179754310Y-113893775D01*
X179744942Y-113899183D01*
X179406376Y-114075430D01*
X179396572Y-114080002D01*
X179043921Y-114226075D01*
X179033755Y-114229775D01*
X178669721Y-114344554D01*
X178659272Y-114347354D01*
X178286610Y-114429971D01*
X178275957Y-114431849D01*
X177897526Y-114481671D01*
X177886750Y-114482614D01*
X177502703Y-114499382D01*
X177497294Y-114499500D01*
X131002706Y-114499500D01*
X130997297Y-114499382D01*
X130613249Y-114482614D01*
X130602473Y-114481671D01*
X130224042Y-114431849D01*
X130213389Y-114429971D01*
X129840727Y-114347354D01*
X129830278Y-114344554D01*
X129466244Y-114229775D01*
X129456078Y-114226075D01*
X129103427Y-114080002D01*
X129093623Y-114075430D01*
X128755057Y-113899183D01*
X128745689Y-113893775D01*
X128423755Y-113688681D01*
X128414894Y-113682476D01*
X128112069Y-113450110D01*
X128103782Y-113443156D01*
X127822364Y-113185284D01*
X127814715Y-113177635D01*
X127733487Y-113088990D01*
X127662301Y-113011304D01*
X171999500Y-113011304D01*
X171999500Y-113188695D01*
X172034103Y-113362658D01*
X172034106Y-113362667D01*
X172101983Y-113526540D01*
X172101990Y-113526553D01*
X172200535Y-113674034D01*
X172200538Y-113674038D01*
X172325961Y-113799461D01*
X172325965Y-113799464D01*
X172473446Y-113898009D01*
X172473459Y-113898016D01*
X172596363Y-113948923D01*
X172637334Y-113965894D01*
X172637336Y-113965894D01*
X172637341Y-113965896D01*
X172811304Y-114000499D01*
X172811307Y-114000500D01*
X172811309Y-114000500D01*
X172988693Y-114000500D01*
X172988694Y-114000499D01*
X173046682Y-113988964D01*
X173162658Y-113965896D01*
X173162661Y-113965894D01*
X173162666Y-113965894D01*
X173302535Y-113907958D01*
X173326540Y-113898016D01*
X173326540Y-113898015D01*
X173326547Y-113898013D01*
X173474035Y-113799464D01*
X173599464Y-113674035D01*
X173698013Y-113526547D01*
X173765894Y-113362666D01*
X173800500Y-113188691D01*
X173800500Y-113011309D01*
X173800500Y-113011306D01*
X173800499Y-113011304D01*
X173765896Y-112837341D01*
X173765893Y-112837332D01*
X173757898Y-112818031D01*
X173748923Y-112796363D01*
X173698016Y-112673459D01*
X173698009Y-112673446D01*
X173599464Y-112525965D01*
X173599461Y-112525961D01*
X173474038Y-112400538D01*
X173474034Y-112400535D01*
X173326553Y-112301990D01*
X173326540Y-112301983D01*
X173162667Y-112234106D01*
X173162658Y-112234103D01*
X172988694Y-112199500D01*
X172988691Y-112199500D01*
X172811309Y-112199500D01*
X172811306Y-112199500D01*
X172637341Y-112234103D01*
X172637332Y-112234106D01*
X172473459Y-112301983D01*
X172473446Y-112301990D01*
X172325965Y-112400535D01*
X172325961Y-112400538D01*
X172200538Y-112525961D01*
X172200535Y-112525965D01*
X172101990Y-112673446D01*
X172101983Y-112673459D01*
X172034106Y-112837332D01*
X172034103Y-112837341D01*
X171999500Y-113011304D01*
X127662301Y-113011304D01*
X127556843Y-112896217D01*
X127549889Y-112887930D01*
X127317523Y-112585105D01*
X127311318Y-112576244D01*
X127106224Y-112254310D01*
X127100816Y-112244942D01*
X126987790Y-112027821D01*
X126924566Y-111906369D01*
X126919997Y-111896572D01*
X126857537Y-111745780D01*
X126773920Y-111543911D01*
X126770224Y-111533755D01*
X126736340Y-111426287D01*
X126655442Y-111169710D01*
X126652648Y-111159284D01*
X126570025Y-110786597D01*
X126568152Y-110775971D01*
X126518326Y-110397506D01*
X126517386Y-110386771D01*
X126500618Y-110002702D01*
X126500500Y-109997293D01*
X126500500Y-70520403D01*
X133534499Y-70520403D01*
X133534499Y-70719596D01*
X133565660Y-70916340D01*
X133565660Y-70916343D01*
X133627212Y-71105780D01*
X133662353Y-71174747D01*
X133717646Y-71283266D01*
X133834730Y-71444418D01*
X133975581Y-71585269D01*
X134136733Y-71702353D01*
X134270367Y-71770443D01*
X134288172Y-71779515D01*
X134338968Y-71827490D01*
X134355763Y-71895311D01*
X134333226Y-71961446D01*
X134288172Y-72000485D01*
X134136733Y-72077647D01*
X134044790Y-72144447D01*
X133975582Y-72194731D01*
X133975580Y-72194733D01*
X133975579Y-72194733D01*
X133834733Y-72335579D01*
X133834733Y-72335580D01*
X133834731Y-72335582D01*
X133799054Y-72384687D01*
X133717647Y-72496733D01*
X133627213Y-72674219D01*
X133565661Y-72863656D01*
X133565661Y-72863659D01*
X133534500Y-73060403D01*
X133534500Y-73259596D01*
X133565661Y-73456340D01*
X133565661Y-73456343D01*
X133627213Y-73645780D01*
X133688614Y-73766286D01*
X133717647Y-73823266D01*
X133834731Y-73984418D01*
X133975582Y-74125269D01*
X134136734Y-74242353D01*
X134206453Y-74277877D01*
X134288172Y-74319515D01*
X134338968Y-74367490D01*
X134355763Y-74435311D01*
X134333225Y-74501446D01*
X134288172Y-74540485D01*
X134136733Y-74617647D01*
X134044790Y-74684447D01*
X133975582Y-74734731D01*
X133975580Y-74734733D01*
X133975579Y-74734733D01*
X133834733Y-74875579D01*
X133834733Y-74875580D01*
X133834731Y-74875582D01*
X133795194Y-74930000D01*
X133717647Y-75036733D01*
X133627213Y-75214219D01*
X133565661Y-75403656D01*
X133565661Y-75403659D01*
X133534500Y-75600403D01*
X133534500Y-75799596D01*
X133565661Y-75996340D01*
X133565661Y-75996343D01*
X133627213Y-76185780D01*
X133649646Y-76229807D01*
X133717647Y-76363266D01*
X133834731Y-76524418D01*
X133975582Y-76665269D01*
X134136734Y-76782353D01*
X134206453Y-76817877D01*
X134288172Y-76859515D01*
X134338968Y-76907490D01*
X134355763Y-76975311D01*
X134333225Y-77041446D01*
X134288172Y-77080485D01*
X134136733Y-77157647D01*
X134044790Y-77224447D01*
X133975582Y-77274731D01*
X133975580Y-77274733D01*
X133975579Y-77274733D01*
X133834733Y-77415579D01*
X133834733Y-77415580D01*
X133834731Y-77415582D01*
X133795194Y-77470000D01*
X133717647Y-77576733D01*
X133627213Y-77754219D01*
X133565661Y-77943656D01*
X133565661Y-77943659D01*
X133534500Y-78140403D01*
X133534500Y-78339596D01*
X133565661Y-78536340D01*
X133565661Y-78536343D01*
X133627213Y-78725780D01*
X133627215Y-78725783D01*
X133717647Y-78903266D01*
X133834731Y-79064418D01*
X133975582Y-79205269D01*
X134136734Y-79322353D01*
X134288172Y-79399514D01*
X134338968Y-79447488D01*
X134355763Y-79515309D01*
X134333226Y-79581444D01*
X134288172Y-79620483D01*
X134136737Y-79697643D01*
X134037005Y-79770104D01*
X133975581Y-79814731D01*
X133975579Y-79814733D01*
X133975578Y-79814733D01*
X133834732Y-79955579D01*
X133834732Y-79955580D01*
X133834730Y-79955582D01*
X133808594Y-79991555D01*
X133717646Y-80116733D01*
X133627212Y-80294219D01*
X133565660Y-80483656D01*
X133565660Y-80483659D01*
X133534499Y-80680403D01*
X133534499Y-80879596D01*
X133565660Y-81076340D01*
X133565660Y-81076343D01*
X133627212Y-81265780D01*
X133686692Y-81382516D01*
X133717646Y-81443266D01*
X133834730Y-81604418D01*
X133975581Y-81745269D01*
X134136733Y-81862353D01*
X134206452Y-81897877D01*
X134288171Y-81939515D01*
X134338967Y-81987490D01*
X134355762Y-82055311D01*
X134333224Y-82121446D01*
X134288171Y-82160485D01*
X134136732Y-82237647D01*
X134044789Y-82304447D01*
X133975581Y-82354731D01*
X133975579Y-82354733D01*
X133975578Y-82354733D01*
X133834732Y-82495579D01*
X133834732Y-82495580D01*
X133834730Y-82495582D01*
X133784446Y-82564790D01*
X133717646Y-82656733D01*
X133627212Y-82834219D01*
X133565660Y-83023656D01*
X133565660Y-83023659D01*
X133565660Y-83023661D01*
X133534499Y-83220403D01*
X133534499Y-83419597D01*
X133536516Y-83432331D01*
X133565660Y-83616340D01*
X133565660Y-83616343D01*
X133627212Y-83805780D01*
X133627214Y-83805783D01*
X133717646Y-83983266D01*
X133834730Y-84144418D01*
X133975581Y-84285269D01*
X134136733Y-84402353D01*
X134270367Y-84470443D01*
X134288172Y-84479515D01*
X134338968Y-84527490D01*
X134355763Y-84595311D01*
X134333226Y-84661446D01*
X134288172Y-84700485D01*
X134136733Y-84777647D01*
X134086459Y-84814174D01*
X133975582Y-84894731D01*
X133975580Y-84894733D01*
X133975579Y-84894733D01*
X133834733Y-85035579D01*
X133834733Y-85035580D01*
X133834731Y-85035582D01*
X133784447Y-85104790D01*
X133717647Y-85196733D01*
X133627213Y-85374219D01*
X133565661Y-85563656D01*
X133565661Y-85563659D01*
X133534500Y-85760403D01*
X133534500Y-85959596D01*
X133565661Y-86156340D01*
X133565661Y-86156343D01*
X133627213Y-86345780D01*
X133698971Y-86486612D01*
X133717647Y-86523266D01*
X133834731Y-86684418D01*
X133975582Y-86825269D01*
X134136734Y-86942353D01*
X134206453Y-86977877D01*
X134288172Y-87019515D01*
X134338968Y-87067490D01*
X134355763Y-87135311D01*
X134333225Y-87201446D01*
X134288172Y-87240485D01*
X134136733Y-87317647D01*
X134044790Y-87384447D01*
X133975582Y-87434731D01*
X133975580Y-87434733D01*
X133975579Y-87434733D01*
X133834733Y-87575579D01*
X133834733Y-87575580D01*
X133834731Y-87575582D01*
X133784447Y-87644790D01*
X133717647Y-87736733D01*
X133627213Y-87914219D01*
X133565661Y-88103656D01*
X133565661Y-88103659D01*
X133534500Y-88300403D01*
X133534500Y-88499596D01*
X133565661Y-88696340D01*
X133565661Y-88696343D01*
X133627213Y-88885780D01*
X133698971Y-89026612D01*
X133717647Y-89063266D01*
X133834731Y-89224418D01*
X133975582Y-89365269D01*
X134136734Y-89482353D01*
X134206453Y-89517877D01*
X134288172Y-89559515D01*
X134338968Y-89607490D01*
X134355763Y-89675311D01*
X134333225Y-89741446D01*
X134288172Y-89780485D01*
X134136733Y-89857647D01*
X134044790Y-89924447D01*
X133975582Y-89974731D01*
X133975580Y-89974733D01*
X133975579Y-89974733D01*
X133834733Y-90115579D01*
X133834733Y-90115580D01*
X133834731Y-90115582D01*
X133784447Y-90184790D01*
X133717647Y-90276733D01*
X133627213Y-90454219D01*
X133565661Y-90643656D01*
X133565661Y-90643659D01*
X133534500Y-90840403D01*
X133534500Y-91039596D01*
X133565661Y-91236340D01*
X133565661Y-91236343D01*
X133627213Y-91425780D01*
X133717647Y-91603266D01*
X133834731Y-91764418D01*
X133975582Y-91905269D01*
X134136734Y-92022353D01*
X134288172Y-92099514D01*
X134338968Y-92147488D01*
X134355763Y-92215309D01*
X134333226Y-92281444D01*
X134288172Y-92320483D01*
X134136737Y-92397643D01*
X134029298Y-92475703D01*
X133975581Y-92514731D01*
X133975579Y-92514733D01*
X133975578Y-92514733D01*
X133834732Y-92655579D01*
X133834732Y-92655580D01*
X133834730Y-92655582D01*
X133784446Y-92724790D01*
X133717646Y-92816733D01*
X133627212Y-92994219D01*
X133565660Y-93183656D01*
X133565660Y-93183659D01*
X133534499Y-93380403D01*
X133534499Y-93579596D01*
X133565660Y-93776340D01*
X133565660Y-93776343D01*
X133627212Y-93965780D01*
X133717646Y-94143266D01*
X133834730Y-94304418D01*
X133975581Y-94445269D01*
X134136733Y-94562353D01*
X134270367Y-94630443D01*
X134288172Y-94639515D01*
X134338968Y-94687490D01*
X134355763Y-94755311D01*
X134333226Y-94821446D01*
X134288172Y-94860485D01*
X134136733Y-94937647D01*
X134044790Y-95004447D01*
X133975582Y-95054731D01*
X133975580Y-95054733D01*
X133975579Y-95054733D01*
X133834733Y-95195579D01*
X133834733Y-95195580D01*
X133834731Y-95195582D01*
X133784447Y-95264790D01*
X133717647Y-95356733D01*
X133627213Y-95534219D01*
X133565661Y-95723656D01*
X133565661Y-95723659D01*
X133534500Y-95920403D01*
X133534500Y-96119596D01*
X133565661Y-96316340D01*
X133565661Y-96316343D01*
X133627213Y-96505780D01*
X133627215Y-96505783D01*
X133717647Y-96683266D01*
X133834731Y-96844418D01*
X133975582Y-96985269D01*
X134136734Y-97102353D01*
X134226909Y-97148299D01*
X134288722Y-97179795D01*
X134339518Y-97227770D01*
X134356313Y-97295591D01*
X134333776Y-97361726D01*
X134288723Y-97400764D01*
X134136993Y-97478075D01*
X134099135Y-97505580D01*
X134099135Y-97505581D01*
X134662425Y-98068871D01*
X134603147Y-98084755D01*
X134486853Y-98151898D01*
X134391898Y-98246853D01*
X134324755Y-98363147D01*
X134308871Y-98422425D01*
X133745581Y-97859135D01*
X133745580Y-97859135D01*
X133718077Y-97896990D01*
X133627679Y-98074405D01*
X133566147Y-98263777D01*
X133535000Y-98460436D01*
X133535000Y-98659563D01*
X133566147Y-98856222D01*
X133627679Y-99045594D01*
X133718077Y-99223008D01*
X133745580Y-99260863D01*
X133745581Y-99260864D01*
X134308871Y-98697574D01*
X134324755Y-98756853D01*
X134391898Y-98873147D01*
X134486853Y-98968102D01*
X134603147Y-99035245D01*
X134662425Y-99051128D01*
X134099134Y-99614417D01*
X134136994Y-99641924D01*
X134288722Y-99719234D01*
X134339518Y-99767209D01*
X134356313Y-99835030D01*
X134333776Y-99901165D01*
X134288723Y-99940203D01*
X134136735Y-100017645D01*
X134023997Y-100099555D01*
X133975582Y-100134731D01*
X133975580Y-100134733D01*
X133975579Y-100134733D01*
X133834733Y-100275579D01*
X133834733Y-100275580D01*
X133834731Y-100275582D01*
X133784447Y-100344790D01*
X133717647Y-100436733D01*
X133627213Y-100614219D01*
X133565661Y-100803656D01*
X133565661Y-100803659D01*
X133559292Y-100843870D01*
X133534500Y-101000403D01*
X133534500Y-101199597D01*
X133541451Y-101243485D01*
X133565661Y-101396340D01*
X133565661Y-101396343D01*
X133627213Y-101585780D01*
X133665031Y-101660001D01*
X133717647Y-101763266D01*
X133834731Y-101924418D01*
X133975582Y-102065269D01*
X134136734Y-102182353D01*
X134288172Y-102259514D01*
X134338968Y-102307488D01*
X134355763Y-102375309D01*
X134333226Y-102441444D01*
X134288172Y-102480483D01*
X134136737Y-102557643D01*
X134029298Y-102635703D01*
X133975581Y-102674731D01*
X133975579Y-102674733D01*
X133975578Y-102674733D01*
X133834732Y-102815579D01*
X133834732Y-102815580D01*
X133834730Y-102815582D01*
X133785353Y-102883543D01*
X133717646Y-102976733D01*
X133627212Y-103154219D01*
X133565660Y-103343656D01*
X133565660Y-103343659D01*
X133534499Y-103540403D01*
X133534499Y-103739596D01*
X133565660Y-103936340D01*
X133565660Y-103936343D01*
X133627212Y-104125780D01*
X133627214Y-104125783D01*
X133717646Y-104303266D01*
X133834730Y-104464418D01*
X133975581Y-104605269D01*
X134136733Y-104722353D01*
X134288174Y-104799515D01*
X134338969Y-104847489D01*
X134355764Y-104915310D01*
X134333227Y-104981445D01*
X134288173Y-105020484D01*
X134136738Y-105097644D01*
X134029299Y-105175704D01*
X133975582Y-105214732D01*
X133975580Y-105214734D01*
X133975579Y-105214734D01*
X133834733Y-105355580D01*
X133834733Y-105355581D01*
X133834731Y-105355583D01*
X133785354Y-105423544D01*
X133717647Y-105516734D01*
X133627213Y-105694220D01*
X133565661Y-105883657D01*
X133565661Y-105883660D01*
X133534500Y-106080404D01*
X133534500Y-106279597D01*
X133565661Y-106476341D01*
X133565661Y-106476344D01*
X133627213Y-106665781D01*
X133627215Y-106665784D01*
X133717647Y-106843267D01*
X133834731Y-107004419D01*
X133975582Y-107145270D01*
X134136734Y-107262354D01*
X134265938Y-107328186D01*
X134288171Y-107339515D01*
X134338967Y-107387490D01*
X134355762Y-107455311D01*
X134333225Y-107521446D01*
X134288171Y-107560484D01*
X134136738Y-107637643D01*
X134029299Y-107715703D01*
X133975582Y-107754731D01*
X133975580Y-107754733D01*
X133975579Y-107754733D01*
X133834733Y-107895579D01*
X133834733Y-107895580D01*
X133834731Y-107895582D01*
X133823307Y-107911306D01*
X133717647Y-108056733D01*
X133627213Y-108234219D01*
X133565661Y-108423656D01*
X133565661Y-108423659D01*
X133534500Y-108620403D01*
X133534500Y-108819596D01*
X133565661Y-109016340D01*
X133565661Y-109016343D01*
X133627213Y-109205780D01*
X133627215Y-109205783D01*
X133717647Y-109383266D01*
X133834731Y-109544418D01*
X133975582Y-109685269D01*
X134136734Y-109802353D01*
X134206453Y-109837877D01*
X134288172Y-109879515D01*
X134338968Y-109927490D01*
X134355763Y-109995311D01*
X134333225Y-110061446D01*
X134288172Y-110100485D01*
X134136733Y-110177647D01*
X134044790Y-110244447D01*
X133975582Y-110294731D01*
X133975580Y-110294733D01*
X133975579Y-110294733D01*
X133834733Y-110435579D01*
X133834733Y-110435580D01*
X133834731Y-110435582D01*
X133831366Y-110440214D01*
X133717647Y-110596733D01*
X133627213Y-110774219D01*
X133565661Y-110963656D01*
X133565661Y-110963659D01*
X133534500Y-111160403D01*
X133534500Y-111359596D01*
X133565661Y-111556340D01*
X133565661Y-111556343D01*
X133627213Y-111745780D01*
X133627215Y-111745783D01*
X133717647Y-111923266D01*
X133834731Y-112084418D01*
X133975582Y-112225269D01*
X134136734Y-112342353D01*
X134250923Y-112400535D01*
X134314219Y-112432786D01*
X134503657Y-112494338D01*
X134503658Y-112494338D01*
X134503661Y-112494339D01*
X134700403Y-112525500D01*
X134700404Y-112525500D01*
X134899596Y-112525500D01*
X134899597Y-112525500D01*
X135096339Y-112494339D01*
X135096342Y-112494338D01*
X135096343Y-112494338D01*
X135285780Y-112432786D01*
X135285780Y-112432785D01*
X135285783Y-112432785D01*
X135463266Y-112342353D01*
X135624418Y-112225269D01*
X135765269Y-112084418D01*
X135882353Y-111923266D01*
X135972785Y-111745783D01*
X135972786Y-111745780D01*
X136034338Y-111556343D01*
X136034338Y-111556342D01*
X136034339Y-111556339D01*
X136065500Y-111359597D01*
X136065500Y-111160403D01*
X136034339Y-110963661D01*
X136034338Y-110963657D01*
X136034338Y-110963656D01*
X135972786Y-110774219D01*
X135972785Y-110774217D01*
X135882353Y-110596734D01*
X135765269Y-110435582D01*
X135624418Y-110294731D01*
X135463266Y-110177647D01*
X135311827Y-110100485D01*
X135261031Y-110052510D01*
X135244236Y-109984689D01*
X135266773Y-109918554D01*
X135311827Y-109879515D01*
X135321116Y-109874781D01*
X135463266Y-109802353D01*
X135624418Y-109685269D01*
X135765269Y-109544418D01*
X135882353Y-109383266D01*
X135972785Y-109205783D01*
X135972786Y-109205780D01*
X136034338Y-109016343D01*
X136034338Y-109016342D01*
X136034339Y-109016339D01*
X136065500Y-108819597D01*
X136065500Y-108620403D01*
X136034339Y-108423661D01*
X136034338Y-108423657D01*
X136034338Y-108423656D01*
X135972786Y-108234219D01*
X135898638Y-108088695D01*
X135882353Y-108056734D01*
X135765269Y-107895582D01*
X135624418Y-107754731D01*
X135463266Y-107637647D01*
X135429584Y-107620485D01*
X135311828Y-107560485D01*
X135261032Y-107512510D01*
X135244237Y-107444689D01*
X135266775Y-107378554D01*
X135311826Y-107339516D01*
X135463266Y-107262354D01*
X135624418Y-107145270D01*
X135765269Y-107004419D01*
X135882353Y-106843267D01*
X135972785Y-106665784D01*
X136009282Y-106553459D01*
X136034338Y-106476344D01*
X136034338Y-106476343D01*
X136034339Y-106476340D01*
X136065500Y-106279598D01*
X136065500Y-106080404D01*
X136034339Y-105883662D01*
X136034338Y-105883658D01*
X136034338Y-105883657D01*
X135972786Y-105694220D01*
X135890225Y-105532185D01*
X135882353Y-105516735D01*
X135765269Y-105355583D01*
X135624418Y-105214732D01*
X135463266Y-105097648D01*
X135311825Y-105020485D01*
X135261029Y-104972510D01*
X135244234Y-104904689D01*
X135266771Y-104838554D01*
X135311823Y-104799516D01*
X135463265Y-104722353D01*
X135624417Y-104605269D01*
X135765268Y-104464418D01*
X135882352Y-104303266D01*
X135972784Y-104125783D01*
X136034338Y-103936339D01*
X136065499Y-103739597D01*
X136065499Y-103540403D01*
X136034338Y-103343661D01*
X136034337Y-103343657D01*
X136034337Y-103343656D01*
X135972785Y-103154219D01*
X135890224Y-102992184D01*
X135882352Y-102976734D01*
X135765268Y-102815582D01*
X135624417Y-102674731D01*
X135463265Y-102557647D01*
X135311826Y-102480485D01*
X135261030Y-102432510D01*
X135244235Y-102364689D01*
X135266772Y-102298554D01*
X135311824Y-102259516D01*
X135463266Y-102182353D01*
X135624418Y-102065269D01*
X135765269Y-101924418D01*
X135882353Y-101763266D01*
X135972785Y-101585783D01*
X136034339Y-101396339D01*
X136065500Y-101199597D01*
X136065500Y-101000403D01*
X136034339Y-100803661D01*
X136034338Y-100803657D01*
X136034338Y-100803656D01*
X135972786Y-100614219D01*
X135895644Y-100462819D01*
X135882353Y-100436734D01*
X135765269Y-100275582D01*
X135624418Y-100134731D01*
X135463266Y-100017647D01*
X135409359Y-99990180D01*
X135311277Y-99940204D01*
X135260481Y-99892229D01*
X135243686Y-99824408D01*
X135266224Y-99758273D01*
X135311277Y-99719234D01*
X135463005Y-99641924D01*
X135500863Y-99614418D01*
X135500863Y-99614417D01*
X134937574Y-99051128D01*
X134996853Y-99035245D01*
X135113147Y-98968102D01*
X135208102Y-98873147D01*
X135275245Y-98756853D01*
X135291128Y-98697574D01*
X135854417Y-99260863D01*
X135854418Y-99260863D01*
X135881924Y-99223005D01*
X135972320Y-99045594D01*
X136033852Y-98856222D01*
X136065000Y-98659563D01*
X136065000Y-98460436D01*
X136033852Y-98263777D01*
X135972320Y-98074405D01*
X135881924Y-97896994D01*
X135854417Y-97859135D01*
X135854417Y-97859134D01*
X135291128Y-98422424D01*
X135275245Y-98363147D01*
X135208102Y-98246853D01*
X135113147Y-98151898D01*
X134996853Y-98084755D01*
X134937574Y-98068871D01*
X135500864Y-97505581D01*
X135500863Y-97505580D01*
X135463008Y-97478077D01*
X135311277Y-97400765D01*
X135260481Y-97352790D01*
X135243686Y-97284969D01*
X135266224Y-97218834D01*
X135311277Y-97179795D01*
X135311827Y-97179515D01*
X135463266Y-97102353D01*
X135624418Y-96985269D01*
X135765269Y-96844418D01*
X135882353Y-96683266D01*
X135972785Y-96505783D01*
X136034339Y-96316339D01*
X136065500Y-96119597D01*
X136065500Y-95964809D01*
X136085185Y-95897770D01*
X136137989Y-95852015D01*
X136207147Y-95842071D01*
X136270703Y-95871096D01*
X136277181Y-95877128D01*
X143221326Y-102821273D01*
X143221329Y-102821275D01*
X143221331Y-102821277D01*
X143327873Y-102892465D01*
X143446256Y-102941501D01*
X143446260Y-102941501D01*
X143446261Y-102941502D01*
X143571928Y-102966500D01*
X143571931Y-102966500D01*
X143700069Y-102966500D01*
X158920513Y-102966500D01*
X158987552Y-102986185D01*
X159033307Y-103038989D01*
X159043251Y-103108147D01*
X159030996Y-103146798D01*
X159027214Y-103154218D01*
X158965662Y-103343656D01*
X158965662Y-103343659D01*
X158934501Y-103540403D01*
X158934501Y-103739596D01*
X158965662Y-103936340D01*
X158965662Y-103936343D01*
X159027214Y-104125780D01*
X159027216Y-104125783D01*
X159117648Y-104303266D01*
X159234732Y-104464418D01*
X159375583Y-104605269D01*
X159536735Y-104722353D01*
X159670369Y-104790443D01*
X159688174Y-104799515D01*
X159738970Y-104847490D01*
X159755765Y-104915311D01*
X159733228Y-104981446D01*
X159688174Y-105020485D01*
X159536733Y-105097648D01*
X159444790Y-105164448D01*
X159375582Y-105214732D01*
X159375580Y-105214734D01*
X159375579Y-105214734D01*
X159234733Y-105355580D01*
X159234733Y-105355581D01*
X159234731Y-105355583D01*
X159185354Y-105423544D01*
X159117647Y-105516734D01*
X159027213Y-105694220D01*
X158965661Y-105883657D01*
X158965661Y-105883660D01*
X158934500Y-106080404D01*
X158934500Y-106279597D01*
X158965661Y-106476341D01*
X158965661Y-106476344D01*
X159027213Y-106665781D01*
X159027215Y-106665784D01*
X159117647Y-106843267D01*
X159234731Y-107004419D01*
X159375582Y-107145270D01*
X159536734Y-107262354D01*
X159665938Y-107328186D01*
X159688171Y-107339515D01*
X159738967Y-107387490D01*
X159755762Y-107455311D01*
X159733225Y-107521446D01*
X159688171Y-107560484D01*
X159536738Y-107637643D01*
X159429299Y-107715703D01*
X159375582Y-107754731D01*
X159375580Y-107754733D01*
X159375579Y-107754733D01*
X159234733Y-107895579D01*
X159234733Y-107895580D01*
X159234731Y-107895582D01*
X159223307Y-107911306D01*
X159117647Y-108056733D01*
X159027213Y-108234219D01*
X158965661Y-108423656D01*
X158965661Y-108423659D01*
X158934500Y-108620403D01*
X158934500Y-108819596D01*
X158965661Y-109016340D01*
X158965661Y-109016343D01*
X159027213Y-109205780D01*
X159027215Y-109205783D01*
X159117647Y-109383266D01*
X159234731Y-109544418D01*
X159375582Y-109685269D01*
X159536734Y-109802353D01*
X159606453Y-109837877D01*
X159688172Y-109879515D01*
X159738968Y-109927490D01*
X159755763Y-109995311D01*
X159733225Y-110061446D01*
X159688172Y-110100485D01*
X159536733Y-110177647D01*
X159444790Y-110244447D01*
X159375582Y-110294731D01*
X159375580Y-110294733D01*
X159375579Y-110294733D01*
X159234733Y-110435579D01*
X159234733Y-110435580D01*
X159234731Y-110435582D01*
X159231366Y-110440214D01*
X159117647Y-110596733D01*
X159027213Y-110774219D01*
X158965661Y-110963656D01*
X158965661Y-110963659D01*
X158934500Y-111160403D01*
X158934500Y-111359596D01*
X158965661Y-111556340D01*
X158965661Y-111556343D01*
X159027213Y-111745780D01*
X159027215Y-111745783D01*
X159117647Y-111923266D01*
X159234731Y-112084418D01*
X159375582Y-112225269D01*
X159536734Y-112342353D01*
X159650923Y-112400535D01*
X159714219Y-112432786D01*
X159903657Y-112494338D01*
X159903658Y-112494338D01*
X159903661Y-112494339D01*
X160100403Y-112525500D01*
X160100404Y-112525500D01*
X160299596Y-112525500D01*
X160299597Y-112525500D01*
X160496339Y-112494339D01*
X160496342Y-112494338D01*
X160496343Y-112494338D01*
X160685780Y-112432786D01*
X160685780Y-112432785D01*
X160685783Y-112432785D01*
X160863266Y-112342353D01*
X161024418Y-112225269D01*
X161165269Y-112084418D01*
X161282353Y-111923266D01*
X161372785Y-111745783D01*
X161372786Y-111745780D01*
X161434338Y-111556343D01*
X161434338Y-111556342D01*
X161434339Y-111556339D01*
X161465500Y-111359597D01*
X161465500Y-111160403D01*
X161434339Y-110963661D01*
X161434338Y-110963657D01*
X161434338Y-110963656D01*
X161372786Y-110774219D01*
X161372785Y-110774217D01*
X161282353Y-110596734D01*
X161165269Y-110435582D01*
X161024418Y-110294731D01*
X160863266Y-110177647D01*
X160711827Y-110100485D01*
X160661031Y-110052510D01*
X160644236Y-109984689D01*
X160666773Y-109918554D01*
X160711827Y-109879515D01*
X160721116Y-109874781D01*
X160863266Y-109802353D01*
X161024418Y-109685269D01*
X161165269Y-109544418D01*
X161282353Y-109383266D01*
X161372785Y-109205783D01*
X161372786Y-109205780D01*
X161434338Y-109016343D01*
X161434338Y-109016342D01*
X161434339Y-109016339D01*
X161465500Y-108819597D01*
X161465500Y-108620403D01*
X161434339Y-108423661D01*
X161434338Y-108423657D01*
X161434338Y-108423656D01*
X161372786Y-108234219D01*
X161298638Y-108088695D01*
X161282353Y-108056734D01*
X161176692Y-107911304D01*
X163699500Y-107911304D01*
X163699500Y-108088695D01*
X163734103Y-108262658D01*
X163734106Y-108262667D01*
X163801983Y-108426540D01*
X163801990Y-108426553D01*
X163900535Y-108574034D01*
X163900538Y-108574038D01*
X164025961Y-108699461D01*
X164025965Y-108699464D01*
X164173446Y-108798009D01*
X164173459Y-108798016D01*
X164296363Y-108848923D01*
X164337334Y-108865894D01*
X164337336Y-108865894D01*
X164337341Y-108865896D01*
X164511304Y-108900499D01*
X164511307Y-108900500D01*
X164511309Y-108900500D01*
X164688693Y-108900500D01*
X164688694Y-108900499D01*
X164760144Y-108886287D01*
X164862658Y-108865896D01*
X164862661Y-108865894D01*
X164862666Y-108865894D01*
X165026547Y-108798013D01*
X165174035Y-108699464D01*
X165299464Y-108574035D01*
X165398013Y-108426547D01*
X165399211Y-108423656D01*
X165407958Y-108402535D01*
X165465894Y-108262666D01*
X165466109Y-108261589D01*
X165500499Y-108088695D01*
X165500500Y-108088693D01*
X165500500Y-107911306D01*
X165500499Y-107911304D01*
X165465896Y-107737341D01*
X165465893Y-107737332D01*
X165398016Y-107573459D01*
X165398009Y-107573446D01*
X165299464Y-107425965D01*
X165299461Y-107425961D01*
X165174038Y-107300538D01*
X165174034Y-107300535D01*
X165026553Y-107201990D01*
X165026540Y-107201983D01*
X164862667Y-107134106D01*
X164862658Y-107134103D01*
X164688694Y-107099500D01*
X164688691Y-107099500D01*
X164511309Y-107099500D01*
X164511306Y-107099500D01*
X164337341Y-107134103D01*
X164337332Y-107134106D01*
X164173459Y-107201983D01*
X164173446Y-107201990D01*
X164025965Y-107300535D01*
X164025961Y-107300538D01*
X163900538Y-107425961D01*
X163900535Y-107425965D01*
X163801990Y-107573446D01*
X163801983Y-107573459D01*
X163734106Y-107737332D01*
X163734103Y-107737341D01*
X163699500Y-107911304D01*
X161176692Y-107911304D01*
X161165269Y-107895582D01*
X161024418Y-107754731D01*
X160863266Y-107637647D01*
X160829584Y-107620485D01*
X160711828Y-107560485D01*
X160661032Y-107512510D01*
X160644237Y-107444689D01*
X160666775Y-107378554D01*
X160711826Y-107339516D01*
X160863266Y-107262354D01*
X161024418Y-107145270D01*
X161165269Y-107004419D01*
X161282353Y-106843267D01*
X161372785Y-106665784D01*
X161409282Y-106553459D01*
X161434338Y-106476344D01*
X161434338Y-106476343D01*
X161434339Y-106476340D01*
X161465500Y-106279598D01*
X161465500Y-106080404D01*
X161434339Y-105883662D01*
X161434338Y-105883658D01*
X161434338Y-105883657D01*
X161372786Y-105694220D01*
X161290225Y-105532185D01*
X161282353Y-105516735D01*
X161165269Y-105355583D01*
X161024418Y-105214732D01*
X160863266Y-105097648D01*
X160829580Y-105080484D01*
X160711826Y-105020485D01*
X160661030Y-104972510D01*
X160644235Y-104904689D01*
X160666773Y-104838554D01*
X160711825Y-104799516D01*
X160863267Y-104722353D01*
X161024419Y-104605269D01*
X161165270Y-104464418D01*
X161282354Y-104303266D01*
X161372786Y-104125783D01*
X161434340Y-103936339D01*
X161465501Y-103739597D01*
X161465501Y-103540403D01*
X161434340Y-103343661D01*
X161434339Y-103343657D01*
X161434339Y-103343656D01*
X161372787Y-103154218D01*
X161369006Y-103146798D01*
X161356108Y-103078129D01*
X161382382Y-103013388D01*
X161439487Y-102973129D01*
X161479489Y-102966500D01*
X175055191Y-102966500D01*
X175122230Y-102986185D01*
X175142872Y-103002819D01*
X177544413Y-105404360D01*
X177573017Y-105448986D01*
X177980203Y-106548723D01*
X177981849Y-106553459D01*
X178048444Y-106758417D01*
X178144951Y-106947821D01*
X178269890Y-107119787D01*
X178420213Y-107270110D01*
X178592182Y-107395051D01*
X178600946Y-107399517D01*
X178651742Y-107447492D01*
X178668536Y-107515313D01*
X178645998Y-107581448D01*
X178600946Y-107620485D01*
X178592182Y-107624950D01*
X178420213Y-107749891D01*
X178269890Y-107900214D01*
X178144951Y-108072180D01*
X178048444Y-108261586D01*
X177982753Y-108463761D01*
X177949500Y-108673714D01*
X177949500Y-108886287D01*
X177982753Y-109096240D01*
X178048444Y-109298415D01*
X178144951Y-109487821D01*
X178269890Y-109659787D01*
X178420213Y-109810110D01*
X178592182Y-109935051D01*
X178600946Y-109939517D01*
X178651742Y-109987492D01*
X178668536Y-110055313D01*
X178645998Y-110121448D01*
X178600946Y-110160485D01*
X178592182Y-110164950D01*
X178420213Y-110289891D01*
X178269890Y-110440214D01*
X178144951Y-110612180D01*
X178048444Y-110801586D01*
X177982753Y-111003761D01*
X177949500Y-111213714D01*
X177949500Y-111426287D01*
X177982753Y-111636240D01*
X178048444Y-111838415D01*
X178144951Y-112027821D01*
X178269890Y-112199787D01*
X178420213Y-112350110D01*
X178592179Y-112475049D01*
X178592181Y-112475050D01*
X178592184Y-112475052D01*
X178781588Y-112571558D01*
X178983757Y-112637247D01*
X179193713Y-112670501D01*
X179193714Y-112670501D01*
X179406286Y-112670501D01*
X179406287Y-112670501D01*
X179616243Y-112637247D01*
X179818412Y-112571558D01*
X180007816Y-112475052D01*
X180065992Y-112432785D01*
X180179786Y-112350110D01*
X180179788Y-112350107D01*
X180179792Y-112350105D01*
X180330104Y-112199793D01*
X180330106Y-112199789D01*
X180330109Y-112199787D01*
X180455048Y-112027821D01*
X180455047Y-112027821D01*
X180455051Y-112027817D01*
X180551557Y-111838413D01*
X180617246Y-111636244D01*
X180650500Y-111426288D01*
X180650500Y-111213714D01*
X180617246Y-111003758D01*
X180551557Y-110801589D01*
X180455051Y-110612185D01*
X180455049Y-110612182D01*
X180455048Y-110612180D01*
X180330109Y-110440214D01*
X180179786Y-110289891D01*
X180007820Y-110164952D01*
X180007115Y-110164592D01*
X179999054Y-110160486D01*
X179948259Y-110112513D01*
X179931463Y-110044693D01*
X179953999Y-109978557D01*
X179999054Y-109939516D01*
X180007816Y-109935052D01*
X180084257Y-109879515D01*
X180179786Y-109810110D01*
X180179788Y-109810107D01*
X180179792Y-109810105D01*
X180330104Y-109659793D01*
X180330106Y-109659789D01*
X180330109Y-109659787D01*
X180455048Y-109487821D01*
X180455047Y-109487821D01*
X180455051Y-109487817D01*
X180551557Y-109298413D01*
X180617246Y-109096244D01*
X180650500Y-108886288D01*
X180650500Y-108673714D01*
X180617246Y-108463758D01*
X180551557Y-108261589D01*
X180455051Y-108072185D01*
X180455049Y-108072182D01*
X180455048Y-108072180D01*
X180330109Y-107900214D01*
X180179786Y-107749891D01*
X180007820Y-107624952D01*
X180007115Y-107624592D01*
X179999054Y-107620486D01*
X179948259Y-107572513D01*
X179931463Y-107504693D01*
X179953999Y-107438557D01*
X179999054Y-107399516D01*
X180007816Y-107395052D01*
X180084257Y-107339515D01*
X180179786Y-107270110D01*
X180179788Y-107270107D01*
X180179792Y-107270105D01*
X180330104Y-107119793D01*
X180330106Y-107119789D01*
X180330109Y-107119787D01*
X180455048Y-106947821D01*
X180455047Y-106947821D01*
X180455051Y-106947817D01*
X180551557Y-106758413D01*
X180617246Y-106556244D01*
X180650500Y-106346288D01*
X180650500Y-106133714D01*
X180617246Y-105923758D01*
X180551557Y-105721589D01*
X180455051Y-105532185D01*
X180455049Y-105532182D01*
X180455048Y-105532180D01*
X180330109Y-105360214D01*
X180179786Y-105209891D01*
X180007817Y-105084950D01*
X179999052Y-105080484D01*
X179948257Y-105032509D01*
X179931462Y-104964688D01*
X179954000Y-104898553D01*
X179999056Y-104859514D01*
X180007816Y-104855051D01*
X180007818Y-104855049D01*
X180007821Y-104855048D01*
X180179786Y-104730109D01*
X180179788Y-104730106D01*
X180179792Y-104730104D01*
X180330104Y-104579792D01*
X180330106Y-104579788D01*
X180330109Y-104579786D01*
X180455048Y-104407820D01*
X180455047Y-104407820D01*
X180455051Y-104407816D01*
X180551557Y-104218412D01*
X180617246Y-104016243D01*
X180650500Y-103806287D01*
X180650500Y-103593713D01*
X180617246Y-103383757D01*
X180551557Y-103181588D01*
X180455051Y-102992184D01*
X180455049Y-102992181D01*
X180455048Y-102992179D01*
X180330109Y-102820213D01*
X180179786Y-102669890D01*
X180007817Y-102544949D01*
X179998501Y-102540202D01*
X179947707Y-102492227D01*
X179930913Y-102424405D01*
X179953452Y-102358271D01*
X179998511Y-102319231D01*
X180007553Y-102314624D01*
X180061716Y-102275271D01*
X180061717Y-102275271D01*
X179429408Y-101642963D01*
X179492993Y-101625926D01*
X179607007Y-101560100D01*
X179700099Y-101467008D01*
X179765925Y-101352994D01*
X179782962Y-101289410D01*
X180415270Y-101921718D01*
X180415270Y-101921717D01*
X180454622Y-101867555D01*
X180551095Y-101678218D01*
X180616757Y-101476131D01*
X180616757Y-101476128D01*
X180650000Y-101266247D01*
X180650000Y-101053754D01*
X180616757Y-100843873D01*
X180616757Y-100843870D01*
X180551095Y-100641783D01*
X180454624Y-100452450D01*
X180415270Y-100398283D01*
X180415269Y-100398283D01*
X179782962Y-101030591D01*
X179765925Y-100967008D01*
X179700099Y-100852994D01*
X179607007Y-100759902D01*
X179492993Y-100694076D01*
X179429409Y-100677038D01*
X180099627Y-100006819D01*
X180160950Y-99973334D01*
X180187307Y-99970500D01*
X180197872Y-99970500D01*
X180257483Y-99964092D01*
X180392331Y-99913797D01*
X180507546Y-99827547D01*
X180593796Y-99712332D01*
X180644091Y-99577484D01*
X180650500Y-99517874D01*
X180650499Y-97722129D01*
X180644091Y-97662518D01*
X180593796Y-97527670D01*
X180593795Y-97527669D01*
X180593793Y-97527665D01*
X180507547Y-97412456D01*
X180507544Y-97412453D01*
X180392335Y-97326207D01*
X180392328Y-97326203D01*
X180257482Y-97275909D01*
X180257483Y-97275909D01*
X180197883Y-97269502D01*
X180197881Y-97269501D01*
X180197873Y-97269501D01*
X180197864Y-97269501D01*
X178402129Y-97269501D01*
X178402123Y-97269502D01*
X178342516Y-97275909D01*
X178207671Y-97326203D01*
X178207664Y-97326207D01*
X178092455Y-97412453D01*
X178092452Y-97412456D01*
X178006206Y-97527665D01*
X178006202Y-97527672D01*
X177955908Y-97662518D01*
X177949501Y-97722117D01*
X177949501Y-97722124D01*
X177949500Y-97722136D01*
X177949500Y-99517871D01*
X177949501Y-99517877D01*
X177955908Y-99577484D01*
X178006202Y-99712329D01*
X178006206Y-99712336D01*
X178092452Y-99827545D01*
X178092455Y-99827548D01*
X178207664Y-99913794D01*
X178207671Y-99913798D01*
X178252618Y-99930562D01*
X178342517Y-99964092D01*
X178402127Y-99970501D01*
X178412685Y-99970500D01*
X178479723Y-99990180D01*
X178500372Y-100006819D01*
X179170591Y-100677038D01*
X179107007Y-100694076D01*
X178992993Y-100759902D01*
X178899901Y-100852994D01*
X178834075Y-100967008D01*
X178817037Y-101030592D01*
X178184728Y-100398283D01*
X178184727Y-100398283D01*
X178145380Y-100452440D01*
X178048904Y-100641783D01*
X177983242Y-100843870D01*
X177983242Y-100843873D01*
X177950000Y-101053754D01*
X177950000Y-101130691D01*
X177930315Y-101197730D01*
X177877511Y-101243485D01*
X177808353Y-101253429D01*
X177744797Y-101224404D01*
X177738319Y-101218372D01*
X175790673Y-99270726D01*
X175790669Y-99270723D01*
X175684127Y-99199535D01*
X175565744Y-99150499D01*
X175565738Y-99150497D01*
X175440071Y-99125500D01*
X175440069Y-99125500D01*
X161517555Y-99125500D01*
X161450516Y-99105815D01*
X161404761Y-99053011D01*
X161394817Y-98983853D01*
X161399624Y-98963182D01*
X161434338Y-98856343D01*
X161434338Y-98856342D01*
X161434339Y-98856339D01*
X161465500Y-98659597D01*
X161465500Y-98460403D01*
X161434339Y-98263661D01*
X161434338Y-98263657D01*
X161434338Y-98263656D01*
X161372786Y-98074219D01*
X161282352Y-97896733D01*
X161255035Y-97859135D01*
X161165269Y-97735582D01*
X161024418Y-97594731D01*
X160863266Y-97477647D01*
X160735319Y-97412455D01*
X160711827Y-97400485D01*
X160661031Y-97352510D01*
X160644236Y-97284689D01*
X160666773Y-97218554D01*
X160711827Y-97179515D01*
X160721116Y-97174781D01*
X160863266Y-97102353D01*
X161024418Y-96985269D01*
X161165269Y-96844418D01*
X161282353Y-96683266D01*
X161372785Y-96505783D01*
X161434339Y-96316339D01*
X161465500Y-96119597D01*
X161465500Y-95920403D01*
X161434339Y-95723661D01*
X161434338Y-95723657D01*
X161434338Y-95723656D01*
X161372786Y-95534219D01*
X161282352Y-95356733D01*
X161281993Y-95356239D01*
X161165269Y-95195582D01*
X161024418Y-95054731D01*
X160863266Y-94937647D01*
X160711827Y-94860485D01*
X160661031Y-94812510D01*
X160644236Y-94744689D01*
X160666773Y-94678554D01*
X160711825Y-94639516D01*
X160863267Y-94562353D01*
X161024419Y-94445269D01*
X161165270Y-94304418D01*
X161282354Y-94143266D01*
X161372786Y-93965783D01*
X161413185Y-93841447D01*
X161434339Y-93776343D01*
X161434339Y-93776342D01*
X161434340Y-93776339D01*
X161465501Y-93579597D01*
X161465501Y-93380403D01*
X161434340Y-93183661D01*
X161434339Y-93183657D01*
X161434339Y-93183656D01*
X161372787Y-92994219D01*
X161282353Y-92816733D01*
X161281994Y-92816239D01*
X161165270Y-92655582D01*
X161024419Y-92514731D01*
X160863267Y-92397647D01*
X160855546Y-92393713D01*
X160711827Y-92320484D01*
X160661031Y-92272509D01*
X160644236Y-92204688D01*
X160666774Y-92138553D01*
X160711826Y-92099515D01*
X160863266Y-92022353D01*
X161024418Y-91905269D01*
X161165269Y-91764418D01*
X161282353Y-91603266D01*
X161372785Y-91425783D01*
X161407612Y-91318597D01*
X161434338Y-91236343D01*
X161434338Y-91236342D01*
X161434339Y-91236339D01*
X161465500Y-91039597D01*
X161465500Y-90840403D01*
X161434339Y-90643661D01*
X161434338Y-90643657D01*
X161434338Y-90643656D01*
X161399624Y-90536818D01*
X161397629Y-90466977D01*
X161433709Y-90407144D01*
X161496410Y-90376316D01*
X161517555Y-90374500D01*
X177446441Y-90374500D01*
X177513480Y-90394185D01*
X177515495Y-90395507D01*
X178536530Y-91080089D01*
X178536532Y-91080090D01*
X178536538Y-91080094D01*
X178567362Y-91098435D01*
X178573267Y-91101949D01*
X178575019Y-91103011D01*
X178578975Y-91105454D01*
X178592184Y-91115051D01*
X178605489Y-91121830D01*
X178609810Y-91124499D01*
X178629892Y-91146853D01*
X178651740Y-91167487D01*
X178653000Y-91172576D01*
X178656503Y-91176475D01*
X178661311Y-91206134D01*
X178668536Y-91235307D01*
X178666845Y-91240269D01*
X178667684Y-91245444D01*
X178655692Y-91272998D01*
X178646000Y-91301443D01*
X178641687Y-91305180D01*
X178639803Y-91309510D01*
X178626204Y-91318597D01*
X178600953Y-91340480D01*
X178592181Y-91344950D01*
X178420213Y-91469890D01*
X178269890Y-91620213D01*
X178144951Y-91792179D01*
X178048444Y-91981585D01*
X177982753Y-92183760D01*
X177961098Y-92320484D01*
X177949500Y-92393713D01*
X177949500Y-92606287D01*
X177982754Y-92816243D01*
X178040582Y-92994219D01*
X178048444Y-93018414D01*
X178144951Y-93207820D01*
X178269890Y-93379786D01*
X178420213Y-93530109D01*
X178592182Y-93655050D01*
X178600946Y-93659516D01*
X178651742Y-93707491D01*
X178668536Y-93775312D01*
X178645998Y-93841447D01*
X178600946Y-93880484D01*
X178592182Y-93884949D01*
X178420213Y-94009890D01*
X178269890Y-94160213D01*
X178144951Y-94332179D01*
X178048444Y-94521585D01*
X177982753Y-94723760D01*
X177961098Y-94860485D01*
X177949500Y-94933713D01*
X177949500Y-95146287D01*
X177982754Y-95356243D01*
X178040582Y-95534219D01*
X178048444Y-95558414D01*
X178144951Y-95747820D01*
X178269890Y-95919786D01*
X178420213Y-96070109D01*
X178592179Y-96195048D01*
X178592181Y-96195049D01*
X178592184Y-96195051D01*
X178781588Y-96291557D01*
X178983757Y-96357246D01*
X179193713Y-96390500D01*
X179193714Y-96390500D01*
X179406286Y-96390500D01*
X179406287Y-96390500D01*
X179616243Y-96357246D01*
X179818412Y-96291557D01*
X180007816Y-96195051D01*
X180029789Y-96179086D01*
X180179786Y-96070109D01*
X180179788Y-96070106D01*
X180179792Y-96070104D01*
X180330104Y-95919792D01*
X180330106Y-95919788D01*
X180330109Y-95919786D01*
X180455048Y-95747820D01*
X180455047Y-95747820D01*
X180455051Y-95747816D01*
X180551557Y-95558412D01*
X180617246Y-95356243D01*
X180650500Y-95146287D01*
X180650500Y-94933713D01*
X180617246Y-94723757D01*
X180551557Y-94521588D01*
X180455051Y-94332184D01*
X180455049Y-94332181D01*
X180455048Y-94332179D01*
X180330109Y-94160213D01*
X180179786Y-94009890D01*
X180007820Y-93884951D01*
X180007115Y-93884591D01*
X179999054Y-93880485D01*
X179948259Y-93832512D01*
X179931463Y-93764692D01*
X179953999Y-93698556D01*
X179999054Y-93659515D01*
X180007816Y-93655051D01*
X180105160Y-93584327D01*
X180179786Y-93530109D01*
X180179788Y-93530106D01*
X180179792Y-93530104D01*
X180330104Y-93379792D01*
X180330106Y-93379788D01*
X180330109Y-93379786D01*
X180455048Y-93207820D01*
X180455047Y-93207820D01*
X180455051Y-93207816D01*
X180551557Y-93018412D01*
X180617246Y-92816243D01*
X180650500Y-92606287D01*
X180650500Y-92393713D01*
X180617246Y-92183757D01*
X180551557Y-91981588D01*
X180455051Y-91792184D01*
X180455049Y-91792181D01*
X180455048Y-91792179D01*
X180330109Y-91620213D01*
X180179786Y-91469890D01*
X180007820Y-91344951D01*
X180007115Y-91344591D01*
X179999054Y-91340485D01*
X179948259Y-91292512D01*
X179931463Y-91224692D01*
X179953999Y-91158556D01*
X179999054Y-91119515D01*
X180007816Y-91115051D01*
X180055931Y-91080094D01*
X180179786Y-90990109D01*
X180179788Y-90990106D01*
X180179792Y-90990104D01*
X180330104Y-90839792D01*
X180330106Y-90839788D01*
X180330109Y-90839786D01*
X180455048Y-90667820D01*
X180455047Y-90667820D01*
X180455051Y-90667816D01*
X180551557Y-90478412D01*
X180617246Y-90276243D01*
X180650500Y-90066287D01*
X180650500Y-89853713D01*
X180617246Y-89643757D01*
X180551557Y-89441588D01*
X180455051Y-89252184D01*
X180455049Y-89252181D01*
X180455048Y-89252179D01*
X180330109Y-89080213D01*
X180179786Y-88929890D01*
X180007817Y-88804949D01*
X179999052Y-88800483D01*
X179948257Y-88752508D01*
X179931462Y-88684687D01*
X179954000Y-88618552D01*
X179999056Y-88579513D01*
X180007816Y-88575050D01*
X180007818Y-88575048D01*
X180007821Y-88575047D01*
X180179786Y-88450108D01*
X180179788Y-88450105D01*
X180179792Y-88450103D01*
X180330104Y-88299791D01*
X180330106Y-88299787D01*
X180330109Y-88299785D01*
X180455048Y-88127819D01*
X180455047Y-88127819D01*
X180455051Y-88127815D01*
X180551557Y-87938411D01*
X180617246Y-87736242D01*
X180650500Y-87526286D01*
X180650500Y-87313712D01*
X180617246Y-87103756D01*
X180551557Y-86901587D01*
X180455051Y-86712183D01*
X180455049Y-86712180D01*
X180455048Y-86712178D01*
X180330109Y-86540212D01*
X180179786Y-86389889D01*
X180007817Y-86264948D01*
X179998501Y-86260201D01*
X179947707Y-86212226D01*
X179930913Y-86144404D01*
X179953452Y-86078270D01*
X179998511Y-86039230D01*
X180007553Y-86034623D01*
X180061716Y-85995270D01*
X180061717Y-85995270D01*
X179429408Y-85362962D01*
X179492993Y-85345925D01*
X179607007Y-85280099D01*
X179700099Y-85187007D01*
X179765925Y-85072993D01*
X179782962Y-85009409D01*
X180415270Y-85641717D01*
X180415270Y-85641716D01*
X180454622Y-85587554D01*
X180551095Y-85398217D01*
X180616757Y-85196130D01*
X180616757Y-85196127D01*
X180650000Y-84986246D01*
X180650000Y-84773753D01*
X180616757Y-84563872D01*
X180616757Y-84563869D01*
X180551095Y-84361782D01*
X180454624Y-84172449D01*
X180415270Y-84118282D01*
X180415269Y-84118282D01*
X179782962Y-84750590D01*
X179765925Y-84687007D01*
X179700099Y-84572993D01*
X179607007Y-84479901D01*
X179492993Y-84414075D01*
X179429409Y-84397037D01*
X180099627Y-83726818D01*
X180160950Y-83693333D01*
X180187307Y-83690499D01*
X180197872Y-83690499D01*
X180257483Y-83684091D01*
X180392331Y-83633796D01*
X180507546Y-83547546D01*
X180593796Y-83432331D01*
X180644091Y-83297483D01*
X180650500Y-83237873D01*
X180650499Y-81442128D01*
X180644091Y-81382517D01*
X180629607Y-81343684D01*
X180593797Y-81247671D01*
X180593793Y-81247664D01*
X180507547Y-81132455D01*
X180507544Y-81132452D01*
X180392335Y-81046206D01*
X180392328Y-81046202D01*
X180257482Y-80995908D01*
X180257483Y-80995908D01*
X180197883Y-80989501D01*
X180197881Y-80989500D01*
X180197873Y-80989500D01*
X180197864Y-80989500D01*
X178402129Y-80989500D01*
X178402123Y-80989501D01*
X178342516Y-80995908D01*
X178207671Y-81046202D01*
X178207664Y-81046206D01*
X178092455Y-81132452D01*
X178092452Y-81132455D01*
X178006206Y-81247664D01*
X178006202Y-81247671D01*
X177955908Y-81382517D01*
X177949501Y-81442116D01*
X177949501Y-81442123D01*
X177949500Y-81442135D01*
X177949500Y-83237870D01*
X177949501Y-83237876D01*
X177955908Y-83297483D01*
X178006202Y-83432328D01*
X178006206Y-83432335D01*
X178092452Y-83547544D01*
X178092455Y-83547547D01*
X178207664Y-83633793D01*
X178207671Y-83633797D01*
X178252618Y-83650561D01*
X178342517Y-83684091D01*
X178402127Y-83690500D01*
X178412685Y-83690499D01*
X178479723Y-83710179D01*
X178500372Y-83726818D01*
X179170591Y-84397037D01*
X179107007Y-84414075D01*
X178992993Y-84479901D01*
X178899901Y-84572993D01*
X178834075Y-84687007D01*
X178817037Y-84750591D01*
X178184728Y-84118282D01*
X178184727Y-84118282D01*
X178145380Y-84172439D01*
X178048904Y-84361782D01*
X177983242Y-84563869D01*
X177983242Y-84563872D01*
X177950000Y-84773753D01*
X177950000Y-84986246D01*
X177983242Y-85196127D01*
X177983242Y-85196130D01*
X178048904Y-85398217D01*
X178145375Y-85587550D01*
X178184728Y-85641716D01*
X178817037Y-85009408D01*
X178834075Y-85072993D01*
X178899901Y-85187007D01*
X178992993Y-85280099D01*
X179107007Y-85345925D01*
X179170590Y-85362962D01*
X178538282Y-85995269D01*
X178538282Y-85995270D01*
X178571863Y-86019668D01*
X178614530Y-86074998D01*
X178620509Y-86144611D01*
X178587904Y-86206406D01*
X178534686Y-86238735D01*
X177571878Y-86528248D01*
X177536171Y-86533500D01*
X161479488Y-86533500D01*
X161412449Y-86513815D01*
X161366694Y-86461011D01*
X161356750Y-86391853D01*
X161369005Y-86353202D01*
X161372786Y-86345781D01*
X161434338Y-86156343D01*
X161434338Y-86156342D01*
X161434339Y-86156339D01*
X161465500Y-85959597D01*
X161465500Y-85760403D01*
X161434339Y-85563661D01*
X161434338Y-85563657D01*
X161434338Y-85563656D01*
X161372786Y-85374219D01*
X161372784Y-85374216D01*
X161282353Y-85196734D01*
X161165269Y-85035582D01*
X161024418Y-84894731D01*
X161022517Y-84893350D01*
X160989299Y-84869214D01*
X160989276Y-84869199D01*
X160863266Y-84777647D01*
X160711827Y-84700485D01*
X160661031Y-84652510D01*
X160644236Y-84584689D01*
X160666773Y-84518554D01*
X160711825Y-84479516D01*
X160863267Y-84402353D01*
X161024419Y-84285269D01*
X161165270Y-84144418D01*
X161282354Y-83983266D01*
X161372786Y-83805783D01*
X161410244Y-83690499D01*
X161434339Y-83616343D01*
X161434339Y-83616342D01*
X161434340Y-83616339D01*
X161465501Y-83419597D01*
X161465501Y-83220403D01*
X161434340Y-83023661D01*
X161434339Y-83023657D01*
X161434339Y-83023656D01*
X161372787Y-82834218D01*
X161369006Y-82826798D01*
X161356108Y-82758129D01*
X161382382Y-82693388D01*
X161439487Y-82653129D01*
X161479489Y-82646500D01*
X171028071Y-82646500D01*
X171112615Y-82629682D01*
X171153744Y-82621501D01*
X171272127Y-82572465D01*
X171378669Y-82501277D01*
X171940431Y-81939515D01*
X172528822Y-81351125D01*
X177737819Y-76142126D01*
X177799142Y-76108641D01*
X177868834Y-76113625D01*
X177924767Y-76155497D01*
X177949184Y-76220961D01*
X177949500Y-76229807D01*
X177949500Y-76306287D01*
X177982754Y-76516243D01*
X178046133Y-76711304D01*
X178048444Y-76718414D01*
X178144951Y-76907820D01*
X178269890Y-77079786D01*
X178420213Y-77230109D01*
X178592182Y-77355050D01*
X178600946Y-77359516D01*
X178651742Y-77407491D01*
X178668536Y-77475312D01*
X178645998Y-77541447D01*
X178600946Y-77580484D01*
X178592182Y-77584949D01*
X178420213Y-77709890D01*
X178269890Y-77860213D01*
X178144951Y-78032179D01*
X178048444Y-78221585D01*
X178048443Y-78221587D01*
X178048443Y-78221588D01*
X178015598Y-78322672D01*
X177982753Y-78423760D01*
X177964922Y-78536340D01*
X177949500Y-78633713D01*
X177949500Y-78846287D01*
X177982754Y-79056243D01*
X177985410Y-79064418D01*
X178048444Y-79258414D01*
X178144951Y-79447820D01*
X178269890Y-79619786D01*
X178420213Y-79770109D01*
X178592179Y-79895048D01*
X178592181Y-79895049D01*
X178592184Y-79895051D01*
X178781588Y-79991557D01*
X178983757Y-80057246D01*
X179193713Y-80090500D01*
X179193714Y-80090500D01*
X179406286Y-80090500D01*
X179406287Y-80090500D01*
X179616243Y-80057246D01*
X179818412Y-79991557D01*
X180007816Y-79895051D01*
X180029789Y-79879086D01*
X180179786Y-79770109D01*
X180179788Y-79770106D01*
X180179792Y-79770104D01*
X180330104Y-79619792D01*
X180330106Y-79619788D01*
X180330109Y-79619786D01*
X180455048Y-79447820D01*
X180455047Y-79447820D01*
X180455051Y-79447816D01*
X180551557Y-79258412D01*
X180617246Y-79056243D01*
X180650500Y-78846287D01*
X180650500Y-78633713D01*
X180617246Y-78423757D01*
X180551557Y-78221588D01*
X180455051Y-78032184D01*
X180455049Y-78032181D01*
X180455048Y-78032179D01*
X180330109Y-77860213D01*
X180179786Y-77709890D01*
X180007820Y-77584951D01*
X180007115Y-77584591D01*
X179999054Y-77580485D01*
X179948259Y-77532512D01*
X179931463Y-77464692D01*
X179953999Y-77398556D01*
X179999054Y-77359515D01*
X180007816Y-77355051D01*
X180029789Y-77339086D01*
X180179786Y-77230109D01*
X180179788Y-77230106D01*
X180179792Y-77230104D01*
X180330104Y-77079792D01*
X180330106Y-77079788D01*
X180330109Y-77079786D01*
X180455048Y-76907820D01*
X180455047Y-76907820D01*
X180455051Y-76907816D01*
X180551557Y-76718412D01*
X180617246Y-76516243D01*
X180650500Y-76306287D01*
X180650500Y-76093713D01*
X180617246Y-75883757D01*
X180551557Y-75681588D01*
X180455051Y-75492184D01*
X180455049Y-75492181D01*
X180455048Y-75492179D01*
X180330109Y-75320213D01*
X180179786Y-75169890D01*
X180007820Y-75044951D01*
X180007115Y-75044591D01*
X179999054Y-75040485D01*
X179948259Y-74992512D01*
X179931463Y-74924692D01*
X179953999Y-74858556D01*
X179999054Y-74819515D01*
X180007816Y-74815051D01*
X180029789Y-74799086D01*
X180179786Y-74690109D01*
X180179788Y-74690106D01*
X180179792Y-74690104D01*
X180330104Y-74539792D01*
X180330106Y-74539788D01*
X180330109Y-74539786D01*
X180455048Y-74367820D01*
X180455047Y-74367820D01*
X180455051Y-74367816D01*
X180551557Y-74178412D01*
X180617246Y-73976243D01*
X180650500Y-73766287D01*
X180650500Y-73553713D01*
X180617246Y-73343757D01*
X180551557Y-73141588D01*
X180455051Y-72952184D01*
X180455049Y-72952181D01*
X180455048Y-72952179D01*
X180330109Y-72780213D01*
X180179786Y-72629890D01*
X180007817Y-72504949D01*
X179999052Y-72500483D01*
X179948257Y-72452508D01*
X179931462Y-72384687D01*
X179954000Y-72318552D01*
X179999056Y-72279513D01*
X180007816Y-72275050D01*
X180007818Y-72275048D01*
X180007821Y-72275047D01*
X180179786Y-72150108D01*
X180179788Y-72150105D01*
X180179792Y-72150103D01*
X180330104Y-71999791D01*
X180330106Y-71999787D01*
X180330109Y-71999785D01*
X180455048Y-71827819D01*
X180455047Y-71827819D01*
X180455051Y-71827815D01*
X180551557Y-71638411D01*
X180617246Y-71436242D01*
X180650500Y-71226286D01*
X180650500Y-71013712D01*
X180617246Y-70803756D01*
X180551557Y-70601587D01*
X180455051Y-70412183D01*
X180455049Y-70412180D01*
X180455048Y-70412178D01*
X180330109Y-70240212D01*
X180179786Y-70089889D01*
X180007817Y-69964948D01*
X179998501Y-69960201D01*
X179947707Y-69912226D01*
X179930913Y-69844404D01*
X179953452Y-69778270D01*
X179998511Y-69739230D01*
X180007553Y-69734623D01*
X180061716Y-69695270D01*
X180061717Y-69695270D01*
X179429408Y-69062962D01*
X179492993Y-69045925D01*
X179607007Y-68980099D01*
X179700099Y-68887007D01*
X179765925Y-68772993D01*
X179782962Y-68709409D01*
X180415270Y-69341717D01*
X180415270Y-69341716D01*
X180454622Y-69287554D01*
X180551095Y-69098217D01*
X180616757Y-68896130D01*
X180616757Y-68896127D01*
X180650000Y-68686246D01*
X180650000Y-68473753D01*
X180616757Y-68263872D01*
X180616757Y-68263869D01*
X180551095Y-68061782D01*
X180454624Y-67872449D01*
X180415270Y-67818282D01*
X180415269Y-67818282D01*
X179782962Y-68450590D01*
X179765925Y-68387007D01*
X179700099Y-68272993D01*
X179607007Y-68179901D01*
X179492993Y-68114075D01*
X179429409Y-68097037D01*
X180099627Y-67426818D01*
X180160950Y-67393333D01*
X180187307Y-67390499D01*
X180197872Y-67390499D01*
X180257483Y-67384091D01*
X180392331Y-67333796D01*
X180507546Y-67247546D01*
X180593796Y-67132331D01*
X180644091Y-66997483D01*
X180650500Y-66937873D01*
X180650499Y-65142128D01*
X180644091Y-65082517D01*
X180637466Y-65064755D01*
X180593797Y-64947671D01*
X180593793Y-64947664D01*
X180507547Y-64832455D01*
X180507544Y-64832452D01*
X180392335Y-64746206D01*
X180392328Y-64746202D01*
X180257482Y-64695908D01*
X180257483Y-64695908D01*
X180197883Y-64689501D01*
X180197881Y-64689500D01*
X180197873Y-64689500D01*
X180197864Y-64689500D01*
X178402129Y-64689500D01*
X178402123Y-64689501D01*
X178342516Y-64695908D01*
X178207671Y-64746202D01*
X178207664Y-64746206D01*
X178092455Y-64832452D01*
X178092452Y-64832455D01*
X178006206Y-64947664D01*
X178006202Y-64947671D01*
X177955908Y-65082517D01*
X177949501Y-65142116D01*
X177949501Y-65142123D01*
X177949500Y-65142135D01*
X177949500Y-66937870D01*
X177949501Y-66937876D01*
X177955908Y-66997483D01*
X178006202Y-67132328D01*
X178006206Y-67132335D01*
X178092452Y-67247544D01*
X178092455Y-67247547D01*
X178207664Y-67333793D01*
X178207671Y-67333797D01*
X178252618Y-67350561D01*
X178342517Y-67384091D01*
X178402127Y-67390500D01*
X178412685Y-67390499D01*
X178479723Y-67410179D01*
X178500372Y-67426818D01*
X179170591Y-68097037D01*
X179107007Y-68114075D01*
X178992993Y-68179901D01*
X178899901Y-68272993D01*
X178834075Y-68387007D01*
X178817037Y-68450591D01*
X178184728Y-67818282D01*
X178184727Y-67818282D01*
X178145380Y-67872439D01*
X178048904Y-68061782D01*
X177983242Y-68263869D01*
X177983242Y-68263872D01*
X177950000Y-68473753D01*
X177950000Y-68686246D01*
X177983242Y-68896127D01*
X177983242Y-68896130D01*
X178048904Y-69098217D01*
X178145375Y-69287550D01*
X178184728Y-69341716D01*
X178817037Y-68709408D01*
X178834075Y-68772993D01*
X178899901Y-68887007D01*
X178992993Y-68980099D01*
X179107007Y-69045925D01*
X179170590Y-69062962D01*
X178538282Y-69695269D01*
X178538282Y-69695270D01*
X178592449Y-69734624D01*
X178601491Y-69739231D01*
X178652289Y-69787204D01*
X178669086Y-69855025D01*
X178646551Y-69921160D01*
X178601501Y-69960200D01*
X178592181Y-69964949D01*
X178420213Y-70089889D01*
X178269898Y-70240204D01*
X178269891Y-70240213D01*
X178189757Y-70350506D01*
X178182432Y-70359648D01*
X178163973Y-70380573D01*
X178163973Y-70380574D01*
X177673238Y-71129463D01*
X177620030Y-71174747D01*
X177569522Y-71185500D01*
X161517556Y-71185500D01*
X161450517Y-71165815D01*
X161404762Y-71113011D01*
X161394818Y-71043853D01*
X161399625Y-71023182D01*
X161434339Y-70916343D01*
X161434339Y-70916342D01*
X161434340Y-70916339D01*
X161465501Y-70719597D01*
X161465501Y-70520403D01*
X161434340Y-70323661D01*
X161434339Y-70323657D01*
X161434339Y-70323656D01*
X161372787Y-70134219D01*
X161350200Y-70089889D01*
X161282354Y-69956734D01*
X161165270Y-69795582D01*
X161024419Y-69654731D01*
X160863267Y-69537647D01*
X160863259Y-69537643D01*
X160711827Y-69460484D01*
X160661031Y-69412509D01*
X160644236Y-69344688D01*
X160666774Y-69278553D01*
X160711826Y-69239515D01*
X160863266Y-69162353D01*
X161024418Y-69045269D01*
X161165269Y-68904418D01*
X161269248Y-68761304D01*
X167999500Y-68761304D01*
X167999500Y-68938695D01*
X168034103Y-69112658D01*
X168034106Y-69112667D01*
X168101983Y-69276540D01*
X168101990Y-69276553D01*
X168200535Y-69424034D01*
X168200538Y-69424038D01*
X168325961Y-69549461D01*
X168325965Y-69549464D01*
X168473446Y-69648009D01*
X168473459Y-69648016D01*
X168587540Y-69695269D01*
X168637334Y-69715894D01*
X168637336Y-69715894D01*
X168637341Y-69715896D01*
X168811304Y-69750499D01*
X168811307Y-69750500D01*
X168811309Y-69750500D01*
X168988693Y-69750500D01*
X168988694Y-69750499D01*
X169068510Y-69734623D01*
X169162658Y-69715896D01*
X169162661Y-69715894D01*
X169162666Y-69715894D01*
X169326547Y-69648013D01*
X169474035Y-69549464D01*
X169599464Y-69424035D01*
X169698013Y-69276547D01*
X169765894Y-69112666D01*
X169800500Y-68938691D01*
X169800500Y-68761309D01*
X169800500Y-68761306D01*
X169800499Y-68761304D01*
X169765896Y-68587341D01*
X169765893Y-68587332D01*
X169762856Y-68580001D01*
X169736485Y-68516333D01*
X169698016Y-68423459D01*
X169698009Y-68423446D01*
X169599464Y-68275965D01*
X169599461Y-68275961D01*
X169474038Y-68150538D01*
X169474034Y-68150535D01*
X169326553Y-68051990D01*
X169326540Y-68051983D01*
X169162667Y-67984106D01*
X169162658Y-67984103D01*
X168988694Y-67949500D01*
X168988691Y-67949500D01*
X168811309Y-67949500D01*
X168811306Y-67949500D01*
X168637341Y-67984103D01*
X168637332Y-67984106D01*
X168473459Y-68051983D01*
X168473446Y-68051990D01*
X168325965Y-68150535D01*
X168325961Y-68150538D01*
X168200538Y-68275961D01*
X168200535Y-68275965D01*
X168101990Y-68423446D01*
X168101983Y-68423459D01*
X168034106Y-68587332D01*
X168034103Y-68587341D01*
X167999500Y-68761304D01*
X161269248Y-68761304D01*
X161282353Y-68743266D01*
X161372785Y-68565783D01*
X161434339Y-68376339D01*
X161465500Y-68179597D01*
X161465500Y-67980403D01*
X161434339Y-67783661D01*
X161434338Y-67783657D01*
X161434338Y-67783656D01*
X161372786Y-67594219D01*
X161307401Y-67465894D01*
X161282353Y-67416734D01*
X161165269Y-67255582D01*
X161024418Y-67114731D01*
X160863266Y-66997647D01*
X160817812Y-66974487D01*
X160711277Y-66920204D01*
X160660481Y-66872229D01*
X160643686Y-66804408D01*
X160666224Y-66738273D01*
X160711277Y-66699234D01*
X160863005Y-66621924D01*
X160900863Y-66594418D01*
X160900863Y-66594417D01*
X160899344Y-66592898D01*
X160817750Y-66511304D01*
X166699500Y-66511304D01*
X166699500Y-66688695D01*
X166734103Y-66862658D01*
X166734106Y-66862667D01*
X166801983Y-67026540D01*
X166801990Y-67026553D01*
X166900535Y-67174034D01*
X166900538Y-67174038D01*
X167025961Y-67299461D01*
X167025965Y-67299464D01*
X167173446Y-67398009D01*
X167173459Y-67398016D01*
X167242995Y-67426818D01*
X167337334Y-67465894D01*
X167337336Y-67465894D01*
X167337341Y-67465896D01*
X167511304Y-67500499D01*
X167511307Y-67500500D01*
X167511309Y-67500500D01*
X167688693Y-67500500D01*
X167688694Y-67500499D01*
X167746682Y-67488964D01*
X167862658Y-67465896D01*
X167862661Y-67465894D01*
X167862666Y-67465894D01*
X168026547Y-67398013D01*
X168174035Y-67299464D01*
X168299464Y-67174035D01*
X168398013Y-67026547D01*
X168465894Y-66862666D01*
X168475370Y-66815030D01*
X168500499Y-66688695D01*
X168500500Y-66688693D01*
X168500500Y-66511306D01*
X168500499Y-66511304D01*
X168465896Y-66337341D01*
X168465893Y-66337332D01*
X168398016Y-66173459D01*
X168398009Y-66173446D01*
X168299464Y-66025965D01*
X168299461Y-66025961D01*
X168174038Y-65900538D01*
X168174034Y-65900535D01*
X168026553Y-65801990D01*
X168026540Y-65801983D01*
X167862667Y-65734106D01*
X167862658Y-65734103D01*
X167688694Y-65699500D01*
X167688691Y-65699500D01*
X167511309Y-65699500D01*
X167511306Y-65699500D01*
X167337341Y-65734103D01*
X167337332Y-65734106D01*
X167173459Y-65801983D01*
X167173446Y-65801990D01*
X167025965Y-65900535D01*
X167025961Y-65900538D01*
X166900538Y-66025961D01*
X166900535Y-66025965D01*
X166801990Y-66173446D01*
X166801983Y-66173459D01*
X166734106Y-66337332D01*
X166734103Y-66337341D01*
X166699500Y-66511304D01*
X160817750Y-66511304D01*
X160337574Y-66031128D01*
X160396853Y-66015245D01*
X160513147Y-65948102D01*
X160608102Y-65853147D01*
X160675245Y-65736853D01*
X160691128Y-65677574D01*
X161254417Y-66240863D01*
X161254418Y-66240863D01*
X161281924Y-66203005D01*
X161372320Y-66025594D01*
X161433852Y-65836222D01*
X161465000Y-65639563D01*
X161465000Y-65440436D01*
X161433851Y-65243777D01*
X161412195Y-65177124D01*
X161372320Y-65054403D01*
X161281924Y-64876994D01*
X161254417Y-64839135D01*
X161254417Y-64839134D01*
X160691128Y-65402424D01*
X160675245Y-65343147D01*
X160608102Y-65226853D01*
X160513147Y-65131898D01*
X160396853Y-65064755D01*
X160337574Y-65048871D01*
X160900864Y-64485581D01*
X160900863Y-64485580D01*
X160863008Y-64458077D01*
X160685594Y-64367679D01*
X160496222Y-64306147D01*
X160299563Y-64275000D01*
X160100437Y-64275000D01*
X159903777Y-64306147D01*
X159714405Y-64367679D01*
X159536990Y-64458077D01*
X159499135Y-64485580D01*
X159499135Y-64485581D01*
X160062425Y-65048871D01*
X160003147Y-65064755D01*
X159886853Y-65131898D01*
X159791898Y-65226853D01*
X159724755Y-65343147D01*
X159708871Y-65402425D01*
X159145581Y-64839135D01*
X159145580Y-64839135D01*
X159118077Y-64876990D01*
X159027679Y-65054405D01*
X158966147Y-65243777D01*
X158935000Y-65440436D01*
X158935000Y-65639563D01*
X158966147Y-65836222D01*
X159027679Y-66025594D01*
X159118077Y-66203008D01*
X159145580Y-66240863D01*
X159145581Y-66240864D01*
X159708871Y-65677574D01*
X159724755Y-65736853D01*
X159791898Y-65853147D01*
X159886853Y-65948102D01*
X160003147Y-66015245D01*
X160062425Y-66031128D01*
X159499134Y-66594417D01*
X159536994Y-66621924D01*
X159688722Y-66699234D01*
X159739518Y-66747209D01*
X159756313Y-66815030D01*
X159733776Y-66881165D01*
X159688723Y-66920203D01*
X159536735Y-66997645D01*
X159423997Y-67079555D01*
X159375582Y-67114731D01*
X159375580Y-67114733D01*
X159375579Y-67114733D01*
X159234733Y-67255579D01*
X159234733Y-67255580D01*
X159234731Y-67255582D01*
X159202851Y-67299461D01*
X159117647Y-67416733D01*
X159027213Y-67594219D01*
X158965661Y-67783656D01*
X158965661Y-67783659D01*
X158934500Y-67980403D01*
X158934500Y-68179596D01*
X158965661Y-68376340D01*
X158965661Y-68376343D01*
X159027213Y-68565780D01*
X159038199Y-68587341D01*
X159117647Y-68743266D01*
X159234731Y-68904418D01*
X159375582Y-69045269D01*
X159536734Y-69162353D01*
X159670368Y-69230443D01*
X159688173Y-69239515D01*
X159738969Y-69287490D01*
X159755764Y-69355311D01*
X159733227Y-69421446D01*
X159688173Y-69460485D01*
X159536734Y-69537647D01*
X159520474Y-69549461D01*
X159375583Y-69654731D01*
X159375581Y-69654733D01*
X159375580Y-69654733D01*
X159234734Y-69795579D01*
X159234734Y-69795580D01*
X159234732Y-69795582D01*
X159229522Y-69802753D01*
X159117648Y-69956733D01*
X159027214Y-70134219D01*
X158965662Y-70323656D01*
X158965662Y-70323659D01*
X158934501Y-70520403D01*
X158934501Y-70719596D01*
X158965662Y-70916340D01*
X158965662Y-70916343D01*
X159000377Y-71023182D01*
X159002372Y-71093023D01*
X158966292Y-71152856D01*
X158903591Y-71183684D01*
X158882446Y-71185500D01*
X143679928Y-71185500D01*
X143554260Y-71210497D01*
X143554254Y-71210499D01*
X143435873Y-71259534D01*
X143329325Y-71330726D01*
X136392321Y-78267730D01*
X136330998Y-78301215D01*
X136261306Y-78296231D01*
X136205373Y-78254359D01*
X136180956Y-78188895D01*
X136188853Y-78135672D01*
X136406006Y-77569132D01*
X136434108Y-77525836D01*
X155983126Y-57976820D01*
X156044449Y-57943335D01*
X156070807Y-57940501D01*
X177467727Y-57940501D01*
X177519507Y-57951829D01*
X177619579Y-57997821D01*
X178585089Y-58441550D01*
X178589603Y-58443736D01*
X178592179Y-58445048D01*
X178592184Y-58445052D01*
X178600947Y-58449517D01*
X178651741Y-58497489D01*
X178668536Y-58565310D01*
X178645999Y-58631445D01*
X178600953Y-58670481D01*
X178592181Y-58674951D01*
X178420213Y-58799891D01*
X178269890Y-58950214D01*
X178144951Y-59122180D01*
X178048444Y-59311586D01*
X177982753Y-59513761D01*
X177949500Y-59723714D01*
X177949500Y-59936287D01*
X177982753Y-60146240D01*
X178048444Y-60348415D01*
X178144951Y-60537821D01*
X178269890Y-60709787D01*
X178420213Y-60860110D01*
X178592182Y-60985051D01*
X178600946Y-60989517D01*
X178651742Y-61037492D01*
X178668536Y-61105313D01*
X178645998Y-61171448D01*
X178600946Y-61210485D01*
X178592182Y-61214950D01*
X178420213Y-61339891D01*
X178269890Y-61490214D01*
X178144951Y-61662180D01*
X178048444Y-61851586D01*
X177982753Y-62053761D01*
X177949500Y-62263714D01*
X177949500Y-62476287D01*
X177982753Y-62686240D01*
X178048444Y-62888415D01*
X178144951Y-63077821D01*
X178269890Y-63249787D01*
X178420213Y-63400110D01*
X178592179Y-63525049D01*
X178592181Y-63525050D01*
X178592184Y-63525052D01*
X178781588Y-63621558D01*
X178983757Y-63687247D01*
X179193713Y-63720501D01*
X179193714Y-63720501D01*
X179406286Y-63720501D01*
X179406287Y-63720501D01*
X179616243Y-63687247D01*
X179818412Y-63621558D01*
X180007816Y-63525052D01*
X180029789Y-63509087D01*
X180179786Y-63400110D01*
X180179788Y-63400107D01*
X180179792Y-63400105D01*
X180330104Y-63249793D01*
X180330106Y-63249789D01*
X180330109Y-63249787D01*
X180455048Y-63077821D01*
X180455047Y-63077821D01*
X180455051Y-63077817D01*
X180551557Y-62888413D01*
X180617246Y-62686244D01*
X180650500Y-62476288D01*
X180650500Y-62263714D01*
X180617246Y-62053758D01*
X180551557Y-61851589D01*
X180455051Y-61662185D01*
X180455049Y-61662182D01*
X180455048Y-61662180D01*
X180330109Y-61490214D01*
X180179786Y-61339891D01*
X180007820Y-61214952D01*
X180007115Y-61214592D01*
X179999054Y-61210486D01*
X179948259Y-61162513D01*
X179931463Y-61094693D01*
X179953999Y-61028557D01*
X179999054Y-60989516D01*
X180007816Y-60985052D01*
X180029789Y-60969087D01*
X180179786Y-60860110D01*
X180179788Y-60860107D01*
X180179792Y-60860105D01*
X180330104Y-60709793D01*
X180330106Y-60709789D01*
X180330109Y-60709787D01*
X180455048Y-60537821D01*
X180455047Y-60537821D01*
X180455051Y-60537817D01*
X180551557Y-60348413D01*
X180617246Y-60146244D01*
X180650500Y-59936288D01*
X180650500Y-59723714D01*
X180617246Y-59513758D01*
X180551557Y-59311589D01*
X180455051Y-59122185D01*
X180455049Y-59122182D01*
X180455048Y-59122180D01*
X180330109Y-58950214D01*
X180179786Y-58799891D01*
X180007820Y-58674952D01*
X180007115Y-58674592D01*
X179999054Y-58670486D01*
X179948259Y-58622513D01*
X179931463Y-58554693D01*
X179953999Y-58488557D01*
X179999054Y-58449516D01*
X180007816Y-58445052D01*
X180029789Y-58429087D01*
X180179786Y-58320110D01*
X180179788Y-58320107D01*
X180179792Y-58320105D01*
X180330104Y-58169793D01*
X180330106Y-58169789D01*
X180330109Y-58169787D01*
X180455048Y-57997821D01*
X180455047Y-57997821D01*
X180455051Y-57997817D01*
X180551557Y-57808413D01*
X180617246Y-57606244D01*
X180650500Y-57396288D01*
X180650500Y-57183714D01*
X180617246Y-56973758D01*
X180551557Y-56771589D01*
X180455051Y-56582185D01*
X180455049Y-56582182D01*
X180455048Y-56582180D01*
X180330109Y-56410214D01*
X180179786Y-56259891D01*
X180007817Y-56134950D01*
X179999052Y-56130484D01*
X179948257Y-56082509D01*
X179931462Y-56014688D01*
X179954000Y-55948553D01*
X179999056Y-55909514D01*
X180007816Y-55905051D01*
X180007818Y-55905049D01*
X180007821Y-55905048D01*
X180179786Y-55780109D01*
X180179788Y-55780106D01*
X180179792Y-55780104D01*
X180330104Y-55629792D01*
X180330106Y-55629788D01*
X180330109Y-55629786D01*
X180455048Y-55457820D01*
X180455047Y-55457820D01*
X180455051Y-55457816D01*
X180551557Y-55268412D01*
X180617246Y-55066243D01*
X180650500Y-54856287D01*
X180650500Y-54643713D01*
X180617246Y-54433757D01*
X180551557Y-54231588D01*
X180455051Y-54042184D01*
X180455049Y-54042181D01*
X180455048Y-54042179D01*
X180330109Y-53870213D01*
X180179786Y-53719890D01*
X180007817Y-53594949D01*
X179998501Y-53590202D01*
X179947707Y-53542227D01*
X179930913Y-53474405D01*
X179953452Y-53408271D01*
X179998511Y-53369231D01*
X180007553Y-53364624D01*
X180061716Y-53325271D01*
X180061717Y-53325271D01*
X179429408Y-52692963D01*
X179492993Y-52675926D01*
X179607007Y-52610100D01*
X179700099Y-52517008D01*
X179765925Y-52402994D01*
X179782962Y-52339410D01*
X180415270Y-52971718D01*
X180415270Y-52971717D01*
X180454622Y-52917555D01*
X180551095Y-52728218D01*
X180616757Y-52526131D01*
X180616757Y-52526128D01*
X180650000Y-52316247D01*
X180650000Y-52103754D01*
X180616757Y-51893873D01*
X180616757Y-51893870D01*
X180551095Y-51691783D01*
X180454624Y-51502450D01*
X180415270Y-51448283D01*
X180415269Y-51448283D01*
X179782962Y-52080591D01*
X179765925Y-52017008D01*
X179700099Y-51902994D01*
X179607007Y-51809902D01*
X179492993Y-51744076D01*
X179429409Y-51727038D01*
X180099627Y-51056819D01*
X180160950Y-51023334D01*
X180187307Y-51020500D01*
X180197872Y-51020500D01*
X180257483Y-51014092D01*
X180392331Y-50963797D01*
X180507546Y-50877547D01*
X180593796Y-50762332D01*
X180644091Y-50627484D01*
X180650500Y-50567874D01*
X180650499Y-48772129D01*
X180644091Y-48712518D01*
X180593796Y-48577670D01*
X180593795Y-48577669D01*
X180593793Y-48577665D01*
X180507547Y-48462456D01*
X180507544Y-48462453D01*
X180392335Y-48376207D01*
X180392328Y-48376203D01*
X180257482Y-48325909D01*
X180257483Y-48325909D01*
X180197883Y-48319502D01*
X180197881Y-48319501D01*
X180197873Y-48319501D01*
X180197864Y-48319501D01*
X178402129Y-48319501D01*
X178402123Y-48319502D01*
X178342516Y-48325909D01*
X178207671Y-48376203D01*
X178207664Y-48376207D01*
X178092455Y-48462453D01*
X178092452Y-48462456D01*
X178006206Y-48577665D01*
X178006202Y-48577672D01*
X177955908Y-48712518D01*
X177949501Y-48772117D01*
X177949501Y-48772124D01*
X177949500Y-48772136D01*
X177949500Y-50567871D01*
X177949501Y-50567877D01*
X177955908Y-50627484D01*
X178006202Y-50762329D01*
X178006206Y-50762336D01*
X178092452Y-50877545D01*
X178092455Y-50877548D01*
X178207664Y-50963794D01*
X178207671Y-50963798D01*
X178252618Y-50980562D01*
X178342517Y-51014092D01*
X178402127Y-51020501D01*
X178412685Y-51020500D01*
X178479723Y-51040180D01*
X178500372Y-51056819D01*
X179170591Y-51727038D01*
X179107007Y-51744076D01*
X178992993Y-51809902D01*
X178899901Y-51902994D01*
X178834075Y-52017008D01*
X178817037Y-52080592D01*
X178184728Y-51448283D01*
X178184727Y-51448283D01*
X178145380Y-51502440D01*
X178048904Y-51691783D01*
X177983242Y-51893870D01*
X177983242Y-51893873D01*
X177950000Y-52103754D01*
X177950000Y-52316247D01*
X177983242Y-52526128D01*
X177983242Y-52526131D01*
X178048904Y-52728218D01*
X178145375Y-52917551D01*
X178184728Y-52971717D01*
X178817037Y-52339409D01*
X178834075Y-52402994D01*
X178899901Y-52517008D01*
X178992993Y-52610100D01*
X179107007Y-52675926D01*
X179170590Y-52692963D01*
X178538282Y-53325270D01*
X178538282Y-53325271D01*
X178592449Y-53364625D01*
X178601491Y-53369232D01*
X178609311Y-53376617D01*
X178619393Y-53380364D01*
X178634268Y-53400186D01*
X178652289Y-53417205D01*
X178654874Y-53427646D01*
X178661330Y-53436248D01*
X178663127Y-53460966D01*
X178669086Y-53485026D01*
X178665616Y-53495206D01*
X178666397Y-53505934D01*
X178654544Y-53527700D01*
X178646551Y-53551161D01*
X178637246Y-53559468D01*
X178632985Y-53567296D01*
X178608678Y-53584978D01*
X178604756Y-53588481D01*
X178603119Y-53589376D01*
X178592184Y-53594949D01*
X178589854Y-53596640D01*
X178583139Y-53600318D01*
X178582761Y-53600400D01*
X178579113Y-53602427D01*
X177513046Y-54136371D01*
X177457516Y-54149500D01*
X171311953Y-54149500D01*
X171244914Y-54129815D01*
X171199159Y-54077011D01*
X171189215Y-54007853D01*
X171197392Y-53978048D01*
X171235346Y-53886415D01*
X171265894Y-53812666D01*
X171300500Y-53638691D01*
X171300500Y-53461309D01*
X171300500Y-53461306D01*
X171300499Y-53461304D01*
X171265896Y-53287341D01*
X171265893Y-53287332D01*
X171198016Y-53123459D01*
X171198009Y-53123446D01*
X171099464Y-52975965D01*
X171099461Y-52975961D01*
X170974038Y-52850538D01*
X170974034Y-52850535D01*
X170826553Y-52751990D01*
X170826540Y-52751983D01*
X170662667Y-52684106D01*
X170662658Y-52684103D01*
X170488694Y-52649500D01*
X170488691Y-52649500D01*
X170311309Y-52649500D01*
X170311306Y-52649500D01*
X170137341Y-52684103D01*
X170137332Y-52684106D01*
X169973459Y-52751983D01*
X169973446Y-52751990D01*
X169825965Y-52850535D01*
X169825961Y-52850538D01*
X169700538Y-52975961D01*
X169700535Y-52975965D01*
X169601990Y-53123446D01*
X169601983Y-53123459D01*
X169534106Y-53287332D01*
X169534103Y-53287341D01*
X169499500Y-53461304D01*
X169499500Y-53638695D01*
X169534103Y-53812658D01*
X169534106Y-53812667D01*
X169602608Y-53978048D01*
X169610077Y-54047518D01*
X169578801Y-54109997D01*
X169518712Y-54145648D01*
X169488047Y-54149500D01*
X155635929Y-54149500D01*
X155515102Y-54173535D01*
X155515097Y-54173536D01*
X155510258Y-54174498D01*
X155510257Y-54174498D01*
X155391870Y-54223535D01*
X155285331Y-54294722D01*
X155285324Y-54294728D01*
X136277181Y-73302872D01*
X136215858Y-73336357D01*
X136146166Y-73331373D01*
X136090233Y-73289501D01*
X136065816Y-73224037D01*
X136065500Y-73215191D01*
X136065500Y-73060403D01*
X136034339Y-72863661D01*
X136034338Y-72863657D01*
X136034338Y-72863656D01*
X135972786Y-72674219D01*
X135901029Y-72533388D01*
X135882353Y-72496734D01*
X135765269Y-72335582D01*
X135624418Y-72194731D01*
X135463266Y-72077647D01*
X135311826Y-72000484D01*
X135261030Y-71952509D01*
X135244235Y-71884688D01*
X135266773Y-71818553D01*
X135311825Y-71779515D01*
X135463265Y-71702353D01*
X135624417Y-71585269D01*
X135765268Y-71444418D01*
X135882352Y-71283266D01*
X135972784Y-71105783D01*
X136034338Y-70916339D01*
X136065499Y-70719597D01*
X136065499Y-70520403D01*
X136034338Y-70323661D01*
X136034337Y-70323657D01*
X136034337Y-70323656D01*
X135972785Y-70134219D01*
X135950198Y-70089889D01*
X135882352Y-69956734D01*
X135765268Y-69795582D01*
X135624417Y-69654731D01*
X135463265Y-69537647D01*
X135311826Y-69460485D01*
X135261030Y-69412510D01*
X135244235Y-69344689D01*
X135266772Y-69278554D01*
X135311824Y-69239516D01*
X135463266Y-69162353D01*
X135624418Y-69045269D01*
X135765269Y-68904418D01*
X135882353Y-68743266D01*
X135972785Y-68565783D01*
X136034339Y-68376339D01*
X136065500Y-68179597D01*
X136065500Y-67980403D01*
X136034339Y-67783661D01*
X136034338Y-67783657D01*
X136034338Y-67783656D01*
X135972786Y-67594219D01*
X135907401Y-67465894D01*
X135882353Y-67416734D01*
X135765269Y-67255582D01*
X135624418Y-67114731D01*
X135507543Y-67029816D01*
X135464878Y-66974487D01*
X135458899Y-66904874D01*
X135491505Y-66843079D01*
X135552343Y-66808722D01*
X135580428Y-66805499D01*
X135612872Y-66805499D01*
X135672483Y-66799091D01*
X135807331Y-66748796D01*
X135922546Y-66662546D01*
X136008796Y-66547331D01*
X136059091Y-66412483D01*
X136065500Y-66352873D01*
X136065499Y-64727128D01*
X136059091Y-64667517D01*
X136008796Y-64532669D01*
X136008795Y-64532668D01*
X136008793Y-64532664D01*
X135922547Y-64417455D01*
X135922544Y-64417452D01*
X135807335Y-64331206D01*
X135807328Y-64331202D01*
X135672482Y-64280908D01*
X135672483Y-64280908D01*
X135612883Y-64274501D01*
X135612881Y-64274500D01*
X135612873Y-64274500D01*
X135612864Y-64274500D01*
X133987129Y-64274500D01*
X133987123Y-64274501D01*
X133927516Y-64280908D01*
X133792671Y-64331202D01*
X133792664Y-64331206D01*
X133677455Y-64417452D01*
X133677452Y-64417455D01*
X133591206Y-64532664D01*
X133591202Y-64532671D01*
X133540908Y-64667517D01*
X133537856Y-64695909D01*
X133534501Y-64727123D01*
X133534500Y-64727135D01*
X133534500Y-66352870D01*
X133534501Y-66352876D01*
X133540908Y-66412483D01*
X133591202Y-66547328D01*
X133591206Y-66547335D01*
X133677452Y-66662544D01*
X133677455Y-66662547D01*
X133792664Y-66748793D01*
X133792671Y-66748797D01*
X133927517Y-66799091D01*
X133927516Y-66799091D01*
X133934444Y-66799835D01*
X133987127Y-66805500D01*
X134019568Y-66805499D01*
X134086605Y-66825182D01*
X134132361Y-66877984D01*
X134142306Y-66947143D01*
X134113283Y-67010699D01*
X134092455Y-67029816D01*
X133975582Y-67114730D01*
X133834733Y-67255579D01*
X133834733Y-67255580D01*
X133834731Y-67255582D01*
X133802851Y-67299461D01*
X133717647Y-67416733D01*
X133627213Y-67594219D01*
X133565661Y-67783656D01*
X133565661Y-67783659D01*
X133534500Y-67980403D01*
X133534500Y-68179596D01*
X133565661Y-68376340D01*
X133565661Y-68376343D01*
X133627213Y-68565780D01*
X133638199Y-68587341D01*
X133717647Y-68743266D01*
X133834731Y-68904418D01*
X133975582Y-69045269D01*
X134136734Y-69162353D01*
X134288172Y-69239514D01*
X134338968Y-69287488D01*
X134355763Y-69355309D01*
X134333226Y-69421444D01*
X134288172Y-69460483D01*
X134136737Y-69537643D01*
X134029298Y-69615703D01*
X133975581Y-69654731D01*
X133975579Y-69654733D01*
X133975578Y-69654733D01*
X133834732Y-69795579D01*
X133834732Y-69795580D01*
X133834730Y-69795582D01*
X133829520Y-69802753D01*
X133717646Y-69956733D01*
X133627212Y-70134219D01*
X133565660Y-70323656D01*
X133565660Y-70323659D01*
X133534499Y-70520403D01*
X126500500Y-70520403D01*
X126500500Y-48508233D01*
X134149500Y-48508233D01*
X134149500Y-49808251D01*
X134149501Y-49808268D01*
X134160000Y-49911046D01*
X134160001Y-49911049D01*
X134215185Y-50077581D01*
X134215187Y-50077586D01*
X134307289Y-50226907D01*
X134431344Y-50350962D01*
X134586558Y-50446698D01*
X134633283Y-50498646D01*
X134644506Y-50567608D01*
X134616663Y-50631691D01*
X134609144Y-50639918D01*
X134470271Y-50778791D01*
X134345379Y-50950692D01*
X134248904Y-51140032D01*
X134183242Y-51342120D01*
X134183242Y-51342123D01*
X134172769Y-51408250D01*
X135216988Y-51408250D01*
X135184075Y-51465257D01*
X135150000Y-51592424D01*
X135150000Y-51724076D01*
X135184075Y-51851243D01*
X135216988Y-51908250D01*
X134172769Y-51908250D01*
X134183242Y-51974376D01*
X134183242Y-51974379D01*
X134248904Y-52176467D01*
X134345379Y-52365807D01*
X134470272Y-52537709D01*
X134470276Y-52537714D01*
X134620535Y-52687973D01*
X134620540Y-52687977D01*
X134792442Y-52812870D01*
X134981782Y-52909345D01*
X135183870Y-52975007D01*
X135393754Y-53008250D01*
X135400000Y-53008250D01*
X135400000Y-52091262D01*
X135457007Y-52124175D01*
X135584174Y-52158250D01*
X135715826Y-52158250D01*
X135842993Y-52124175D01*
X135900000Y-52091262D01*
X135900000Y-53008250D01*
X135906246Y-53008250D01*
X136116127Y-52975007D01*
X136116130Y-52975007D01*
X136318217Y-52909345D01*
X136507557Y-52812870D01*
X136679459Y-52687977D01*
X136679464Y-52687973D01*
X136829723Y-52537714D01*
X136829727Y-52537709D01*
X136954620Y-52365807D01*
X137051096Y-52176465D01*
X137088754Y-52060565D01*
X137088754Y-52060564D01*
X137116757Y-51974379D01*
X137116757Y-51974376D01*
X137127231Y-51908250D01*
X136083012Y-51908250D01*
X136115925Y-51851243D01*
X136150000Y-51724076D01*
X136150000Y-51592424D01*
X136115925Y-51465257D01*
X136083012Y-51408250D01*
X137127231Y-51408250D01*
X137116757Y-51342123D01*
X137116757Y-51342120D01*
X137051095Y-51140032D01*
X136954620Y-50950692D01*
X136829727Y-50778790D01*
X136829723Y-50778785D01*
X136690856Y-50639918D01*
X136657371Y-50578595D01*
X136662355Y-50508903D01*
X136704227Y-50452970D01*
X136713441Y-50446698D01*
X136719331Y-50443064D01*
X136719334Y-50443064D01*
X136868656Y-50350962D01*
X136992712Y-50226906D01*
X137084814Y-50077584D01*
X137139999Y-49911047D01*
X137150500Y-49808259D01*
X137150499Y-48508242D01*
X137139999Y-48405453D01*
X137084814Y-48238916D01*
X136992712Y-48089594D01*
X136868656Y-47965538D01*
X136719334Y-47873436D01*
X136552797Y-47818251D01*
X136552795Y-47818250D01*
X136450010Y-47807750D01*
X134849998Y-47807750D01*
X134849981Y-47807751D01*
X134747203Y-47818250D01*
X134747200Y-47818251D01*
X134580668Y-47873435D01*
X134580663Y-47873437D01*
X134431342Y-47965539D01*
X134307289Y-48089592D01*
X134215187Y-48238913D01*
X134215186Y-48238916D01*
X134160001Y-48405453D01*
X134160001Y-48405454D01*
X134160000Y-48405454D01*
X134149500Y-48508233D01*
X126500500Y-48508233D01*
X126500500Y-47502706D01*
X126500618Y-47497297D01*
X126503377Y-47434108D01*
X126515142Y-47164626D01*
X155954259Y-47164626D01*
X155954259Y-47342017D01*
X155988862Y-47515980D01*
X155988865Y-47515989D01*
X156056742Y-47679862D01*
X156056749Y-47679875D01*
X156155294Y-47827356D01*
X156155297Y-47827360D01*
X156280720Y-47952783D01*
X156280724Y-47952786D01*
X156428205Y-48051331D01*
X156428218Y-48051338D01*
X156520578Y-48089594D01*
X156592093Y-48119216D01*
X156592095Y-48119216D01*
X156592100Y-48119218D01*
X156766063Y-48153821D01*
X156766066Y-48153822D01*
X156766068Y-48153822D01*
X156943452Y-48153822D01*
X156943453Y-48153821D01*
X157001441Y-48142286D01*
X157117417Y-48119218D01*
X157117420Y-48119216D01*
X157117425Y-48119216D01*
X157281306Y-48051335D01*
X157428794Y-47952786D01*
X157554223Y-47827357D01*
X157652772Y-47679869D01*
X157720653Y-47515988D01*
X157723834Y-47500000D01*
X157755258Y-47342017D01*
X157755259Y-47342015D01*
X157755259Y-47164628D01*
X157755258Y-47164626D01*
X157720655Y-46990663D01*
X157720652Y-46990654D01*
X157652775Y-46826781D01*
X157652768Y-46826768D01*
X157554223Y-46679287D01*
X157554220Y-46679283D01*
X157428797Y-46553860D01*
X157428793Y-46553857D01*
X157281312Y-46455312D01*
X157281299Y-46455305D01*
X157117426Y-46387428D01*
X157117417Y-46387425D01*
X156943453Y-46352822D01*
X156943450Y-46352822D01*
X156766068Y-46352822D01*
X156766065Y-46352822D01*
X156592100Y-46387425D01*
X156592091Y-46387428D01*
X156428218Y-46455305D01*
X156428205Y-46455312D01*
X156280724Y-46553857D01*
X156280720Y-46553860D01*
X156155297Y-46679283D01*
X156155294Y-46679287D01*
X156056749Y-46826768D01*
X156056742Y-46826781D01*
X155988865Y-46990654D01*
X155988862Y-46990663D01*
X155954259Y-47164626D01*
X126515142Y-47164626D01*
X126517386Y-47113228D01*
X126518326Y-47102495D01*
X126568152Y-46724025D01*
X126570025Y-46713405D01*
X126652649Y-46340709D01*
X126655440Y-46330295D01*
X126770230Y-45966227D01*
X126773917Y-45956095D01*
X126920003Y-45603412D01*
X126924561Y-45593638D01*
X127100822Y-45255045D01*
X127106217Y-45245700D01*
X127311325Y-44923744D01*
X127317515Y-44914905D01*
X127549896Y-44612060D01*
X127556834Y-44603791D01*
X127814726Y-44322352D01*
X127822352Y-44314726D01*
X128103791Y-44056834D01*
X128112060Y-44049896D01*
X128414905Y-43817515D01*
X128423744Y-43811325D01*
X128745700Y-43606217D01*
X128755045Y-43600822D01*
X129093638Y-43424561D01*
X129103412Y-43420003D01*
X129456095Y-43273917D01*
X129466227Y-43270230D01*
X129830295Y-43155440D01*
X129840709Y-43152649D01*
X130213405Y-43070025D01*
X130224025Y-43068152D01*
X130602495Y-43018326D01*
X130613226Y-43017386D01*
X130997297Y-43000617D01*
X131002706Y-43000500D01*
X131065892Y-43000500D01*
X177434108Y-43000500D01*
X177497294Y-43000500D01*
X177502702Y-43000617D01*
G37*
%TD.AperFunction*%
%TD*%
%TA.AperFunction,Conductor*%
%TO.N,/Enc_A1_A*%
G36*
X178602984Y-70654258D02*
G01*
X178603065Y-70654312D01*
X179296958Y-71117302D01*
X179301938Y-71124744D01*
X179301942Y-71124765D01*
X179463123Y-71939990D01*
X179461366Y-71948770D01*
X179453914Y-71953737D01*
X179451889Y-71953956D01*
X177924854Y-71985751D01*
X177916511Y-71982498D01*
X177912913Y-71974298D01*
X177912910Y-71974054D01*
X177912910Y-71689492D01*
X177914824Y-71683079D01*
X178283802Y-71119999D01*
X178586785Y-70657630D01*
X178594186Y-70652590D01*
X178602984Y-70654258D01*
G37*
%TD.AperFunction*%
%TD*%
%TA.AperFunction,Conductor*%
%TO.N,/Enc_A1_A*%
G36*
X135767272Y-79605411D02*
G01*
X135770781Y-79607824D01*
X135972174Y-79809217D01*
X135975601Y-79817490D01*
X135974826Y-79821678D01*
X135553827Y-80920041D01*
X135547666Y-80926539D01*
X135540632Y-80927331D01*
X134806979Y-80782227D01*
X134799528Y-80777260D01*
X134797771Y-80773019D01*
X134652667Y-80039366D01*
X134654424Y-80030585D01*
X134659954Y-80026172D01*
X135758323Y-79605172D01*
X135767272Y-79605411D01*
G37*
%TD.AperFunction*%
%TD*%
%TA.AperFunction,Conductor*%
%TO.N,/Enc_A2_B*%
G36*
X135549413Y-93334425D02*
G01*
X135553827Y-93339958D01*
X135974826Y-94438320D01*
X135974587Y-94447272D01*
X135972174Y-94450781D01*
X135770781Y-94652174D01*
X135762508Y-94655601D01*
X135758321Y-94654826D01*
X134659958Y-94233828D01*
X134653459Y-94227667D01*
X134652667Y-94220633D01*
X134797771Y-93486978D01*
X134802738Y-93479529D01*
X134806976Y-93477773D01*
X135540632Y-93332668D01*
X135549413Y-93334425D01*
G37*
%TD.AperFunction*%
%TD*%
%TA.AperFunction,Conductor*%
%TO.N,/Enc_A2_B*%
G36*
X178222562Y-104946005D02*
G01*
X179456477Y-105402872D01*
X179463045Y-105408957D01*
X179463891Y-105416114D01*
X179302227Y-106233022D01*
X179297260Y-106240473D01*
X179293021Y-106242228D01*
X178476113Y-106403892D01*
X178467332Y-106402137D01*
X178462871Y-106396478D01*
X178006005Y-105162565D01*
X178006346Y-105153619D01*
X178008701Y-105150235D01*
X178210232Y-104948704D01*
X178218504Y-104945278D01*
X178222562Y-104946005D01*
G37*
%TD.AperFunction*%
%TD*%
%TA.AperFunction,Conductor*%
%TO.N,/Enc_A2_A*%
G36*
X178222562Y-102406004D02*
G01*
X179456477Y-102862871D01*
X179463045Y-102868956D01*
X179463891Y-102876113D01*
X179302227Y-103693021D01*
X179297260Y-103700472D01*
X179293021Y-103702227D01*
X178476113Y-103863891D01*
X178467332Y-103862136D01*
X178462871Y-103856477D01*
X178006005Y-102622564D01*
X178006346Y-102613618D01*
X178008701Y-102610234D01*
X178210232Y-102408703D01*
X178218504Y-102405277D01*
X178222562Y-102406004D01*
G37*
%TD.AperFunction*%
%TD*%
%TA.AperFunction,Conductor*%
%TO.N,/Enc_A2_A*%
G36*
X135549414Y-90794425D02*
G01*
X135553828Y-90799958D01*
X135895093Y-91690301D01*
X135974827Y-91898321D01*
X135974588Y-91907273D01*
X135972175Y-91910782D01*
X135770782Y-92112175D01*
X135762509Y-92115602D01*
X135758322Y-92114827D01*
X134659958Y-91693828D01*
X134653460Y-91687667D01*
X134652668Y-91680633D01*
X134797772Y-90946978D01*
X134802739Y-90939529D01*
X134806977Y-90937773D01*
X135540633Y-90792668D01*
X135549414Y-90794425D01*
G37*
%TD.AperFunction*%
%TD*%
%TA.AperFunction,Conductor*%
%TO.N,/Enc_B2_B*%
G36*
X135549414Y-88254425D02*
G01*
X135553828Y-88259958D01*
X135895093Y-89150301D01*
X135974827Y-89358321D01*
X135974588Y-89367273D01*
X135972175Y-89370782D01*
X135770782Y-89572175D01*
X135762509Y-89575602D01*
X135758322Y-89574827D01*
X134659958Y-89153828D01*
X134653460Y-89147667D01*
X134652668Y-89140633D01*
X134797772Y-88406978D01*
X134802739Y-88399529D01*
X134806977Y-88397773D01*
X135540633Y-88252668D01*
X135549414Y-88254425D01*
G37*
%TD.AperFunction*%
%TD*%
%TA.AperFunction,Conductor*%
%TO.N,/Enc_B2_B*%
G36*
X179130763Y-89130936D02*
G01*
X179136427Y-89137872D01*
X179136696Y-89138945D01*
X179300046Y-89955233D01*
X179298309Y-89964018D01*
X179298295Y-89964039D01*
X178834278Y-90657021D01*
X178826827Y-90661988D01*
X178818046Y-90660233D01*
X178418559Y-90392385D01*
X177650584Y-89877475D01*
X177645621Y-89870021D01*
X177645400Y-89867757D01*
X177645400Y-89582698D01*
X177648827Y-89574425D01*
X177653727Y-89571495D01*
X179121854Y-89130037D01*
X179130763Y-89130936D01*
G37*
%TD.AperFunction*%
%TD*%
%TA.AperFunction,Conductor*%
%TO.N,/Enc_B2_A*%
G36*
X135549414Y-85714425D02*
G01*
X135553828Y-85719958D01*
X135895093Y-86610301D01*
X135974827Y-86818321D01*
X135974588Y-86827273D01*
X135972175Y-86830782D01*
X135770782Y-87032175D01*
X135762509Y-87035602D01*
X135758322Y-87034827D01*
X134659958Y-86613828D01*
X134653460Y-86607667D01*
X134652668Y-86600633D01*
X134797772Y-85866978D01*
X134802739Y-85859529D01*
X134806977Y-85857773D01*
X135540633Y-85712668D01*
X135549414Y-85714425D01*
G37*
%TD.AperFunction*%
%TD*%
%TA.AperFunction,Conductor*%
%TO.N,/Enc_B2_A*%
G36*
X179130763Y-86590935D02*
G01*
X179136427Y-86597871D01*
X179136696Y-86598944D01*
X179300046Y-87415232D01*
X179298309Y-87424017D01*
X179298295Y-87424038D01*
X178834278Y-88117020D01*
X178826827Y-88121987D01*
X178818046Y-88120232D01*
X178425329Y-87856924D01*
X177650583Y-87337475D01*
X177645620Y-87330021D01*
X177645399Y-87327757D01*
X177645399Y-87042698D01*
X177648826Y-87034425D01*
X177653726Y-87031495D01*
X179121854Y-86590036D01*
X179130763Y-86590935D01*
G37*
%TD.AperFunction*%
%TD*%
%TA.AperFunction,Conductor*%
%TO.N,/Enc_B1_A*%
G36*
X135767273Y-74525411D02*
G01*
X135770782Y-74527824D01*
X135972175Y-74729217D01*
X135975602Y-74737490D01*
X135974827Y-74741678D01*
X135553828Y-75840041D01*
X135547667Y-75846539D01*
X135540633Y-75847331D01*
X134806980Y-75702227D01*
X134799529Y-75697260D01*
X134797772Y-75693019D01*
X134652668Y-74959366D01*
X134654425Y-74950585D01*
X134659955Y-74946172D01*
X135758324Y-74525172D01*
X135767273Y-74525411D01*
G37*
%TD.AperFunction*%
%TD*%
%TA.AperFunction,Conductor*%
%TO.N,/Enc_B1_A*%
G36*
X178833503Y-54051821D02*
G01*
X179296640Y-54743490D01*
X179298395Y-54752271D01*
X179296640Y-54756510D01*
X178833121Y-55448750D01*
X178825670Y-55453717D01*
X178818884Y-55453034D01*
X177623518Y-54953005D01*
X177617208Y-54946651D01*
X177616333Y-54942211D01*
X177616333Y-54657225D01*
X177619760Y-54648952D01*
X177622790Y-54646765D01*
X178818543Y-54047869D01*
X178827473Y-54047229D01*
X178833503Y-54051821D01*
G37*
%TD.AperFunction*%
%TD*%
%TA.AperFunction,Conductor*%
%TO.N,/Enc_B1_B*%
G36*
X135767273Y-77065411D02*
G01*
X135770782Y-77067824D01*
X135972175Y-77269217D01*
X135975602Y-77277490D01*
X135974827Y-77281678D01*
X135553828Y-78380041D01*
X135547667Y-78386539D01*
X135540633Y-78387331D01*
X134806980Y-78242227D01*
X134799529Y-78237260D01*
X134797772Y-78233019D01*
X134652668Y-77499366D01*
X134654425Y-77490585D01*
X134659955Y-77486172D01*
X135758324Y-77065172D01*
X135767273Y-77065411D01*
G37*
%TD.AperFunction*%
%TD*%
%TA.AperFunction,Conductor*%
%TO.N,/Enc_B1_B*%
G36*
X178833312Y-56591536D02*
G01*
X179296640Y-57283491D01*
X179298395Y-57292272D01*
X179296640Y-57296511D01*
X178833312Y-57988465D01*
X178825861Y-57993432D01*
X178818704Y-57992586D01*
X178458039Y-57826831D01*
X177623147Y-57443132D01*
X177617061Y-57436563D01*
X177616333Y-57432501D01*
X177616333Y-57147500D01*
X177619760Y-57139227D01*
X177623145Y-57136870D01*
X178818706Y-56587414D01*
X178827652Y-56587074D01*
X178833312Y-56591536D01*
G37*
%TD.AperFunction*%
%TD*%
%TA.AperFunction,Conductor*%
%TO.N,/Enc_A1_B*%
G36*
X179231201Y-73645538D02*
G01*
X179293021Y-73657772D01*
X179300472Y-73662739D01*
X179302227Y-73666978D01*
X179463891Y-74483886D01*
X179462136Y-74492667D01*
X179456476Y-74497129D01*
X178222566Y-74953994D01*
X178213618Y-74953653D01*
X178210231Y-74951295D01*
X178008704Y-74749768D01*
X178005277Y-74741495D01*
X178006004Y-74737438D01*
X178462871Y-73503521D01*
X178468956Y-73496954D01*
X178476111Y-73496108D01*
X179231201Y-73645538D01*
G37*
%TD.AperFunction*%
%TD*%
%TA.AperFunction,Conductor*%
%TO.N,/Enc_A1_B*%
G36*
X135767272Y-82145411D02*
G01*
X135770781Y-82147824D01*
X135972174Y-82349217D01*
X135975601Y-82357490D01*
X135974826Y-82361678D01*
X135553827Y-83460041D01*
X135547666Y-83466539D01*
X135540632Y-83467331D01*
X134806979Y-83322227D01*
X134799528Y-83317260D01*
X134797771Y-83313019D01*
X134652667Y-82579366D01*
X134654424Y-82570585D01*
X134659954Y-82566172D01*
X135758323Y-82145172D01*
X135767272Y-82145411D01*
G37*
%TD.AperFunction*%
%TD*%
M02*
