%TF.GenerationSoftware,KiCad,Pcbnew,9.0.4*%
%TF.CreationDate,2026-03-23T18:57:01+01:00*%
%TF.ProjectId,Traveler,54726176-656c-4657-922e-6b696361645f,rev?*%
%TF.SameCoordinates,Original*%
%TF.FileFunction,Copper,L3,Inr*%
%TF.FilePolarity,Positive*%
%FSLAX46Y46*%
G04 Gerber Fmt 4.6, Leading zero omitted, Abs format (unit mm)*
G04 Created by KiCad (PCBNEW 9.0.4) date 2026-03-23 18:57:01*
%MOMM*%
%LPD*%
G01*
G04 APERTURE LIST*
G04 Aperture macros list*
%AMRoundRect*
0 Rectangle with rounded corners*
0 $1 Rounding radius*
0 $2 $3 $4 $5 $6 $7 $8 $9 X,Y pos of 4 corners*
0 Add a 4 corners polygon primitive as box body*
4,1,4,$2,$3,$4,$5,$6,$7,$8,$9,$2,$3,0*
0 Add four circle primitives for the rounded corners*
1,1,$1+$1,$2,$3*
1,1,$1+$1,$4,$5*
1,1,$1+$1,$6,$7*
1,1,$1+$1,$8,$9*
0 Add four rect primitives between the rounded corners*
20,1,$1+$1,$2,$3,$4,$5,0*
20,1,$1+$1,$4,$5,$6,$7,0*
20,1,$1+$1,$6,$7,$8,$9,0*
20,1,$1+$1,$8,$9,$2,$3,0*%
G04 Aperture macros list end*
%TA.AperFunction,ComponentPad*%
%ADD10C,3.100000*%
%TD*%
%TA.AperFunction,ComponentPad*%
%ADD11C,1.700000*%
%TD*%
%TA.AperFunction,ComponentPad*%
%ADD12R,1.700000X1.700000*%
%TD*%
%TA.AperFunction,ComponentPad*%
%ADD13C,1.530000*%
%TD*%
%TA.AperFunction,ComponentPad*%
%ADD14R,1.530000X1.530000*%
%TD*%
%TA.AperFunction,ComponentPad*%
%ADD15O,2.000000X1.700000*%
%TD*%
%TA.AperFunction,ComponentPad*%
%ADD16RoundRect,0.250000X-0.750000X0.600000X-0.750000X-0.600000X0.750000X-0.600000X0.750000X0.600000X0*%
%TD*%
%TA.AperFunction,ViaPad*%
%ADD17C,0.800000*%
%TD*%
%TA.AperFunction,Conductor*%
%ADD18C,0.500000*%
%TD*%
G04 APERTURE END LIST*
D10*
%TO.N,GND*%
%TO.C,H4*%
X130000000Y-108000000D03*
%TD*%
D11*
%TO.N,/A1OUT1*%
%TO.C,J1*%
X179300000Y-78740000D03*
%TO.N,5V*%
X179300000Y-76200000D03*
%TO.N,/Enc_A1_B*%
X179300000Y-73660000D03*
%TO.N,/Enc_A1_A*%
X179300000Y-71119999D03*
%TO.N,GND*%
X179300000Y-68580000D03*
D12*
%TO.N,/A1OUT2*%
X179300000Y-66040000D03*
%TD*%
D10*
%TO.N,GND*%
%TO.C,H1*%
X173000000Y-47000000D03*
%TD*%
%TO.N,GND*%
%TO.C,H3*%
X152500000Y-108000000D03*
%TD*%
D11*
%TO.N,/A2OUT1*%
%TO.C,J3*%
X179300000Y-111320001D03*
%TO.N,5V*%
X179300000Y-108780001D03*
%TO.N,/Enc_A2_B*%
X179300000Y-106240001D03*
%TO.N,/Enc_A2_A*%
X179300000Y-103700000D03*
%TO.N,GND*%
X179300000Y-101160001D03*
D12*
%TO.N,/A2OUT2*%
X179300000Y-98620001D03*
%TD*%
D11*
%TO.N,/B1OUT2*%
%TO.C,J2*%
X179300000Y-62370001D03*
%TO.N,5V*%
X179300000Y-59830001D03*
%TO.N,/Enc_B1_B*%
X179300000Y-57290001D03*
%TO.N,/Enc_B1_A*%
X179300000Y-54750000D03*
%TO.N,GND*%
X179300000Y-52210001D03*
D12*
%TO.N,/B1OUT1*%
X179300000Y-49670001D03*
%TD*%
D13*
%TO.N,GND*%
%TO.C,U1*%
X160200000Y-65540000D03*
%TO.N,unconnected-(U1-IO23-Pad37)*%
X160200000Y-68080000D03*
%TO.N,LED_conn_bt*%
X160200001Y-70620000D03*
%TO.N,unconnected-(U1-TXD0-Pad35)*%
X160200000Y-73160000D03*
%TO.N,unconnected-(U1-RXD0-Pad34)*%
X160200000Y-75700000D03*
%TO.N,LED_spare1*%
X160200000Y-78240000D03*
%TO.N,GND*%
X160200001Y-80780000D03*
%TO.N,LED_spare2*%
X160200001Y-83320000D03*
%TO.N,B1IN1*%
X160200000Y-85860000D03*
%TO.N,B1IN2*%
X160200000Y-88400000D03*
%TO.N,A1IN2*%
X160200000Y-90940000D03*
%TO.N,A1IN1*%
X160200001Y-93480000D03*
%TO.N,B2IN1*%
X160200000Y-96020000D03*
%TO.N,B2IN2*%
X160200000Y-98560000D03*
%TO.N,A2IN2*%
X160200000Y-101100000D03*
%TO.N,A2IN1*%
X160200001Y-103640000D03*
%TO.N,unconnected-(U1-SD1-Pad22)*%
X160200000Y-106180001D03*
%TO.N,unconnected-(U1-SD0-Pad21)*%
X160200000Y-108720000D03*
%TO.N,unconnected-(U1-CLK-Pad20)*%
X160200000Y-111260000D03*
%TO.N,5V*%
X134800000Y-111260000D03*
%TO.N,unconnected-(U1-CMD-Pad18)*%
X134800000Y-108720000D03*
%TO.N,unconnected-(U1-SD3-Pad17)*%
X134800000Y-106180001D03*
%TO.N,unconnected-(U1-SD2-Pad16)*%
X134799999Y-103640000D03*
%TO.N,unconnected-(U1-IO13-Pad15)*%
X134800000Y-101100000D03*
%TO.N,GND*%
X134800000Y-98560000D03*
%TO.N,unconnected-(U1-IO12-Pad13)*%
X134800000Y-96020000D03*
%TO.N,/Enc_A2_B*%
X134799999Y-93480000D03*
%TO.N,/Enc_A2_A*%
X134800000Y-90940000D03*
%TO.N,/Enc_B2_B*%
X134800000Y-88400000D03*
%TO.N,/Enc_B2_A*%
X134800000Y-85860000D03*
%TO.N,/Enc_A1_B*%
X134799999Y-83320000D03*
%TO.N,/Enc_A1_A*%
X134799999Y-80780000D03*
%TO.N,/Enc_B1_B*%
X134800000Y-78240000D03*
%TO.N,/Enc_B1_A*%
X134800000Y-75700000D03*
%TO.N,unconnected-(U1-SENSOR_VN-Pad4)*%
X134800000Y-73160000D03*
%TO.N,unconnected-(U1-SENSOR_VP-Pad3)*%
X134799999Y-70620000D03*
%TO.N,unconnected-(U1-EN-Pad2)*%
X134800000Y-68080000D03*
D14*
%TO.N,unconnected-(U1-3V3-Pad1)*%
X134800000Y-65540000D03*
%TD*%
D11*
%TO.N,/B2OUT2*%
%TO.C,J4*%
X179300000Y-95040000D03*
%TO.N,5V*%
X179300000Y-92500000D03*
%TO.N,/Enc_B2_B*%
X179300000Y-89960000D03*
%TO.N,/Enc_B2_A*%
X179300000Y-87419999D03*
%TO.N,GND*%
X179300000Y-84880000D03*
D12*
%TO.N,/B2OUT1*%
X179300000Y-82340000D03*
%TD*%
D15*
%TO.N,GND*%
%TO.C,J5*%
X135650000Y-51658250D03*
D16*
%TO.N,Net-(J5-Pin_1)*%
X135650000Y-49158250D03*
%TD*%
D10*
%TO.N,GND*%
%TO.C,H2*%
X130000000Y-47000000D03*
%TD*%
D17*
%TO.N,GND*%
X140000000Y-85000000D03*
X145000000Y-85000000D03*
X150000000Y-85000000D03*
X155000000Y-85000000D03*
X167798959Y-48148959D03*
X160000000Y-60000000D03*
X155000000Y-60000000D03*
X140000000Y-65000000D03*
X170000000Y-105000000D03*
X165000000Y-95000000D03*
X170000000Y-95000000D03*
X170000000Y-80000000D03*
X170000000Y-85000000D03*
X175000000Y-80000000D03*
X175000000Y-85000000D03*
X171900000Y-45250000D03*
X151900000Y-45250000D03*
X131900000Y-50250000D03*
X136900000Y-45250000D03*
X141900000Y-45250000D03*
X146900000Y-45250000D03*
X146900000Y-50250000D03*
X145000000Y-60000000D03*
X140000000Y-60000000D03*
X151900000Y-55250000D03*
X146900000Y-55250000D03*
X135000000Y-60000000D03*
X131900000Y-55250000D03*
X136900000Y-55250000D03*
X141900000Y-55250000D03*
X130000000Y-60000000D03*
X130000000Y-65000000D03*
X130000000Y-70000000D03*
X130000000Y-75000000D03*
X130000000Y-80000000D03*
X130000000Y-85000000D03*
X130000000Y-90000000D03*
X130000000Y-95000000D03*
X130000000Y-100000000D03*
X140000000Y-110000000D03*
X145000000Y-110000000D03*
X145000000Y-105000000D03*
X140000000Y-105000000D03*
X145000000Y-95000000D03*
X150000000Y-95000000D03*
X155000000Y-95000000D03*
X140000000Y-80000000D03*
X145000000Y-75000000D03*
X145000000Y-80000000D03*
X155000000Y-80000000D03*
X150000000Y-80000000D03*
X150000000Y-75000000D03*
X155000000Y-75000000D03*
X150000000Y-65000000D03*
X155000000Y-65000000D03*
X155000000Y-70000000D03*
X150000000Y-70000000D03*
X171300000Y-60100000D03*
X163800000Y-60100000D03*
%TO.N,6V*%
X168900000Y-68850000D03*
%TO.N,5V*%
X167600000Y-66600000D03*
X172900000Y-113100000D03*
%TO.N,GND*%
X165003498Y-110276000D03*
%TO.N,6V*%
X164600000Y-108000000D03*
%TO.N,5V*%
X173200000Y-76800000D03*
%TO.N,GND*%
X165907498Y-74558461D03*
%TO.N,6V*%
X164400000Y-73000000D03*
%TO.N,5V*%
X170400000Y-53550000D03*
%TO.N,6V*%
X156854759Y-47253322D03*
%TO.N,GND*%
X138500000Y-51850000D03*
X153100000Y-51850000D03*
%TD*%
D18*
%TO.N,6V*%
X162500000Y-64548564D02*
X166775718Y-68824282D01*
X162500000Y-52898563D02*
X162500000Y-64548564D01*
X156854759Y-47253322D02*
X162500000Y-52898563D01*
X168900000Y-68850000D02*
X167200000Y-68850000D01*
%TO.N,5V*%
X173750000Y-56900000D02*
X173750000Y-61250000D01*
X173750000Y-61250000D02*
X168400000Y-66600000D01*
X170400000Y-53550000D02*
X173750000Y-56900000D01*
X173768999Y-61231001D02*
X173750000Y-61250000D01*
X168400000Y-66600000D02*
X167600000Y-66600000D01*
X177899000Y-61231001D02*
X173768999Y-61231001D01*
X136640000Y-113100000D02*
X172900000Y-113100000D01*
X134800000Y-111260000D02*
X136640000Y-113100000D01*
%TO.N,6V*%
X163849000Y-73551000D02*
X164400000Y-73000000D01*
X163849000Y-107249000D02*
X163849000Y-73551000D01*
X164600000Y-108000000D02*
X163849000Y-107249000D01*
X164400000Y-72300000D02*
X166775718Y-69924282D01*
X164400000Y-73000000D02*
X164400000Y-72300000D01*
X166775718Y-69924282D02*
X166775718Y-69200000D01*
X167125718Y-68850000D02*
X166775718Y-69200000D01*
X167200000Y-68850000D02*
X167125718Y-68850000D01*
X167200000Y-68850000D02*
X166801436Y-68850000D01*
X166775718Y-68824282D02*
X166775718Y-69200000D01*
X166801436Y-68850000D02*
X166775718Y-68824282D01*
%TO.N,5V*%
X177899000Y-61231001D02*
X179300000Y-59830001D01*
X177899000Y-74799000D02*
X177899000Y-61231001D01*
X179300000Y-76200000D02*
X177899000Y-74799000D01*
X174000000Y-77600000D02*
X173200000Y-76800000D01*
X177900000Y-77600000D02*
X174000000Y-77600000D01*
X177900000Y-77600000D02*
X179300000Y-76200000D01*
X177900000Y-91100000D02*
X177900000Y-77600000D01*
X179300000Y-92500000D02*
X177900000Y-91100000D01*
X177899000Y-93901000D02*
X179300000Y-92500000D01*
X177899000Y-107379001D02*
X177899000Y-93901000D01*
X179300000Y-108780001D02*
X177899000Y-107379001D01*
X174980001Y-113100000D02*
X172900000Y-113100000D01*
X179300000Y-108780001D02*
X174980001Y-113100000D01*
%TD*%
%TA.AperFunction,Conductor*%
%TO.N,5V*%
G36*
X135440940Y-110845806D02*
G01*
X135441817Y-110847371D01*
X136044816Y-112147286D01*
X136045188Y-112156233D01*
X136042475Y-112160482D01*
X135700482Y-112502475D01*
X135692209Y-112505902D01*
X135687286Y-112504816D01*
X135682239Y-112502475D01*
X135528312Y-112431071D01*
X134387371Y-111901817D01*
X134381308Y-111895227D01*
X134381680Y-111886280D01*
X134382552Y-111884722D01*
X134797996Y-111261238D01*
X134801238Y-111257996D01*
X135424716Y-110842556D01*
X135433500Y-110840822D01*
X135440940Y-110845806D01*
G37*
%TD.AperFunction*%
%TD*%
%TA.AperFunction,Conductor*%
%TO.N,5V*%
G36*
X178603059Y-59364505D02*
G01*
X178604795Y-59365460D01*
X179298758Y-59827995D01*
X179302005Y-59831242D01*
X179764540Y-60525205D01*
X179766277Y-60533990D01*
X179761293Y-60541430D01*
X179759557Y-60542385D01*
X178293587Y-61194045D01*
X178284635Y-61194274D01*
X178280561Y-61191627D01*
X177938373Y-60849439D01*
X177934946Y-60841166D01*
X177935954Y-60836415D01*
X178587616Y-59370441D01*
X178594107Y-59364276D01*
X178603059Y-59364505D01*
G37*
%TD.AperFunction*%
%TD*%
%TA.AperFunction,Conductor*%
%TO.N,5V*%
G36*
X178293586Y-74835954D02*
G01*
X179759557Y-75487615D01*
X179765724Y-75494107D01*
X179765495Y-75503059D01*
X179764540Y-75504795D01*
X179302005Y-76198758D01*
X179298758Y-76202005D01*
X178604795Y-76664540D01*
X178596010Y-76666277D01*
X178588570Y-76661293D01*
X178587615Y-76659557D01*
X178382778Y-76198758D01*
X177935954Y-75193586D01*
X177935726Y-75184635D01*
X177938371Y-75180563D01*
X178280562Y-74838372D01*
X178288834Y-74834946D01*
X178293586Y-74835954D01*
G37*
%TD.AperFunction*%
%TD*%
%TA.AperFunction,Conductor*%
%TO.N,5V*%
G36*
X178603059Y-75734504D02*
G01*
X178604795Y-75735459D01*
X179298758Y-76197994D01*
X179302005Y-76201241D01*
X179764540Y-76895204D01*
X179766277Y-76903989D01*
X179761293Y-76911429D01*
X179759557Y-76912384D01*
X178293587Y-77564044D01*
X178284635Y-77564273D01*
X178280561Y-77561626D01*
X177938373Y-77219438D01*
X177934946Y-77211165D01*
X177935954Y-77206414D01*
X178587616Y-75740440D01*
X178594107Y-75734275D01*
X178603059Y-75734504D01*
G37*
%TD.AperFunction*%
%TD*%
%TA.AperFunction,Conductor*%
%TO.N,5V*%
G36*
X178293586Y-91135954D02*
G01*
X179759557Y-91787615D01*
X179765724Y-91794107D01*
X179765495Y-91803059D01*
X179764540Y-91804795D01*
X179302005Y-92498758D01*
X179298758Y-92502005D01*
X178604795Y-92964540D01*
X178596010Y-92966277D01*
X178588570Y-92961293D01*
X178587615Y-92959557D01*
X178382778Y-92498758D01*
X177935954Y-91493586D01*
X177935726Y-91484635D01*
X177938371Y-91480563D01*
X178280562Y-91138372D01*
X178288834Y-91134946D01*
X178293586Y-91135954D01*
G37*
%TD.AperFunction*%
%TD*%
%TA.AperFunction,Conductor*%
%TO.N,5V*%
G36*
X178603059Y-92034504D02*
G01*
X178604795Y-92035459D01*
X179298758Y-92497994D01*
X179302005Y-92501241D01*
X179764540Y-93195204D01*
X179766277Y-93203989D01*
X179761293Y-93211429D01*
X179759557Y-93212384D01*
X178293587Y-93864044D01*
X178284635Y-93864273D01*
X178280561Y-93861626D01*
X177938373Y-93519438D01*
X177934946Y-93511165D01*
X177935954Y-93506414D01*
X178587616Y-92040440D01*
X178594107Y-92034275D01*
X178603059Y-92034504D01*
G37*
%TD.AperFunction*%
%TD*%
%TA.AperFunction,Conductor*%
%TO.N,5V*%
G36*
X178293586Y-107415955D02*
G01*
X179759557Y-108067616D01*
X179765724Y-108074108D01*
X179765495Y-108083060D01*
X179764540Y-108084796D01*
X179302005Y-108778759D01*
X179298758Y-108782006D01*
X178604795Y-109244541D01*
X178596010Y-109246278D01*
X178588570Y-109241294D01*
X178587615Y-109239558D01*
X178382778Y-108778759D01*
X177935954Y-107773587D01*
X177935726Y-107764636D01*
X177938371Y-107760564D01*
X178280562Y-107418373D01*
X178288834Y-107414947D01*
X178293586Y-107415955D01*
G37*
%TD.AperFunction*%
%TD*%
%TA.AperFunction,Conductor*%
%TO.N,5V*%
G36*
X178603059Y-108314505D02*
G01*
X178604795Y-108315460D01*
X179298758Y-108777995D01*
X179302005Y-108781242D01*
X179764540Y-109475205D01*
X179766277Y-109483990D01*
X179761293Y-109491430D01*
X179759557Y-109492385D01*
X178293587Y-110144045D01*
X178284635Y-110144274D01*
X178280561Y-110141627D01*
X177938373Y-109799439D01*
X177934946Y-109791166D01*
X177935954Y-109786415D01*
X178587616Y-108320441D01*
X178594107Y-108314276D01*
X178603059Y-108314505D01*
G37*
%TD.AperFunction*%
%TD*%
M02*
