%TF.GenerationSoftware,KiCad,Pcbnew,9.0.4*%
%TF.CreationDate,2026-03-23T18:57:01+01:00*%
%TF.ProjectId,Traveler,54726176-656c-4657-922e-6b696361645f,rev?*%
%TF.SameCoordinates,Original*%
%TF.FileFunction,Legend,Top*%
%TF.FilePolarity,Positive*%
%FSLAX46Y46*%
G04 Gerber Fmt 4.6, Leading zero omitted, Abs format (unit mm)*
G04 Created by KiCad (PCBNEW 9.0.4) date 2026-03-23 18:57:01*
%MOMM*%
%LPD*%
G01*
G04 APERTURE LIST*
%ADD10C,0.150000*%
%ADD11C,0.100000*%
%ADD12C,0.200000*%
%ADD13C,0.400000*%
%ADD14C,0.120000*%
%ADD15C,0.127000*%
G04 APERTURE END LIST*
D10*
X167988095Y-49204819D02*
X167988095Y-50014342D01*
X167988095Y-50014342D02*
X168035714Y-50109580D01*
X168035714Y-50109580D02*
X168083333Y-50157200D01*
X168083333Y-50157200D02*
X168178571Y-50204819D01*
X168178571Y-50204819D02*
X168369047Y-50204819D01*
X168369047Y-50204819D02*
X168464285Y-50157200D01*
X168464285Y-50157200D02*
X168511904Y-50109580D01*
X168511904Y-50109580D02*
X168559523Y-50014342D01*
X168559523Y-50014342D02*
X168559523Y-49204819D01*
X168988095Y-49300057D02*
X169035714Y-49252438D01*
X169035714Y-49252438D02*
X169130952Y-49204819D01*
X169130952Y-49204819D02*
X169369047Y-49204819D01*
X169369047Y-49204819D02*
X169464285Y-49252438D01*
X169464285Y-49252438D02*
X169511904Y-49300057D01*
X169511904Y-49300057D02*
X169559523Y-49395295D01*
X169559523Y-49395295D02*
X169559523Y-49490533D01*
X169559523Y-49490533D02*
X169511904Y-49633390D01*
X169511904Y-49633390D02*
X168940476Y-50204819D01*
X168940476Y-50204819D02*
X169559523Y-50204819D01*
X160689819Y-54273809D02*
X160689819Y-54845237D01*
X160689819Y-54559523D02*
X159689819Y-54559523D01*
X159689819Y-54559523D02*
X159832676Y-54654761D01*
X159832676Y-54654761D02*
X159927914Y-54749999D01*
X159927914Y-54749999D02*
X159975533Y-54845237D01*
X159689819Y-53940475D02*
X159689819Y-53273809D01*
X159689819Y-53273809D02*
X160689819Y-53702380D01*
X160689819Y-52369047D02*
X160689819Y-52940475D01*
X160689819Y-52654761D02*
X159689819Y-52654761D01*
X159689819Y-52654761D02*
X159832676Y-52749999D01*
X159832676Y-52749999D02*
X159927914Y-52845237D01*
X159927914Y-52845237D02*
X159975533Y-52940475D01*
X159689819Y-51749999D02*
X159689819Y-51654761D01*
X159689819Y-51654761D02*
X159737438Y-51559523D01*
X159737438Y-51559523D02*
X159785057Y-51511904D01*
X159785057Y-51511904D02*
X159880295Y-51464285D01*
X159880295Y-51464285D02*
X160070771Y-51416666D01*
X160070771Y-51416666D02*
X160308866Y-51416666D01*
X160308866Y-51416666D02*
X160499342Y-51464285D01*
X160499342Y-51464285D02*
X160594580Y-51511904D01*
X160594580Y-51511904D02*
X160642200Y-51559523D01*
X160642200Y-51559523D02*
X160689819Y-51654761D01*
X160689819Y-51654761D02*
X160689819Y-51749999D01*
X160689819Y-51749999D02*
X160642200Y-51845237D01*
X160642200Y-51845237D02*
X160594580Y-51892856D01*
X160594580Y-51892856D02*
X160499342Y-51940475D01*
X160499342Y-51940475D02*
X160308866Y-51988094D01*
X160308866Y-51988094D02*
X160070771Y-51988094D01*
X160070771Y-51988094D02*
X159880295Y-51940475D01*
X159880295Y-51940475D02*
X159785057Y-51892856D01*
X159785057Y-51892856D02*
X159737438Y-51845237D01*
X159737438Y-51845237D02*
X159689819Y-51749999D01*
X160689819Y-50464285D02*
X160689819Y-51035713D01*
X160689819Y-50749999D02*
X159689819Y-50749999D01*
X159689819Y-50749999D02*
X159832676Y-50845237D01*
X159832676Y-50845237D02*
X159927914Y-50940475D01*
X159927914Y-50940475D02*
X159975533Y-51035713D01*
X159689819Y-50130951D02*
X159689819Y-49511904D01*
X159689819Y-49511904D02*
X160070771Y-49845237D01*
X160070771Y-49845237D02*
X160070771Y-49702380D01*
X160070771Y-49702380D02*
X160118390Y-49607142D01*
X160118390Y-49607142D02*
X160166009Y-49559523D01*
X160166009Y-49559523D02*
X160261247Y-49511904D01*
X160261247Y-49511904D02*
X160499342Y-49511904D01*
X160499342Y-49511904D02*
X160594580Y-49559523D01*
X160594580Y-49559523D02*
X160642200Y-49607142D01*
X160642200Y-49607142D02*
X160689819Y-49702380D01*
X160689819Y-49702380D02*
X160689819Y-49988094D01*
X160689819Y-49988094D02*
X160642200Y-50083332D01*
X160642200Y-50083332D02*
X160594580Y-50130951D01*
X160118390Y-48940475D02*
X160070771Y-49035713D01*
X160070771Y-49035713D02*
X160023152Y-49083332D01*
X160023152Y-49083332D02*
X159927914Y-49130951D01*
X159927914Y-49130951D02*
X159880295Y-49130951D01*
X159880295Y-49130951D02*
X159785057Y-49083332D01*
X159785057Y-49083332D02*
X159737438Y-49035713D01*
X159737438Y-49035713D02*
X159689819Y-48940475D01*
X159689819Y-48940475D02*
X159689819Y-48749999D01*
X159689819Y-48749999D02*
X159737438Y-48654761D01*
X159737438Y-48654761D02*
X159785057Y-48607142D01*
X159785057Y-48607142D02*
X159880295Y-48559523D01*
X159880295Y-48559523D02*
X159927914Y-48559523D01*
X159927914Y-48559523D02*
X160023152Y-48607142D01*
X160023152Y-48607142D02*
X160070771Y-48654761D01*
X160070771Y-48654761D02*
X160118390Y-48749999D01*
X160118390Y-48749999D02*
X160118390Y-48940475D01*
X160118390Y-48940475D02*
X160166009Y-49035713D01*
X160166009Y-49035713D02*
X160213628Y-49083332D01*
X160213628Y-49083332D02*
X160308866Y-49130951D01*
X160308866Y-49130951D02*
X160499342Y-49130951D01*
X160499342Y-49130951D02*
X160594580Y-49083332D01*
X160594580Y-49083332D02*
X160642200Y-49035713D01*
X160642200Y-49035713D02*
X160689819Y-48940475D01*
X160689819Y-48940475D02*
X160689819Y-48749999D01*
X160689819Y-48749999D02*
X160642200Y-48654761D01*
X160642200Y-48654761D02*
X160594580Y-48607142D01*
X160594580Y-48607142D02*
X160499342Y-48559523D01*
X160499342Y-48559523D02*
X160308866Y-48559523D01*
X160308866Y-48559523D02*
X160213628Y-48607142D01*
X160213628Y-48607142D02*
X160166009Y-48654761D01*
X160166009Y-48654761D02*
X160118390Y-48749999D01*
X159689819Y-47940475D02*
X159689819Y-47845237D01*
X159689819Y-47845237D02*
X159737438Y-47749999D01*
X159737438Y-47749999D02*
X159785057Y-47702380D01*
X159785057Y-47702380D02*
X159880295Y-47654761D01*
X159880295Y-47654761D02*
X160070771Y-47607142D01*
X160070771Y-47607142D02*
X160308866Y-47607142D01*
X160308866Y-47607142D02*
X160499342Y-47654761D01*
X160499342Y-47654761D02*
X160594580Y-47702380D01*
X160594580Y-47702380D02*
X160642200Y-47749999D01*
X160642200Y-47749999D02*
X160689819Y-47845237D01*
X160689819Y-47845237D02*
X160689819Y-47940475D01*
X160689819Y-47940475D02*
X160642200Y-48035713D01*
X160642200Y-48035713D02*
X160594580Y-48083332D01*
X160594580Y-48083332D02*
X160499342Y-48130951D01*
X160499342Y-48130951D02*
X160308866Y-48178570D01*
X160308866Y-48178570D02*
X160070771Y-48178570D01*
X160070771Y-48178570D02*
X159880295Y-48130951D01*
X159880295Y-48130951D02*
X159785057Y-48083332D01*
X159785057Y-48083332D02*
X159737438Y-48035713D01*
X159737438Y-48035713D02*
X159689819Y-47940475D01*
X160689819Y-46654761D02*
X160689819Y-47226189D01*
X160689819Y-46940475D02*
X159689819Y-46940475D01*
X159689819Y-46940475D02*
X159832676Y-47035713D01*
X159832676Y-47035713D02*
X159927914Y-47130951D01*
X159927914Y-47130951D02*
X159975533Y-47226189D01*
X156833333Y-44859580D02*
X156785714Y-44907200D01*
X156785714Y-44907200D02*
X156642857Y-44954819D01*
X156642857Y-44954819D02*
X156547619Y-44954819D01*
X156547619Y-44954819D02*
X156404762Y-44907200D01*
X156404762Y-44907200D02*
X156309524Y-44811961D01*
X156309524Y-44811961D02*
X156261905Y-44716723D01*
X156261905Y-44716723D02*
X156214286Y-44526247D01*
X156214286Y-44526247D02*
X156214286Y-44383390D01*
X156214286Y-44383390D02*
X156261905Y-44192914D01*
X156261905Y-44192914D02*
X156309524Y-44097676D01*
X156309524Y-44097676D02*
X156404762Y-44002438D01*
X156404762Y-44002438D02*
X156547619Y-43954819D01*
X156547619Y-43954819D02*
X156642857Y-43954819D01*
X156642857Y-43954819D02*
X156785714Y-44002438D01*
X156785714Y-44002438D02*
X156833333Y-44050057D01*
X157738095Y-43954819D02*
X157261905Y-43954819D01*
X157261905Y-43954819D02*
X157214286Y-44431009D01*
X157214286Y-44431009D02*
X157261905Y-44383390D01*
X157261905Y-44383390D02*
X157357143Y-44335771D01*
X157357143Y-44335771D02*
X157595238Y-44335771D01*
X157595238Y-44335771D02*
X157690476Y-44383390D01*
X157690476Y-44383390D02*
X157738095Y-44431009D01*
X157738095Y-44431009D02*
X157785714Y-44526247D01*
X157785714Y-44526247D02*
X157785714Y-44764342D01*
X157785714Y-44764342D02*
X157738095Y-44859580D01*
X157738095Y-44859580D02*
X157690476Y-44907200D01*
X157690476Y-44907200D02*
X157595238Y-44954819D01*
X157595238Y-44954819D02*
X157357143Y-44954819D01*
X157357143Y-44954819D02*
X157261905Y-44907200D01*
X157261905Y-44907200D02*
X157214286Y-44859580D01*
X161833333Y-44954819D02*
X161500000Y-44478628D01*
X161261905Y-44954819D02*
X161261905Y-43954819D01*
X161261905Y-43954819D02*
X161642857Y-43954819D01*
X161642857Y-43954819D02*
X161738095Y-44002438D01*
X161738095Y-44002438D02*
X161785714Y-44050057D01*
X161785714Y-44050057D02*
X161833333Y-44145295D01*
X161833333Y-44145295D02*
X161833333Y-44288152D01*
X161833333Y-44288152D02*
X161785714Y-44383390D01*
X161785714Y-44383390D02*
X161738095Y-44431009D01*
X161738095Y-44431009D02*
X161642857Y-44478628D01*
X161642857Y-44478628D02*
X161261905Y-44478628D01*
X162166667Y-43954819D02*
X162833333Y-43954819D01*
X162833333Y-43954819D02*
X162404762Y-44954819D01*
X159954819Y-54666666D02*
X159478628Y-54999999D01*
X159954819Y-55238094D02*
X158954819Y-55238094D01*
X158954819Y-55238094D02*
X158954819Y-54857142D01*
X158954819Y-54857142D02*
X159002438Y-54761904D01*
X159002438Y-54761904D02*
X159050057Y-54714285D01*
X159050057Y-54714285D02*
X159145295Y-54666666D01*
X159145295Y-54666666D02*
X159288152Y-54666666D01*
X159288152Y-54666666D02*
X159383390Y-54714285D01*
X159383390Y-54714285D02*
X159431009Y-54761904D01*
X159431009Y-54761904D02*
X159478628Y-54857142D01*
X159478628Y-54857142D02*
X159478628Y-55238094D01*
X159954819Y-54190475D02*
X159954819Y-53999999D01*
X159954819Y-53999999D02*
X159907200Y-53904761D01*
X159907200Y-53904761D02*
X159859580Y-53857142D01*
X159859580Y-53857142D02*
X159716723Y-53761904D01*
X159716723Y-53761904D02*
X159526247Y-53714285D01*
X159526247Y-53714285D02*
X159145295Y-53714285D01*
X159145295Y-53714285D02*
X159050057Y-53761904D01*
X159050057Y-53761904D02*
X159002438Y-53809523D01*
X159002438Y-53809523D02*
X158954819Y-53904761D01*
X158954819Y-53904761D02*
X158954819Y-54095237D01*
X158954819Y-54095237D02*
X159002438Y-54190475D01*
X159002438Y-54190475D02*
X159050057Y-54238094D01*
X159050057Y-54238094D02*
X159145295Y-54285713D01*
X159145295Y-54285713D02*
X159383390Y-54285713D01*
X159383390Y-54285713D02*
X159478628Y-54238094D01*
X159478628Y-54238094D02*
X159526247Y-54190475D01*
X159526247Y-54190475D02*
X159573866Y-54095237D01*
X159573866Y-54095237D02*
X159573866Y-53904761D01*
X159573866Y-53904761D02*
X159526247Y-53809523D01*
X159526247Y-53809523D02*
X159478628Y-53761904D01*
X159478628Y-53761904D02*
X159383390Y-53714285D01*
X160609580Y-48466666D02*
X160657200Y-48514285D01*
X160657200Y-48514285D02*
X160704819Y-48657142D01*
X160704819Y-48657142D02*
X160704819Y-48752380D01*
X160704819Y-48752380D02*
X160657200Y-48895237D01*
X160657200Y-48895237D02*
X160561961Y-48990475D01*
X160561961Y-48990475D02*
X160466723Y-49038094D01*
X160466723Y-49038094D02*
X160276247Y-49085713D01*
X160276247Y-49085713D02*
X160133390Y-49085713D01*
X160133390Y-49085713D02*
X159942914Y-49038094D01*
X159942914Y-49038094D02*
X159847676Y-48990475D01*
X159847676Y-48990475D02*
X159752438Y-48895237D01*
X159752438Y-48895237D02*
X159704819Y-48752380D01*
X159704819Y-48752380D02*
X159704819Y-48657142D01*
X159704819Y-48657142D02*
X159752438Y-48514285D01*
X159752438Y-48514285D02*
X159800057Y-48466666D01*
X159704819Y-47609523D02*
X159704819Y-47799999D01*
X159704819Y-47799999D02*
X159752438Y-47895237D01*
X159752438Y-47895237D02*
X159800057Y-47942856D01*
X159800057Y-47942856D02*
X159942914Y-48038094D01*
X159942914Y-48038094D02*
X160133390Y-48085713D01*
X160133390Y-48085713D02*
X160514342Y-48085713D01*
X160514342Y-48085713D02*
X160609580Y-48038094D01*
X160609580Y-48038094D02*
X160657200Y-47990475D01*
X160657200Y-47990475D02*
X160704819Y-47895237D01*
X160704819Y-47895237D02*
X160704819Y-47704761D01*
X160704819Y-47704761D02*
X160657200Y-47609523D01*
X160657200Y-47609523D02*
X160609580Y-47561904D01*
X160609580Y-47561904D02*
X160514342Y-47514285D01*
X160514342Y-47514285D02*
X160276247Y-47514285D01*
X160276247Y-47514285D02*
X160181009Y-47561904D01*
X160181009Y-47561904D02*
X160133390Y-47609523D01*
X160133390Y-47609523D02*
X160085771Y-47704761D01*
X160085771Y-47704761D02*
X160085771Y-47895237D01*
X160085771Y-47895237D02*
X160133390Y-47990475D01*
X160133390Y-47990475D02*
X160181009Y-48038094D01*
X160181009Y-48038094D02*
X160276247Y-48085713D01*
X163083333Y-57359580D02*
X163035714Y-57407200D01*
X163035714Y-57407200D02*
X162892857Y-57454819D01*
X162892857Y-57454819D02*
X162797619Y-57454819D01*
X162797619Y-57454819D02*
X162654762Y-57407200D01*
X162654762Y-57407200D02*
X162559524Y-57311961D01*
X162559524Y-57311961D02*
X162511905Y-57216723D01*
X162511905Y-57216723D02*
X162464286Y-57026247D01*
X162464286Y-57026247D02*
X162464286Y-56883390D01*
X162464286Y-56883390D02*
X162511905Y-56692914D01*
X162511905Y-56692914D02*
X162559524Y-56597676D01*
X162559524Y-56597676D02*
X162654762Y-56502438D01*
X162654762Y-56502438D02*
X162797619Y-56454819D01*
X162797619Y-56454819D02*
X162892857Y-56454819D01*
X162892857Y-56454819D02*
X163035714Y-56502438D01*
X163035714Y-56502438D02*
X163083333Y-56550057D01*
X163416667Y-56454819D02*
X164083333Y-56454819D01*
X164083333Y-56454819D02*
X163654762Y-57454819D01*
X158204819Y-54666666D02*
X157728628Y-54999999D01*
X158204819Y-55238094D02*
X157204819Y-55238094D01*
X157204819Y-55238094D02*
X157204819Y-54857142D01*
X157204819Y-54857142D02*
X157252438Y-54761904D01*
X157252438Y-54761904D02*
X157300057Y-54714285D01*
X157300057Y-54714285D02*
X157395295Y-54666666D01*
X157395295Y-54666666D02*
X157538152Y-54666666D01*
X157538152Y-54666666D02*
X157633390Y-54714285D01*
X157633390Y-54714285D02*
X157681009Y-54761904D01*
X157681009Y-54761904D02*
X157728628Y-54857142D01*
X157728628Y-54857142D02*
X157728628Y-55238094D01*
X157633390Y-54095237D02*
X157585771Y-54190475D01*
X157585771Y-54190475D02*
X157538152Y-54238094D01*
X157538152Y-54238094D02*
X157442914Y-54285713D01*
X157442914Y-54285713D02*
X157395295Y-54285713D01*
X157395295Y-54285713D02*
X157300057Y-54238094D01*
X157300057Y-54238094D02*
X157252438Y-54190475D01*
X157252438Y-54190475D02*
X157204819Y-54095237D01*
X157204819Y-54095237D02*
X157204819Y-53904761D01*
X157204819Y-53904761D02*
X157252438Y-53809523D01*
X157252438Y-53809523D02*
X157300057Y-53761904D01*
X157300057Y-53761904D02*
X157395295Y-53714285D01*
X157395295Y-53714285D02*
X157442914Y-53714285D01*
X157442914Y-53714285D02*
X157538152Y-53761904D01*
X157538152Y-53761904D02*
X157585771Y-53809523D01*
X157585771Y-53809523D02*
X157633390Y-53904761D01*
X157633390Y-53904761D02*
X157633390Y-54095237D01*
X157633390Y-54095237D02*
X157681009Y-54190475D01*
X157681009Y-54190475D02*
X157728628Y-54238094D01*
X157728628Y-54238094D02*
X157823866Y-54285713D01*
X157823866Y-54285713D02*
X158014342Y-54285713D01*
X158014342Y-54285713D02*
X158109580Y-54238094D01*
X158109580Y-54238094D02*
X158157200Y-54190475D01*
X158157200Y-54190475D02*
X158204819Y-54095237D01*
X158204819Y-54095237D02*
X158204819Y-53904761D01*
X158204819Y-53904761D02*
X158157200Y-53809523D01*
X158157200Y-53809523D02*
X158109580Y-53761904D01*
X158109580Y-53761904D02*
X158014342Y-53714285D01*
X158014342Y-53714285D02*
X157823866Y-53714285D01*
X157823866Y-53714285D02*
X157728628Y-53761904D01*
X157728628Y-53761904D02*
X157681009Y-53809523D01*
X157681009Y-53809523D02*
X157633390Y-53904761D01*
X164261905Y-58954819D02*
X164261905Y-57954819D01*
X164261905Y-57954819D02*
X164500000Y-57954819D01*
X164500000Y-57954819D02*
X164642857Y-58002438D01*
X164642857Y-58002438D02*
X164738095Y-58097676D01*
X164738095Y-58097676D02*
X164785714Y-58192914D01*
X164785714Y-58192914D02*
X164833333Y-58383390D01*
X164833333Y-58383390D02*
X164833333Y-58526247D01*
X164833333Y-58526247D02*
X164785714Y-58716723D01*
X164785714Y-58716723D02*
X164738095Y-58811961D01*
X164738095Y-58811961D02*
X164642857Y-58907200D01*
X164642857Y-58907200D02*
X164500000Y-58954819D01*
X164500000Y-58954819D02*
X164261905Y-58954819D01*
X165738095Y-57954819D02*
X165261905Y-57954819D01*
X165261905Y-57954819D02*
X165214286Y-58431009D01*
X165214286Y-58431009D02*
X165261905Y-58383390D01*
X165261905Y-58383390D02*
X165357143Y-58335771D01*
X165357143Y-58335771D02*
X165595238Y-58335771D01*
X165595238Y-58335771D02*
X165690476Y-58383390D01*
X165690476Y-58383390D02*
X165738095Y-58431009D01*
X165738095Y-58431009D02*
X165785714Y-58526247D01*
X165785714Y-58526247D02*
X165785714Y-58764342D01*
X165785714Y-58764342D02*
X165738095Y-58859580D01*
X165738095Y-58859580D02*
X165690476Y-58907200D01*
X165690476Y-58907200D02*
X165595238Y-58954819D01*
X165595238Y-58954819D02*
X165357143Y-58954819D01*
X165357143Y-58954819D02*
X165261905Y-58907200D01*
X165261905Y-58907200D02*
X165214286Y-58859580D01*
X176454819Y-72833333D02*
X177169104Y-72833333D01*
X177169104Y-72833333D02*
X177311961Y-72880952D01*
X177311961Y-72880952D02*
X177407200Y-72976190D01*
X177407200Y-72976190D02*
X177454819Y-73119047D01*
X177454819Y-73119047D02*
X177454819Y-73214285D01*
X177454819Y-71833333D02*
X177454819Y-72404761D01*
X177454819Y-72119047D02*
X176454819Y-72119047D01*
X176454819Y-72119047D02*
X176597676Y-72214285D01*
X176597676Y-72214285D02*
X176692914Y-72309523D01*
X176692914Y-72309523D02*
X176740533Y-72404761D01*
X165454819Y-67416666D02*
X164978628Y-67749999D01*
X165454819Y-67988094D02*
X164454819Y-67988094D01*
X164454819Y-67988094D02*
X164454819Y-67607142D01*
X164454819Y-67607142D02*
X164502438Y-67511904D01*
X164502438Y-67511904D02*
X164550057Y-67464285D01*
X164550057Y-67464285D02*
X164645295Y-67416666D01*
X164645295Y-67416666D02*
X164788152Y-67416666D01*
X164788152Y-67416666D02*
X164883390Y-67464285D01*
X164883390Y-67464285D02*
X164931009Y-67511904D01*
X164931009Y-67511904D02*
X164978628Y-67607142D01*
X164978628Y-67607142D02*
X164978628Y-67988094D01*
X164454819Y-66559523D02*
X164454819Y-66749999D01*
X164454819Y-66749999D02*
X164502438Y-66845237D01*
X164502438Y-66845237D02*
X164550057Y-66892856D01*
X164550057Y-66892856D02*
X164692914Y-66988094D01*
X164692914Y-66988094D02*
X164883390Y-67035713D01*
X164883390Y-67035713D02*
X165264342Y-67035713D01*
X165264342Y-67035713D02*
X165359580Y-66988094D01*
X165359580Y-66988094D02*
X165407200Y-66940475D01*
X165407200Y-66940475D02*
X165454819Y-66845237D01*
X165454819Y-66845237D02*
X165454819Y-66654761D01*
X165454819Y-66654761D02*
X165407200Y-66559523D01*
X165407200Y-66559523D02*
X165359580Y-66511904D01*
X165359580Y-66511904D02*
X165264342Y-66464285D01*
X165264342Y-66464285D02*
X165026247Y-66464285D01*
X165026247Y-66464285D02*
X164931009Y-66511904D01*
X164931009Y-66511904D02*
X164883390Y-66559523D01*
X164883390Y-66559523D02*
X164835771Y-66654761D01*
X164835771Y-66654761D02*
X164835771Y-66845237D01*
X164835771Y-66845237D02*
X164883390Y-66940475D01*
X164883390Y-66940475D02*
X164931009Y-66988094D01*
X164931009Y-66988094D02*
X165026247Y-67035713D01*
X161761905Y-58954819D02*
X161761905Y-57954819D01*
X161761905Y-57954819D02*
X162000000Y-57954819D01*
X162000000Y-57954819D02*
X162142857Y-58002438D01*
X162142857Y-58002438D02*
X162238095Y-58097676D01*
X162238095Y-58097676D02*
X162285714Y-58192914D01*
X162285714Y-58192914D02*
X162333333Y-58383390D01*
X162333333Y-58383390D02*
X162333333Y-58526247D01*
X162333333Y-58526247D02*
X162285714Y-58716723D01*
X162285714Y-58716723D02*
X162238095Y-58811961D01*
X162238095Y-58811961D02*
X162142857Y-58907200D01*
X162142857Y-58907200D02*
X162000000Y-58954819D01*
X162000000Y-58954819D02*
X161761905Y-58954819D01*
X162666667Y-57954819D02*
X163285714Y-57954819D01*
X163285714Y-57954819D02*
X162952381Y-58335771D01*
X162952381Y-58335771D02*
X163095238Y-58335771D01*
X163095238Y-58335771D02*
X163190476Y-58383390D01*
X163190476Y-58383390D02*
X163238095Y-58431009D01*
X163238095Y-58431009D02*
X163285714Y-58526247D01*
X163285714Y-58526247D02*
X163285714Y-58764342D01*
X163285714Y-58764342D02*
X163238095Y-58859580D01*
X163238095Y-58859580D02*
X163190476Y-58907200D01*
X163190476Y-58907200D02*
X163095238Y-58954819D01*
X163095238Y-58954819D02*
X162809524Y-58954819D01*
X162809524Y-58954819D02*
X162714286Y-58907200D01*
X162714286Y-58907200D02*
X162666667Y-58859580D01*
X153333333Y-52359580D02*
X153285714Y-52407200D01*
X153285714Y-52407200D02*
X153142857Y-52454819D01*
X153142857Y-52454819D02*
X153047619Y-52454819D01*
X153047619Y-52454819D02*
X152904762Y-52407200D01*
X152904762Y-52407200D02*
X152809524Y-52311961D01*
X152809524Y-52311961D02*
X152761905Y-52216723D01*
X152761905Y-52216723D02*
X152714286Y-52026247D01*
X152714286Y-52026247D02*
X152714286Y-51883390D01*
X152714286Y-51883390D02*
X152761905Y-51692914D01*
X152761905Y-51692914D02*
X152809524Y-51597676D01*
X152809524Y-51597676D02*
X152904762Y-51502438D01*
X152904762Y-51502438D02*
X153047619Y-51454819D01*
X153047619Y-51454819D02*
X153142857Y-51454819D01*
X153142857Y-51454819D02*
X153285714Y-51502438D01*
X153285714Y-51502438D02*
X153333333Y-51550057D01*
X153714286Y-51550057D02*
X153761905Y-51502438D01*
X153761905Y-51502438D02*
X153857143Y-51454819D01*
X153857143Y-51454819D02*
X154095238Y-51454819D01*
X154095238Y-51454819D02*
X154190476Y-51502438D01*
X154190476Y-51502438D02*
X154238095Y-51550057D01*
X154238095Y-51550057D02*
X154285714Y-51645295D01*
X154285714Y-51645295D02*
X154285714Y-51740533D01*
X154285714Y-51740533D02*
X154238095Y-51883390D01*
X154238095Y-51883390D02*
X153666667Y-52454819D01*
X153666667Y-52454819D02*
X154285714Y-52454819D01*
X169488095Y-76454819D02*
X169488095Y-77264342D01*
X169488095Y-77264342D02*
X169535714Y-77359580D01*
X169535714Y-77359580D02*
X169583333Y-77407200D01*
X169583333Y-77407200D02*
X169678571Y-77454819D01*
X169678571Y-77454819D02*
X169869047Y-77454819D01*
X169869047Y-77454819D02*
X169964285Y-77407200D01*
X169964285Y-77407200D02*
X170011904Y-77359580D01*
X170011904Y-77359580D02*
X170059523Y-77264342D01*
X170059523Y-77264342D02*
X170059523Y-76454819D01*
X170964285Y-76788152D02*
X170964285Y-77454819D01*
X170726190Y-76407200D02*
X170488095Y-77121485D01*
X170488095Y-77121485D02*
X171107142Y-77121485D01*
X171761905Y-58954819D02*
X171761905Y-57954819D01*
X171761905Y-57954819D02*
X172000000Y-57954819D01*
X172000000Y-57954819D02*
X172142857Y-58002438D01*
X172142857Y-58002438D02*
X172238095Y-58097676D01*
X172238095Y-58097676D02*
X172285714Y-58192914D01*
X172285714Y-58192914D02*
X172333333Y-58383390D01*
X172333333Y-58383390D02*
X172333333Y-58526247D01*
X172333333Y-58526247D02*
X172285714Y-58716723D01*
X172285714Y-58716723D02*
X172238095Y-58811961D01*
X172238095Y-58811961D02*
X172142857Y-58907200D01*
X172142857Y-58907200D02*
X172000000Y-58954819D01*
X172000000Y-58954819D02*
X171761905Y-58954819D01*
X173285714Y-58954819D02*
X172714286Y-58954819D01*
X173000000Y-58954819D02*
X173000000Y-57954819D01*
X173000000Y-57954819D02*
X172904762Y-58097676D01*
X172904762Y-58097676D02*
X172809524Y-58192914D01*
X172809524Y-58192914D02*
X172714286Y-58240533D01*
X172954819Y-67416666D02*
X172478628Y-67749999D01*
X172954819Y-67988094D02*
X171954819Y-67988094D01*
X171954819Y-67988094D02*
X171954819Y-67607142D01*
X171954819Y-67607142D02*
X172002438Y-67511904D01*
X172002438Y-67511904D02*
X172050057Y-67464285D01*
X172050057Y-67464285D02*
X172145295Y-67416666D01*
X172145295Y-67416666D02*
X172288152Y-67416666D01*
X172288152Y-67416666D02*
X172383390Y-67464285D01*
X172383390Y-67464285D02*
X172431009Y-67511904D01*
X172431009Y-67511904D02*
X172478628Y-67607142D01*
X172478628Y-67607142D02*
X172478628Y-67988094D01*
X172954819Y-66464285D02*
X172954819Y-67035713D01*
X172954819Y-66749999D02*
X171954819Y-66749999D01*
X171954819Y-66749999D02*
X172097676Y-66845237D01*
X172097676Y-66845237D02*
X172192914Y-66940475D01*
X172192914Y-66940475D02*
X172240533Y-67035713D01*
X170454819Y-67416666D02*
X169978628Y-67749999D01*
X170454819Y-67988094D02*
X169454819Y-67988094D01*
X169454819Y-67988094D02*
X169454819Y-67607142D01*
X169454819Y-67607142D02*
X169502438Y-67511904D01*
X169502438Y-67511904D02*
X169550057Y-67464285D01*
X169550057Y-67464285D02*
X169645295Y-67416666D01*
X169645295Y-67416666D02*
X169788152Y-67416666D01*
X169788152Y-67416666D02*
X169883390Y-67464285D01*
X169883390Y-67464285D02*
X169931009Y-67511904D01*
X169931009Y-67511904D02*
X169978628Y-67607142D01*
X169978628Y-67607142D02*
X169978628Y-67988094D01*
X169454819Y-66511904D02*
X169454819Y-66988094D01*
X169454819Y-66988094D02*
X169931009Y-67035713D01*
X169931009Y-67035713D02*
X169883390Y-66988094D01*
X169883390Y-66988094D02*
X169835771Y-66892856D01*
X169835771Y-66892856D02*
X169835771Y-66654761D01*
X169835771Y-66654761D02*
X169883390Y-66559523D01*
X169883390Y-66559523D02*
X169931009Y-66511904D01*
X169931009Y-66511904D02*
X170026247Y-66464285D01*
X170026247Y-66464285D02*
X170264342Y-66464285D01*
X170264342Y-66464285D02*
X170359580Y-66511904D01*
X170359580Y-66511904D02*
X170407200Y-66559523D01*
X170407200Y-66559523D02*
X170454819Y-66654761D01*
X170454819Y-66654761D02*
X170454819Y-66892856D01*
X170454819Y-66892856D02*
X170407200Y-66988094D01*
X170407200Y-66988094D02*
X170359580Y-67035713D01*
X167204819Y-67416666D02*
X166728628Y-67749999D01*
X167204819Y-67988094D02*
X166204819Y-67988094D01*
X166204819Y-67988094D02*
X166204819Y-67607142D01*
X166204819Y-67607142D02*
X166252438Y-67511904D01*
X166252438Y-67511904D02*
X166300057Y-67464285D01*
X166300057Y-67464285D02*
X166395295Y-67416666D01*
X166395295Y-67416666D02*
X166538152Y-67416666D01*
X166538152Y-67416666D02*
X166633390Y-67464285D01*
X166633390Y-67464285D02*
X166681009Y-67511904D01*
X166681009Y-67511904D02*
X166728628Y-67607142D01*
X166728628Y-67607142D02*
X166728628Y-67988094D01*
X166300057Y-67035713D02*
X166252438Y-66988094D01*
X166252438Y-66988094D02*
X166204819Y-66892856D01*
X166204819Y-66892856D02*
X166204819Y-66654761D01*
X166204819Y-66654761D02*
X166252438Y-66559523D01*
X166252438Y-66559523D02*
X166300057Y-66511904D01*
X166300057Y-66511904D02*
X166395295Y-66464285D01*
X166395295Y-66464285D02*
X166490533Y-66464285D01*
X166490533Y-66464285D02*
X166633390Y-66511904D01*
X166633390Y-66511904D02*
X167204819Y-67083332D01*
X167204819Y-67083332D02*
X167204819Y-66464285D01*
X176454819Y-105333333D02*
X177169104Y-105333333D01*
X177169104Y-105333333D02*
X177311961Y-105380952D01*
X177311961Y-105380952D02*
X177407200Y-105476190D01*
X177407200Y-105476190D02*
X177454819Y-105619047D01*
X177454819Y-105619047D02*
X177454819Y-105714285D01*
X176454819Y-104952380D02*
X176454819Y-104333333D01*
X176454819Y-104333333D02*
X176835771Y-104666666D01*
X176835771Y-104666666D02*
X176835771Y-104523809D01*
X176835771Y-104523809D02*
X176883390Y-104428571D01*
X176883390Y-104428571D02*
X176931009Y-104380952D01*
X176931009Y-104380952D02*
X177026247Y-104333333D01*
X177026247Y-104333333D02*
X177264342Y-104333333D01*
X177264342Y-104333333D02*
X177359580Y-104380952D01*
X177359580Y-104380952D02*
X177407200Y-104428571D01*
X177407200Y-104428571D02*
X177454819Y-104523809D01*
X177454819Y-104523809D02*
X177454819Y-104809523D01*
X177454819Y-104809523D02*
X177407200Y-104904761D01*
X177407200Y-104904761D02*
X177359580Y-104952380D01*
X163333333Y-110859580D02*
X163285714Y-110907200D01*
X163285714Y-110907200D02*
X163142857Y-110954819D01*
X163142857Y-110954819D02*
X163047619Y-110954819D01*
X163047619Y-110954819D02*
X162904762Y-110907200D01*
X162904762Y-110907200D02*
X162809524Y-110811961D01*
X162809524Y-110811961D02*
X162761905Y-110716723D01*
X162761905Y-110716723D02*
X162714286Y-110526247D01*
X162714286Y-110526247D02*
X162714286Y-110383390D01*
X162714286Y-110383390D02*
X162761905Y-110192914D01*
X162761905Y-110192914D02*
X162809524Y-110097676D01*
X162809524Y-110097676D02*
X162904762Y-110002438D01*
X162904762Y-110002438D02*
X163047619Y-109954819D01*
X163047619Y-109954819D02*
X163142857Y-109954819D01*
X163142857Y-109954819D02*
X163285714Y-110002438D01*
X163285714Y-110002438D02*
X163333333Y-110050057D01*
X164190476Y-110288152D02*
X164190476Y-110954819D01*
X163952381Y-109907200D02*
X163714286Y-110621485D01*
X163714286Y-110621485D02*
X164333333Y-110621485D01*
X166761905Y-58954819D02*
X166761905Y-57954819D01*
X166761905Y-57954819D02*
X167000000Y-57954819D01*
X167000000Y-57954819D02*
X167142857Y-58002438D01*
X167142857Y-58002438D02*
X167238095Y-58097676D01*
X167238095Y-58097676D02*
X167285714Y-58192914D01*
X167285714Y-58192914D02*
X167333333Y-58383390D01*
X167333333Y-58383390D02*
X167333333Y-58526247D01*
X167333333Y-58526247D02*
X167285714Y-58716723D01*
X167285714Y-58716723D02*
X167238095Y-58811961D01*
X167238095Y-58811961D02*
X167142857Y-58907200D01*
X167142857Y-58907200D02*
X167000000Y-58954819D01*
X167000000Y-58954819D02*
X166761905Y-58954819D01*
X167714286Y-58050057D02*
X167761905Y-58002438D01*
X167761905Y-58002438D02*
X167857143Y-57954819D01*
X167857143Y-57954819D02*
X168095238Y-57954819D01*
X168095238Y-57954819D02*
X168190476Y-58002438D01*
X168190476Y-58002438D02*
X168238095Y-58050057D01*
X168238095Y-58050057D02*
X168285714Y-58145295D01*
X168285714Y-58145295D02*
X168285714Y-58240533D01*
X168285714Y-58240533D02*
X168238095Y-58383390D01*
X168238095Y-58383390D02*
X167666667Y-58954819D01*
X167666667Y-58954819D02*
X168285714Y-58954819D01*
X176204819Y-56353334D02*
X176919104Y-56353334D01*
X176919104Y-56353334D02*
X177061961Y-56400953D01*
X177061961Y-56400953D02*
X177157200Y-56496191D01*
X177157200Y-56496191D02*
X177204819Y-56639048D01*
X177204819Y-56639048D02*
X177204819Y-56734286D01*
X176300057Y-55924762D02*
X176252438Y-55877143D01*
X176252438Y-55877143D02*
X176204819Y-55781905D01*
X176204819Y-55781905D02*
X176204819Y-55543810D01*
X176204819Y-55543810D02*
X176252438Y-55448572D01*
X176252438Y-55448572D02*
X176300057Y-55400953D01*
X176300057Y-55400953D02*
X176395295Y-55353334D01*
X176395295Y-55353334D02*
X176490533Y-55353334D01*
X176490533Y-55353334D02*
X176633390Y-55400953D01*
X176633390Y-55400953D02*
X177204819Y-55972381D01*
X177204819Y-55972381D02*
X177204819Y-55353334D01*
X146738095Y-111954819D02*
X146738095Y-112764342D01*
X146738095Y-112764342D02*
X146785714Y-112859580D01*
X146785714Y-112859580D02*
X146833333Y-112907200D01*
X146833333Y-112907200D02*
X146928571Y-112954819D01*
X146928571Y-112954819D02*
X147119047Y-112954819D01*
X147119047Y-112954819D02*
X147214285Y-112907200D01*
X147214285Y-112907200D02*
X147261904Y-112859580D01*
X147261904Y-112859580D02*
X147309523Y-112764342D01*
X147309523Y-112764342D02*
X147309523Y-111954819D01*
X148309523Y-112954819D02*
X147738095Y-112954819D01*
X148023809Y-112954819D02*
X148023809Y-111954819D01*
X148023809Y-111954819D02*
X147928571Y-112097676D01*
X147928571Y-112097676D02*
X147833333Y-112192914D01*
X147833333Y-112192914D02*
X147738095Y-112240533D01*
X169238095Y-112954819D02*
X169238095Y-113764342D01*
X169238095Y-113764342D02*
X169285714Y-113859580D01*
X169285714Y-113859580D02*
X169333333Y-113907200D01*
X169333333Y-113907200D02*
X169428571Y-113954819D01*
X169428571Y-113954819D02*
X169619047Y-113954819D01*
X169619047Y-113954819D02*
X169714285Y-113907200D01*
X169714285Y-113907200D02*
X169761904Y-113859580D01*
X169761904Y-113859580D02*
X169809523Y-113764342D01*
X169809523Y-113764342D02*
X169809523Y-112954819D01*
X170761904Y-112954819D02*
X170285714Y-112954819D01*
X170285714Y-112954819D02*
X170238095Y-113431009D01*
X170238095Y-113431009D02*
X170285714Y-113383390D01*
X170285714Y-113383390D02*
X170380952Y-113335771D01*
X170380952Y-113335771D02*
X170619047Y-113335771D01*
X170619047Y-113335771D02*
X170714285Y-113383390D01*
X170714285Y-113383390D02*
X170761904Y-113431009D01*
X170761904Y-113431009D02*
X170809523Y-113526247D01*
X170809523Y-113526247D02*
X170809523Y-113764342D01*
X170809523Y-113764342D02*
X170761904Y-113859580D01*
X170761904Y-113859580D02*
X170714285Y-113907200D01*
X170714285Y-113907200D02*
X170619047Y-113954819D01*
X170619047Y-113954819D02*
X170380952Y-113954819D01*
X170380952Y-113954819D02*
X170285714Y-113907200D01*
X170285714Y-113907200D02*
X170238095Y-113859580D01*
X176204819Y-89083333D02*
X176919104Y-89083333D01*
X176919104Y-89083333D02*
X177061961Y-89130952D01*
X177061961Y-89130952D02*
X177157200Y-89226190D01*
X177157200Y-89226190D02*
X177204819Y-89369047D01*
X177204819Y-89369047D02*
X177204819Y-89464285D01*
X176538152Y-88178571D02*
X177204819Y-88178571D01*
X176157200Y-88416666D02*
X176871485Y-88654761D01*
X176871485Y-88654761D02*
X176871485Y-88035714D01*
X168892856Y-56204819D02*
X168416666Y-56204819D01*
X168416666Y-56204819D02*
X168369047Y-56681009D01*
X168369047Y-56681009D02*
X168416666Y-56633390D01*
X168416666Y-56633390D02*
X168511904Y-56585771D01*
X168511904Y-56585771D02*
X168749999Y-56585771D01*
X168749999Y-56585771D02*
X168845237Y-56633390D01*
X168845237Y-56633390D02*
X168892856Y-56681009D01*
X168892856Y-56681009D02*
X168940475Y-56776247D01*
X168940475Y-56776247D02*
X168940475Y-57014342D01*
X168940475Y-57014342D02*
X168892856Y-57109580D01*
X168892856Y-57109580D02*
X168845237Y-57157200D01*
X168845237Y-57157200D02*
X168749999Y-57204819D01*
X168749999Y-57204819D02*
X168511904Y-57204819D01*
X168511904Y-57204819D02*
X168416666Y-57157200D01*
X168416666Y-57157200D02*
X168369047Y-57109580D01*
X169273809Y-56538152D02*
X169511904Y-57204819D01*
X169511904Y-57204819D02*
X169749999Y-56538152D01*
X169892857Y-57300057D02*
X170654761Y-57300057D01*
X171178571Y-56204819D02*
X171178571Y-56919104D01*
X171178571Y-56919104D02*
X171130952Y-57061961D01*
X171130952Y-57061961D02*
X171035714Y-57157200D01*
X171035714Y-57157200D02*
X170892857Y-57204819D01*
X170892857Y-57204819D02*
X170797619Y-57204819D01*
X171654762Y-57204819D02*
X171654762Y-56204819D01*
X171654762Y-56204819D02*
X172035714Y-56204819D01*
X172035714Y-56204819D02*
X172130952Y-56252438D01*
X172130952Y-56252438D02*
X172178571Y-56300057D01*
X172178571Y-56300057D02*
X172226190Y-56395295D01*
X172226190Y-56395295D02*
X172226190Y-56538152D01*
X172226190Y-56538152D02*
X172178571Y-56633390D01*
X172178571Y-56633390D02*
X172130952Y-56681009D01*
X172130952Y-56681009D02*
X172035714Y-56728628D01*
X172035714Y-56728628D02*
X171654762Y-56728628D01*
X173178571Y-57204819D02*
X172607143Y-57204819D01*
X172892857Y-57204819D02*
X172892857Y-56204819D01*
X172892857Y-56204819D02*
X172797619Y-56347676D01*
X172797619Y-56347676D02*
X172702381Y-56442914D01*
X172702381Y-56442914D02*
X172607143Y-56490533D01*
X174035714Y-56538152D02*
X174035714Y-57204819D01*
X173797619Y-56157200D02*
X173559524Y-56871485D01*
X173559524Y-56871485D02*
X174178571Y-56871485D01*
X155204819Y-55904762D02*
X155204819Y-56095238D01*
X155204819Y-56095238D02*
X155252438Y-56190476D01*
X155252438Y-56190476D02*
X155300057Y-56238095D01*
X155300057Y-56238095D02*
X155442914Y-56333333D01*
X155442914Y-56333333D02*
X155633390Y-56380952D01*
X155633390Y-56380952D02*
X156014342Y-56380952D01*
X156014342Y-56380952D02*
X156109580Y-56333333D01*
X156109580Y-56333333D02*
X156157200Y-56285714D01*
X156157200Y-56285714D02*
X156204819Y-56190476D01*
X156204819Y-56190476D02*
X156204819Y-56000000D01*
X156204819Y-56000000D02*
X156157200Y-55904762D01*
X156157200Y-55904762D02*
X156109580Y-55857143D01*
X156109580Y-55857143D02*
X156014342Y-55809524D01*
X156014342Y-55809524D02*
X155776247Y-55809524D01*
X155776247Y-55809524D02*
X155681009Y-55857143D01*
X155681009Y-55857143D02*
X155633390Y-55904762D01*
X155633390Y-55904762D02*
X155585771Y-56000000D01*
X155585771Y-56000000D02*
X155585771Y-56190476D01*
X155585771Y-56190476D02*
X155633390Y-56285714D01*
X155633390Y-56285714D02*
X155681009Y-56333333D01*
X155681009Y-56333333D02*
X155776247Y-56380952D01*
X155538152Y-55476190D02*
X156204819Y-55238095D01*
X156204819Y-55238095D02*
X155538152Y-55000000D01*
X156300057Y-54857143D02*
X156300057Y-54095238D01*
X155204819Y-53571428D02*
X155919104Y-53571428D01*
X155919104Y-53571428D02*
X156061961Y-53619047D01*
X156061961Y-53619047D02*
X156157200Y-53714285D01*
X156157200Y-53714285D02*
X156204819Y-53857142D01*
X156204819Y-53857142D02*
X156204819Y-53952380D01*
X156204819Y-53095237D02*
X155204819Y-53095237D01*
X155204819Y-53095237D02*
X155204819Y-52714285D01*
X155204819Y-52714285D02*
X155252438Y-52619047D01*
X155252438Y-52619047D02*
X155300057Y-52571428D01*
X155300057Y-52571428D02*
X155395295Y-52523809D01*
X155395295Y-52523809D02*
X155538152Y-52523809D01*
X155538152Y-52523809D02*
X155633390Y-52571428D01*
X155633390Y-52571428D02*
X155681009Y-52619047D01*
X155681009Y-52619047D02*
X155728628Y-52714285D01*
X155728628Y-52714285D02*
X155728628Y-53095237D01*
X156204819Y-51571428D02*
X156204819Y-52142856D01*
X156204819Y-51857142D02*
X155204819Y-51857142D01*
X155204819Y-51857142D02*
X155347676Y-51952380D01*
X155347676Y-51952380D02*
X155442914Y-52047618D01*
X155442914Y-52047618D02*
X155490533Y-52142856D01*
X155204819Y-51238094D02*
X155204819Y-50619047D01*
X155204819Y-50619047D02*
X155585771Y-50952380D01*
X155585771Y-50952380D02*
X155585771Y-50809523D01*
X155585771Y-50809523D02*
X155633390Y-50714285D01*
X155633390Y-50714285D02*
X155681009Y-50666666D01*
X155681009Y-50666666D02*
X155776247Y-50619047D01*
X155776247Y-50619047D02*
X156014342Y-50619047D01*
X156014342Y-50619047D02*
X156109580Y-50666666D01*
X156109580Y-50666666D02*
X156157200Y-50714285D01*
X156157200Y-50714285D02*
X156204819Y-50809523D01*
X156204819Y-50809523D02*
X156204819Y-51095237D01*
X156204819Y-51095237D02*
X156157200Y-51190475D01*
X156157200Y-51190475D02*
X156109580Y-51238094D01*
X138333333Y-48359580D02*
X138285714Y-48407200D01*
X138285714Y-48407200D02*
X138142857Y-48454819D01*
X138142857Y-48454819D02*
X138047619Y-48454819D01*
X138047619Y-48454819D02*
X137904762Y-48407200D01*
X137904762Y-48407200D02*
X137809524Y-48311961D01*
X137809524Y-48311961D02*
X137761905Y-48216723D01*
X137761905Y-48216723D02*
X137714286Y-48026247D01*
X137714286Y-48026247D02*
X137714286Y-47883390D01*
X137714286Y-47883390D02*
X137761905Y-47692914D01*
X137761905Y-47692914D02*
X137809524Y-47597676D01*
X137809524Y-47597676D02*
X137904762Y-47502438D01*
X137904762Y-47502438D02*
X138047619Y-47454819D01*
X138047619Y-47454819D02*
X138142857Y-47454819D01*
X138142857Y-47454819D02*
X138285714Y-47502438D01*
X138285714Y-47502438D02*
X138333333Y-47550057D01*
X139285714Y-48454819D02*
X138714286Y-48454819D01*
X139000000Y-48454819D02*
X139000000Y-47454819D01*
X139000000Y-47454819D02*
X138904762Y-47597676D01*
X138904762Y-47597676D02*
X138809524Y-47692914D01*
X138809524Y-47692914D02*
X138714286Y-47740533D01*
X162954819Y-67416666D02*
X162478628Y-67749999D01*
X162954819Y-67988094D02*
X161954819Y-67988094D01*
X161954819Y-67988094D02*
X161954819Y-67607142D01*
X161954819Y-67607142D02*
X162002438Y-67511904D01*
X162002438Y-67511904D02*
X162050057Y-67464285D01*
X162050057Y-67464285D02*
X162145295Y-67416666D01*
X162145295Y-67416666D02*
X162288152Y-67416666D01*
X162288152Y-67416666D02*
X162383390Y-67464285D01*
X162383390Y-67464285D02*
X162431009Y-67511904D01*
X162431009Y-67511904D02*
X162478628Y-67607142D01*
X162478628Y-67607142D02*
X162478628Y-67988094D01*
X161954819Y-67083332D02*
X161954819Y-66464285D01*
X161954819Y-66464285D02*
X162335771Y-66797618D01*
X162335771Y-66797618D02*
X162335771Y-66654761D01*
X162335771Y-66654761D02*
X162383390Y-66559523D01*
X162383390Y-66559523D02*
X162431009Y-66511904D01*
X162431009Y-66511904D02*
X162526247Y-66464285D01*
X162526247Y-66464285D02*
X162764342Y-66464285D01*
X162764342Y-66464285D02*
X162859580Y-66511904D01*
X162859580Y-66511904D02*
X162907200Y-66559523D01*
X162907200Y-66559523D02*
X162954819Y-66654761D01*
X162954819Y-66654761D02*
X162954819Y-66940475D01*
X162954819Y-66940475D02*
X162907200Y-67035713D01*
X162907200Y-67035713D02*
X162859580Y-67083332D01*
X169261905Y-58954819D02*
X169261905Y-57954819D01*
X169261905Y-57954819D02*
X169500000Y-57954819D01*
X169500000Y-57954819D02*
X169642857Y-58002438D01*
X169642857Y-58002438D02*
X169738095Y-58097676D01*
X169738095Y-58097676D02*
X169785714Y-58192914D01*
X169785714Y-58192914D02*
X169833333Y-58383390D01*
X169833333Y-58383390D02*
X169833333Y-58526247D01*
X169833333Y-58526247D02*
X169785714Y-58716723D01*
X169785714Y-58716723D02*
X169738095Y-58811961D01*
X169738095Y-58811961D02*
X169642857Y-58907200D01*
X169642857Y-58907200D02*
X169500000Y-58954819D01*
X169500000Y-58954819D02*
X169261905Y-58954819D01*
X170690476Y-58288152D02*
X170690476Y-58954819D01*
X170452381Y-57907200D02*
X170214286Y-58621485D01*
X170214286Y-58621485D02*
X170833333Y-58621485D01*
D11*
X138333333Y-56957419D02*
X137857143Y-56957419D01*
X137857143Y-56957419D02*
X137857143Y-55957419D01*
X139190476Y-56957419D02*
X138619048Y-56957419D01*
X138904762Y-56957419D02*
X138904762Y-55957419D01*
X138904762Y-55957419D02*
X138809524Y-56100276D01*
X138809524Y-56100276D02*
X138714286Y-56195514D01*
X138714286Y-56195514D02*
X138619048Y-56243133D01*
D10*
X134666666Y-54954819D02*
X134666666Y-55669104D01*
X134666666Y-55669104D02*
X134619047Y-55811961D01*
X134619047Y-55811961D02*
X134523809Y-55907200D01*
X134523809Y-55907200D02*
X134380952Y-55954819D01*
X134380952Y-55954819D02*
X134285714Y-55954819D01*
X135619047Y-54954819D02*
X135142857Y-54954819D01*
X135142857Y-54954819D02*
X135095238Y-55431009D01*
X135095238Y-55431009D02*
X135142857Y-55383390D01*
X135142857Y-55383390D02*
X135238095Y-55335771D01*
X135238095Y-55335771D02*
X135476190Y-55335771D01*
X135476190Y-55335771D02*
X135571428Y-55383390D01*
X135571428Y-55383390D02*
X135619047Y-55431009D01*
X135619047Y-55431009D02*
X135666666Y-55526247D01*
X135666666Y-55526247D02*
X135666666Y-55764342D01*
X135666666Y-55764342D02*
X135619047Y-55859580D01*
X135619047Y-55859580D02*
X135571428Y-55907200D01*
X135571428Y-55907200D02*
X135476190Y-55954819D01*
X135476190Y-55954819D02*
X135238095Y-55954819D01*
X135238095Y-55954819D02*
X135142857Y-55907200D01*
X135142857Y-55907200D02*
X135095238Y-55859580D01*
X164583333Y-77359580D02*
X164535714Y-77407200D01*
X164535714Y-77407200D02*
X164392857Y-77454819D01*
X164392857Y-77454819D02*
X164297619Y-77454819D01*
X164297619Y-77454819D02*
X164154762Y-77407200D01*
X164154762Y-77407200D02*
X164059524Y-77311961D01*
X164059524Y-77311961D02*
X164011905Y-77216723D01*
X164011905Y-77216723D02*
X163964286Y-77026247D01*
X163964286Y-77026247D02*
X163964286Y-76883390D01*
X163964286Y-76883390D02*
X164011905Y-76692914D01*
X164011905Y-76692914D02*
X164059524Y-76597676D01*
X164059524Y-76597676D02*
X164154762Y-76502438D01*
X164154762Y-76502438D02*
X164297619Y-76454819D01*
X164297619Y-76454819D02*
X164392857Y-76454819D01*
X164392857Y-76454819D02*
X164535714Y-76502438D01*
X164535714Y-76502438D02*
X164583333Y-76550057D01*
X164916667Y-76454819D02*
X165535714Y-76454819D01*
X165535714Y-76454819D02*
X165202381Y-76835771D01*
X165202381Y-76835771D02*
X165345238Y-76835771D01*
X165345238Y-76835771D02*
X165440476Y-76883390D01*
X165440476Y-76883390D02*
X165488095Y-76931009D01*
X165488095Y-76931009D02*
X165535714Y-77026247D01*
X165535714Y-77026247D02*
X165535714Y-77264342D01*
X165535714Y-77264342D02*
X165488095Y-77359580D01*
X165488095Y-77359580D02*
X165440476Y-77407200D01*
X165440476Y-77407200D02*
X165345238Y-77454819D01*
X165345238Y-77454819D02*
X165059524Y-77454819D01*
X165059524Y-77454819D02*
X164964286Y-77407200D01*
X164964286Y-77407200D02*
X164916667Y-77359580D01*
D12*
%TO.C,U2*%
X167500000Y-50650000D02*
X167500000Y-53750000D01*
X165400000Y-55850000D02*
X163400000Y-55850000D01*
X161300000Y-50650000D02*
X161300000Y-53750000D01*
X166400000Y-45650000D02*
X162400000Y-45650000D01*
D13*
X163100000Y-46250000D02*
G75*
G02*
X162700000Y-46250000I-200000J0D01*
G01*
X162700000Y-46250000D02*
G75*
G02*
X163100000Y-46250000I200000J0D01*
G01*
D14*
%TO.C,C5*%
X158190000Y-45390581D02*
X158190000Y-45109419D01*
X159210000Y-45390581D02*
X159210000Y-45109419D01*
%TO.C,R7*%
X159727500Y-45487258D02*
X159727500Y-45012742D01*
X160772500Y-45487258D02*
X160772500Y-45012742D01*
%TO.C,R9*%
X158022500Y-51812742D02*
X158022500Y-52287258D01*
X156977500Y-51812742D02*
X156977500Y-52287258D01*
%TO.C,C6*%
X158190000Y-48440581D02*
X158190000Y-48159419D01*
X159210000Y-48440581D02*
X159210000Y-48159419D01*
%TO.C,C7*%
X165059419Y-56390000D02*
X165340581Y-56390000D01*
X165059419Y-57410000D02*
X165340581Y-57410000D01*
%TO.C,R8*%
X158477500Y-52287258D02*
X158477500Y-51812742D01*
X159522500Y-52287258D02*
X159522500Y-51812742D01*
%TO.C,D5*%
X165784999Y-61749998D02*
X165784999Y-59289998D01*
X165784999Y-59289998D02*
X164314999Y-59289998D01*
X164314999Y-59289998D02*
X164314999Y-61749998D01*
%TO.C,J1*%
X180680000Y-67310000D02*
X180680000Y-80120000D01*
X177920001Y-66040000D02*
X177920000Y-64660000D01*
X177920000Y-80120000D02*
X180680000Y-80120000D01*
X177920000Y-67310000D02*
X180680000Y-67310000D01*
X177920000Y-67310000D02*
X177920000Y-80120000D01*
X177920000Y-64660000D02*
X179300000Y-64660001D01*
%TO.C,R6*%
X165572499Y-64937256D02*
X165572499Y-64462740D01*
X164527499Y-64937256D02*
X164527499Y-64462740D01*
%TO.C,D3*%
X163284999Y-61774999D02*
X163284999Y-59314999D01*
X163284999Y-59314999D02*
X161814999Y-59314999D01*
X161814999Y-59314999D02*
X161814999Y-61774999D01*
%TO.C,C2*%
X152590000Y-49609419D02*
X152590000Y-49890581D01*
X153610000Y-49609419D02*
X153610000Y-49890581D01*
D12*
%TO.C,U4*%
X173250000Y-77200000D02*
G75*
G02*
X173050000Y-77200000I-100000J0D01*
G01*
X173050000Y-77200000D02*
G75*
G02*
X173250000Y-77200000I100000J0D01*
G01*
D14*
%TO.C,D1*%
X173284999Y-61750000D02*
X173284999Y-59290000D01*
X173284999Y-59290000D02*
X171814999Y-59290000D01*
X171814999Y-59290000D02*
X171814999Y-61750000D01*
%TO.C,R1*%
X173072500Y-64937258D02*
X173072500Y-64462742D01*
X172027500Y-64937258D02*
X172027500Y-64462742D01*
%TO.C,R5*%
X170572500Y-64937258D02*
X170572500Y-64462742D01*
X169527500Y-64937258D02*
X169527500Y-64462742D01*
%TO.C,R2*%
X168072499Y-64937255D02*
X168072499Y-64462739D01*
X167027499Y-64937255D02*
X167027499Y-64462739D01*
%TO.C,J3*%
X180680000Y-99890001D02*
X180680000Y-112700001D01*
X177920001Y-98620001D02*
X177920000Y-97240001D01*
X177920000Y-112700001D02*
X180680000Y-112700001D01*
X177920000Y-99890001D02*
X180680000Y-99890001D01*
X177920000Y-99890001D02*
X177920000Y-112700001D01*
X177920000Y-97240001D02*
X179300000Y-97240002D01*
%TO.C,C4*%
X164753079Y-109620000D02*
X164471917Y-109620000D01*
X164753079Y-108600000D02*
X164471917Y-108600000D01*
%TO.C,D2*%
X168284999Y-61749998D02*
X168284999Y-59289998D01*
X168284999Y-59289998D02*
X166814999Y-59289998D01*
X166814999Y-59289998D02*
X166814999Y-61749998D01*
%TO.C,J2*%
X180680000Y-50940001D02*
X180680000Y-63750001D01*
X177920001Y-49670001D02*
X177920000Y-48290001D01*
X177920000Y-63750001D02*
X180680000Y-63750001D01*
X177920000Y-50940001D02*
X180680000Y-50940001D01*
X177920000Y-50940001D02*
X177920000Y-63750001D01*
X177920000Y-48290001D02*
X179300000Y-48290002D01*
D12*
%TO.C,U1*%
X133030000Y-65420000D02*
G75*
G02*
X132830000Y-65420000I-100000J0D01*
G01*
X132830000Y-65420000D02*
G75*
G02*
X133030000Y-65420000I100000J0D01*
G01*
D15*
X161450000Y-112490000D02*
X161450000Y-64290000D01*
X161450000Y-64290000D02*
X156500000Y-64290001D01*
X156500001Y-58090000D02*
X156500000Y-64290001D01*
X151560000Y-113390000D02*
X151560000Y-112490000D01*
X151560000Y-112490000D02*
X161450000Y-112490000D01*
X143430000Y-113390000D02*
X151560000Y-113390000D01*
X143430000Y-112490000D02*
X143430000Y-113390000D01*
X138500000Y-64290001D02*
X138499999Y-58090000D01*
X138500000Y-64290001D02*
X133550000Y-64290000D01*
X138499999Y-58090000D02*
X156500001Y-58090000D01*
X133550000Y-112490000D02*
X143430000Y-112490000D01*
X133550000Y-64290000D02*
X133550000Y-112490000D01*
D12*
%TO.C,U5*%
X173000000Y-113400000D02*
G75*
G02*
X172800000Y-113400000I-100000J0D01*
G01*
X172800000Y-113400000D02*
G75*
G02*
X173000000Y-113400000I100000J0D01*
G01*
D14*
%TO.C,J4*%
X180680000Y-83610000D02*
X180680000Y-96420000D01*
X177920001Y-82340000D02*
X177920000Y-80960000D01*
X177920000Y-96420000D02*
X180680000Y-96420000D01*
X177920000Y-83610000D02*
X180680000Y-83610000D01*
X177920000Y-83610000D02*
X177920000Y-96420000D01*
X177920000Y-80960000D02*
X179300000Y-80960001D01*
%TO.C,5v_JP14*%
X170950000Y-55850000D02*
X168150000Y-55850000D01*
X170950000Y-53850000D02*
X170950000Y-55850000D01*
X168150000Y-55850000D02*
X168150000Y-53850000D01*
X168150000Y-53850000D02*
X170950000Y-53850000D01*
%TO.C,6v_JP13*%
X157450000Y-50008250D02*
X154650000Y-50008250D01*
X157450000Y-48008250D02*
X157450000Y-50008250D01*
X154650000Y-50008250D02*
X154650000Y-48008250D01*
X154650000Y-48008250D02*
X157450000Y-48008250D01*
%TO.C,C1*%
X139010000Y-49742669D02*
X139010000Y-50023831D01*
X137990000Y-49742669D02*
X137990000Y-50023831D01*
%TO.C,R3*%
X163072499Y-64962256D02*
X163072499Y-64487740D01*
X162027499Y-64962256D02*
X162027499Y-64487740D01*
%TO.C,D4*%
X170784999Y-61750000D02*
X170784999Y-59290000D01*
X170784999Y-59290000D02*
X169314999Y-59290000D01*
X169314999Y-59290000D02*
X169314999Y-61750000D01*
D11*
%TO.C,L1*%
X151300000Y-50500000D02*
G75*
G02*
X140300000Y-50500000I-5500000J0D01*
G01*
X140300000Y-50500000D02*
G75*
G02*
X151300000Y-50500000I5500000J0D01*
G01*
X139800000Y-44500000D02*
X151800000Y-44500000D01*
X151800000Y-56500000D01*
X139800000Y-56500000D01*
X139800000Y-44500000D01*
D14*
%TO.C,J5*%
X137360000Y-54268250D02*
X137360000Y-46548250D01*
X137360000Y-46548250D02*
X133340000Y-46548250D01*
X136860000Y-53768250D02*
X135650000Y-53768250D01*
X136860000Y-47048250D02*
X136860000Y-53768250D01*
X135650000Y-53768250D02*
X135650000Y-54268250D01*
X135650000Y-47048250D02*
X136860000Y-47048250D01*
X135650000Y-46548250D02*
X135650000Y-47048250D01*
X135540000Y-46248250D02*
X133040000Y-46248250D01*
X134840000Y-54268250D02*
X134840000Y-53268249D01*
X134840000Y-53268249D02*
X133340000Y-53268250D01*
X134840000Y-47548251D02*
X133340000Y-47548250D01*
X134840000Y-46548250D02*
X134840000Y-47548251D01*
X133340000Y-54268250D02*
X137360000Y-54268250D01*
X133340000Y-46548250D02*
X133340000Y-54268250D01*
X133040000Y-46248250D02*
X133040000Y-48748250D01*
%TO.C,C3*%
X165310000Y-74609419D02*
X165310000Y-74890581D01*
X164290000Y-74609419D02*
X164290000Y-74890581D01*
%TD*%
M02*
